<svg width="173" height="39" viewBox="0 0 173 39" fill="none" xmlns="http://www.w3.org/2000/svg">
<path d="M32.7188 15.0088V15.0078C32.7204 15.0095 32.722 15.0111 32.7236 15.0127V15.0137L32.7451 15.0352V15.0361C34.8801 17.2103 36.2368 20.0457 36.5986 23.0918C36.9604 26.1382 36.3069 29.2199 34.7412 31.8457C33.1756 34.4714 30.7883 36.4908 27.9609 37.584C25.1338 38.677 22.0271 38.7818 19.1348 37.8818L19.1338 37.8809C18.7851 37.773 18.4122 37.773 18.0635 37.8809L18.0625 37.8818C15.1699 38.7821 12.0627 38.6769 9.23535 37.584C6.40795 36.491 4.02077 34.4715 2.45508 31.8457C0.889421 29.2198 0.235737 26.1382 0.597656 23.0918C0.959647 20.0454 2.31587 17.2094 4.45117 15.0352L4.46875 15.0186C4.47901 15.0085 4.48822 15 4.49512 14.9922V14.9912L18.5986 0.710938L32.7188 15.0088ZM18.2432 7.71094L7.74023 18.3447C6.06711 20.0433 5.12934 22.3439 5.13086 24.7402C5.13232 26.9869 5.9586 29.1484 7.44238 30.8076L7.74805 31.1318C8.56567 31.9617 9.53549 32.6233 10.6035 33.0781L10.6084 33.0801C10.7607 33.1429 10.9291 33.1549 11.0889 33.1152C11.2485 33.0755 11.3918 32.9864 11.4971 32.8604L11.4961 32.8594C11.6006 32.7341 11.6637 32.58 11.6758 32.418C11.6877 32.2559 11.6483 32.0934 11.5635 31.9541C10.2706 29.8302 9.57448 27.3891 9.54883 24.8936L9.55371 24.8408C9.55711 24.8234 9.56173 24.8063 9.56836 24.79L9.56934 24.7891C9.58285 24.7563 9.60194 24.7265 9.62598 24.7021L9.63184 24.6973L9.63672 24.6914L13.7031 20.3242C13.1752 21.9548 13.2253 23.76 13.6562 25.4707C14.196 27.6133 15.3443 29.6621 16.792 31.1289V31.1299L16.8057 31.1436L16.8105 31.1475C17.2852 31.6235 17.9278 31.8923 18.5986 31.8926C19.2693 31.8927 19.9118 31.6242 20.3867 31.1484L20.3887 31.1475L20.4033 31.1318C21.8519 29.6648 23.0008 27.6149 23.541 25.4707C23.9722 23.7594 24.0213 21.9543 23.4932 20.3232L27.5605 24.6914L27.5713 24.7021C27.5959 24.727 27.6154 24.7571 27.6289 24.79C27.6357 24.8066 27.6411 24.8235 27.6445 24.8408L27.6504 24.8936C27.6243 27.3889 26.9267 29.8296 25.6338 31.9531C25.5486 32.0928 25.5097 32.2553 25.5215 32.417C25.5334 32.5802 25.5962 32.7355 25.7002 32.8604L25.7021 32.8613C25.8063 32.9851 25.9479 33.0753 26.1084 33.1152C26.2683 33.155 26.4368 33.1426 26.5889 33.0801L26.5947 33.0781C27.6626 32.6232 28.6316 31.9607 29.4492 31.1309C31.1242 29.4344 32.066 27.1363 32.0674 24.7402C32.069 22.3436 31.1304 20.0431 29.457 18.3447L18.9541 7.71094L18.5986 7.35059L18.2432 7.71094ZM4.52441 14.9561C4.52175 14.9597 4.5166 14.9636 4.51172 14.9697C4.52054 14.9586 4.52755 14.9507 4.5293 14.9482L4.52441 14.9561Z" fill="#999999" stroke="#E3E0DC"/>
<path d="M68.7138 12.2406H73.5047L68.5352 29.0528H63.0599L60.7389 19.1101L58.3881 29.0528H52.9128L47.9434 12.2406H53.0318L55.6207 24.0513L58.1798 12.2406H63.5658L66.1249 24.0513L68.7138 12.2406Z" fill="#999999"/>
<path d="M85.9494 23.7199C86.6834 22.9968 87.0504 21.9724 87.0504 20.6467C87.0504 19.321 86.6834 18.3067 85.9494 17.6036C85.2154 16.8805 84.3723 16.519 83.42 16.519C82.4678 16.519 81.6247 16.8805 80.8907 17.6036C80.1567 18.3267 79.7897 19.3511 79.7897 20.6768C79.7897 22.0025 80.1567 23.0269 80.8907 23.75C81.6247 24.4531 82.4678 24.8046 83.42 24.8046C84.3723 24.8046 85.2154 24.443 85.9494 23.7199ZM76.814 26.8534C75.346 25.2465 74.612 23.1876 74.612 20.6768C74.612 18.166 75.346 16.1072 76.814 14.5003C78.282 12.8733 80.0674 12.0598 82.1702 12.0598C84.2929 12.0598 85.9196 12.8532 87.0504 14.44V12.2406H92.1389V29.0528H87.0504V26.6123C85.8204 28.3799 84.1739 29.2637 82.1107 29.2637C80.0476 29.2637 78.282 28.4603 76.814 26.8534Z" fill="#999999"/>
<path d="M94.4969 12.2406H99.9127L103.692 24.7443L107.471 12.2406H112.887L106.995 29.0528H100.389L94.4969 12.2406Z" fill="#999999"/>
<path d="M122.289 29.2637C119.869 29.2637 117.885 28.4804 116.338 26.9136C114.79 25.3268 114.017 23.2278 114.017 20.6166C114.017 18.0054 114.781 15.9264 116.308 14.3798C117.855 12.8331 119.849 12.0598 122.289 12.0598C124.729 12.0598 126.753 12.8231 128.36 14.3496C129.967 15.8762 130.77 17.9953 130.77 20.707C130.77 21.2895 130.73 21.8318 130.651 22.334H119.224C119.323 23.0772 119.651 23.6898 120.206 24.1719C120.762 24.6338 121.357 24.8648 121.992 24.8648C122.646 24.8648 123.132 24.8046 123.45 24.6841C123.767 24.5435 123.995 24.4129 124.134 24.2924C124.293 24.1518 124.491 23.9308 124.729 23.6295H130.234C129.758 25.3168 128.806 26.6826 127.378 27.7271C125.949 28.7515 124.253 29.2637 122.289 29.2637ZM125.473 19.1101C125.394 18.3267 125.057 17.694 124.462 17.2119C123.866 16.7098 123.162 16.4587 122.349 16.4587C121.535 16.4587 120.851 16.7098 120.296 17.2119C119.74 17.694 119.393 18.3267 119.254 19.1101H125.473Z" fill="#999999"/>
<path d="M139.127 12.2406V15.374C140.317 13.1646 141.904 12.0598 143.888 12.0598V17.3023H142.638C141.468 17.3023 140.585 17.5835 139.99 18.146C139.415 18.7084 139.127 19.6926 139.127 21.0986V29.0528H134.038V12.2406H139.127Z" fill="#999999"/>
<path d="M151.292 10.3424C150.717 10.9249 150.013 11.2162 149.18 11.2162C148.346 11.2162 147.642 10.9249 147.067 10.3424C146.492 9.75992 146.204 9.04686 146.204 8.20323C146.204 7.33952 146.492 6.61641 147.067 6.03391C147.642 5.45141 148.346 5.16016 149.18 5.16016C150.013 5.16016 150.717 5.45141 151.292 6.03391C151.868 6.61641 152.155 7.33952 152.155 8.20323C152.155 9.04686 151.868 9.75992 151.292 10.3424ZM146.65 29.0528V12.2406H151.739V29.0528H146.65Z" fill="#999999"/>
<path d="M166.18 23.7802C166.854 23.0571 167.191 22.0126 167.191 20.6467C167.191 19.2808 166.844 18.2464 166.15 17.5434C165.455 16.8203 164.632 16.4587 163.68 16.4587C162.728 16.4587 161.904 16.8203 161.21 17.5434C160.536 18.2464 160.198 19.2808 160.198 20.6467C160.198 22.0126 160.546 23.0571 161.24 23.7802C161.954 24.5033 162.787 24.8648 163.739 24.8648C164.692 24.8648 165.505 24.5033 166.18 23.7802ZM157.52 26.8835C155.854 25.2967 155.021 23.2077 155.021 20.6166C155.021 18.0254 155.854 15.9566 157.52 14.4099C159.187 12.8432 161.25 12.0598 163.71 12.0598C166.17 12.0598 168.223 12.8432 169.869 14.4099C171.536 15.9566 172.369 18.0254 172.369 20.6166C172.369 23.2077 171.546 25.2967 169.899 26.8835C168.253 28.4703 166.199 29.2637 163.739 29.2637C161.28 29.2637 159.206 28.4703 157.52 26.8835Z" fill="#999999"/>
<path d="M68.7138 12.2406H73.5047L68.5352 29.0528H63.0599L60.7389 19.1101L58.3881 29.0528H52.9128L47.9434 12.2406H53.0318L55.6207 24.0513L58.1798 12.2406H63.5658L66.1249 24.0513L68.7138 12.2406Z" stroke="#E3E0DC"/>
<path d="M85.9494 23.7199C86.6834 22.9968 87.0504 21.9724 87.0504 20.6467C87.0504 19.321 86.6834 18.3067 85.9494 17.6036C85.2154 16.8805 84.3723 16.519 83.42 16.519C82.4678 16.519 81.6247 16.8805 80.8907 17.6036C80.1567 18.3267 79.7897 19.3511 79.7897 20.6768C79.7897 22.0025 80.1567 23.0269 80.8907 23.75C81.6247 24.4531 82.4678 24.8046 83.42 24.8046C84.3723 24.8046 85.2154 24.443 85.9494 23.7199ZM76.814 26.8534C75.346 25.2465 74.612 23.1876 74.612 20.6768C74.612 18.166 75.346 16.1072 76.814 14.5003C78.282 12.8733 80.0674 12.0598 82.1702 12.0598C84.2929 12.0598 85.9196 12.8532 87.0504 14.44V12.2406H92.1389V29.0528H87.0504V26.6123C85.8204 28.3799 84.1739 29.2637 82.1107 29.2637C80.0476 29.2637 78.282 28.4603 76.814 26.8534Z" stroke="#E3E0DC"/>
<path d="M94.4969 12.2406H99.9127L103.692 24.7443L107.471 12.2406H112.887L106.995 29.0528H100.389L94.4969 12.2406Z" stroke="#E3E0DC"/>
<path d="M122.289 29.2637C119.869 29.2637 117.885 28.4804 116.338 26.9136C114.79 25.3268 114.017 23.2278 114.017 20.6166C114.017 18.0054 114.781 15.9264 116.308 14.3798C117.855 12.8331 119.849 12.0598 122.289 12.0598C124.729 12.0598 126.753 12.8231 128.36 14.3496C129.967 15.8762 130.77 17.9953 130.77 20.707C130.77 21.2895 130.73 21.8318 130.651 22.334H119.224C119.323 23.0772 119.651 23.6898 120.206 24.1719C120.762 24.6338 121.357 24.8648 121.992 24.8648C122.646 24.8648 123.132 24.8046 123.45 24.6841C123.767 24.5435 123.995 24.4129 124.134 24.2924C124.293 24.1518 124.491 23.9308 124.729 23.6295H130.234C129.758 25.3168 128.806 26.6826 127.378 27.7271C125.949 28.7515 124.253 29.2637 122.289 29.2637ZM125.473 19.1101C125.394 18.3267 125.057 17.694 124.462 17.2119C123.866 16.7098 123.162 16.4587 122.349 16.4587C121.535 16.4587 120.851 16.7098 120.296 17.2119C119.74 17.694 119.393 18.3267 119.254 19.1101H125.473Z" stroke="#E3E0DC"/>
<path d="M139.127 12.2406V15.374C140.317 13.1646 141.904 12.0598 143.888 12.0598V17.3023H142.638C141.468 17.3023 140.585 17.5835 139.99 18.146C139.415 18.7084 139.127 19.6926 139.127 21.0986V29.0528H134.038V12.2406H139.127Z" stroke="#E3E0DC"/>
<path d="M151.292 10.3424C150.717 10.9249 150.013 11.2162 149.18 11.2162C148.346 11.2162 147.642 10.9249 147.067 10.3424C146.492 9.75992 146.204 9.04686 146.204 8.20323C146.204 7.33952 146.492 6.61641 147.067 6.03391C147.642 5.45141 148.346 5.16016 149.18 5.16016C150.013 5.16016 150.717 5.45141 151.292 6.03391C151.868 6.61641 152.155 7.33952 152.155 8.20323C152.155 9.04686 151.868 9.75992 151.292 10.3424ZM146.65 29.0528V12.2406H151.739V29.0528H146.65Z" stroke="#E3E0DC"/>
<path d="M166.18 23.7802C166.854 23.0571 167.191 22.0126 167.191 20.6467C167.191 19.2808 166.844 18.2464 166.15 17.5434C165.455 16.8203 164.632 16.4587 163.68 16.4587C162.728 16.4587 161.904 16.8203 161.21 17.5434C160.536 18.2464 160.198 19.2808 160.198 20.6467C160.198 22.0126 160.546 23.0571 161.24 23.7802C161.954 24.5033 162.787 24.8648 163.739 24.8648C164.692 24.8648 165.505 24.5033 166.18 23.7802ZM157.52 26.8835C155.854 25.2967 155.021 23.2077 155.021 20.6166C155.021 18.0254 155.854 15.9566 157.52 14.4099C159.187 12.8432 161.25 12.0598 163.71 12.0598C166.17 12.0598 168.223 12.8432 169.869 14.4099C171.536 15.9566 172.369 18.0254 172.369 20.6166C172.369 23.2077 171.546 25.2967 169.899 26.8835C168.253 28.4703 166.199 29.2637 163.739 29.2637C161.28 29.2637 159.206 28.4703 157.52 26.8835Z" stroke="#E3E0DC"/>
</svg>
