<svg width="163" height="33" viewBox="0 0 163 33" fill="none" xmlns="http://www.w3.org/2000/svg">
<path d="M20.4814 12.8553C21.0959 12.8752 21.6915 13.0777 22.1934 13.4393C22.6954 13.8012 23.0819 14.3066 23.3027 14.8915C23.5234 15.476 23.5685 16.1137 23.4326 16.7245C22.9951 18.6782 23.3387 20.7288 24.3896 22.4276C25.4409 24.1267 27.1156 25.3378 29.0479 25.7928L29.0537 25.7938C29.4591 25.8835 29.8436 26.0549 30.1836 26.2968C30.481 26.5084 30.7398 26.7707 30.9482 27.0721L31.0342 27.204C31.2972 27.6447 31.4504 28.1441 31.4805 28.6591C31.5106 29.1765 31.4153 29.6936 31.2031 30.1649C30.9909 30.636 30.6687 31.0471 30.2646 31.3622C29.8604 31.6772 29.3865 31.8877 28.8848 31.9745C28.3831 32.0613 27.8675 32.0222 27.3838 31.8612C26.9003 31.7002 26.4624 31.4219 26.1084 31.0497C25.7542 30.6772 25.4948 30.2216 25.3535 29.7235C25.2123 29.2255 25.1935 28.6995 25.2988 28.1923L25.2979 28.1913C25.5157 27.2217 25.5446 26.2185 25.3799 25.2382C25.2147 24.2547 24.8593 23.3134 24.334 22.4686C23.8086 21.6238 23.1234 20.8912 22.3174 20.3143C21.5138 19.7392 20.6058 19.3298 19.6455 19.1093C19.0478 18.9622 18.5044 18.6396 18.0859 18.1805C17.6674 17.7214 17.3915 17.1459 17.2939 16.5272C17.1964 15.9087 17.2823 15.2752 17.5391 14.7059C17.796 14.1366 18.2128 13.6579 18.7363 13.329C19.2598 13.0002 19.8669 12.8356 20.4814 12.8553Z" fill="#999999" stroke="#E3E0DC"/>
<path d="M17.5859 2.99823C18.1982 2.9362 18.815 3.05939 19.3594 3.35175C19.904 3.64426 20.3524 4.09367 20.6465 4.64471C20.9406 5.19567 21.0677 5.82296 21.0107 6.44745C20.9538 7.07191 20.7155 7.6649 20.3271 8.15155C19.9873 8.57735 19.5457 8.90548 19.0469 9.10565L18.832 9.1828C17.8881 9.47698 17.0108 9.95627 16.251 10.5939C15.4913 11.2315 14.8641 12.0148 14.4043 12.8976C13.9445 13.7806 13.6615 14.7469 13.5713 15.7404C13.4811 16.7339 13.585 17.7359 13.8779 18.6887V18.6896C14.0649 19.2939 14.0694 19.9412 13.8906 20.548C13.7118 21.1549 13.3579 21.6933 12.876 22.0939C12.3943 22.4942 11.8063 22.7389 11.1875 22.798C10.6638 22.848 10.1379 22.7612 9.65723 22.551V22.5353L9.3877 22.3957C8.83128 22.1064 8.3724 21.6536 8.07129 21.0959C7.77016 20.538 7.64087 19.9005 7.70117 19.2668C7.76151 18.6332 8.00786 18.033 8.4082 17.5441C8.80845 17.0554 9.34406 16.7009 9.94434 16.5246L9.95312 16.5217C11.7293 15.9642 13.2316 14.7605 14.1758 13.1525L14.3574 12.8254C15.2837 11.054 15.4792 8.98388 14.9014 7.06757H14.9004C14.7229 6.46773 14.725 5.82771 14.9053 5.2287C15.0858 4.62914 15.4372 4.09784 15.9141 3.70135C16.3911 3.30485 16.9734 3.06033 17.5859 2.99823Z" fill="#999999" stroke="#E3E0DC"/>
<path d="M18.5078 22.7628C19.0163 22.7503 19.5207 22.8639 19.9766 23.0939C20.4334 23.3244 20.8282 23.6655 21.126 24.087C21.4237 24.5087 21.6156 24.9981 21.6836 25.5128C21.7516 26.0277 21.6936 26.5514 21.5156 27.0382C21.3376 27.5249 21.0446 27.9592 20.6631 28.3038C20.2817 28.6483 19.8233 28.8926 19.3281 29.0157C18.8328 29.1388 18.3149 29.1372 17.8203 29.0109C17.3279 28.8851 16.8725 28.6398 16.4941 28.295C15.7708 27.6151 14.9214 27.0861 13.9951 26.7384C13.0688 26.3908 12.0832 26.2313 11.0957 26.2697C10.1083 26.3081 9.13826 26.5436 8.24121 26.962C7.34724 27.3791 6.54321 27.9699 5.875 28.7003C5.52036 29.0724 5.08186 29.3505 4.59766 29.5109C4.11342 29.6711 3.59755 29.709 3.0957 29.6212C2.59375 29.5333 2.11958 29.3223 1.71582 29.006C1.31219 28.6897 0.990434 28.2778 0.779297 27.8058C0.568175 27.3337 0.474159 26.8158 0.505859 26.298C0.537662 25.7801 0.694787 25.2779 0.961914 24.8361C1.22898 24.3944 1.59813 24.0258 2.03711 23.7628C2.47607 23.4998 2.9718 23.3496 3.48047 23.3253L3.47949 23.3243C3.89155 23.3085 4.30287 23.3765 4.68945 23.5226C5.07728 23.6692 5.43281 23.8934 5.73535 24.1808L5.73828 24.1827C7.19191 25.5448 9.12074 26.27 11.1025 26.1974C13.0841 26.1247 14.9554 25.2604 16.3076 23.796L16.3115 23.7911C16.5923 23.4799 16.9315 23.2293 17.3086 23.0529C17.6855 22.8765 18.0934 22.7777 18.5078 22.7628Z" fill="#999999" stroke="#E3E0DC"/>
<mask id="path-4-outside-1_2045_8301" maskUnits="userSpaceOnUse" x="40.8838" y="0" width="122" height="29" fill="black">
<rect fill="white" x="40.8838" width="122" height="29"/>
<path d="M56.612 27.178C58.5598 27.178 59.7738 26.4621 60.2541 25.0303C60.4142 24.49 60.5342 23.8011 60.6143 22.9636L59.5737 22.9231C59.4136 24.7872 58.9467 25.7327 58.1729 25.7597C57.5859 25.7057 57.2924 25.0303 57.2924 23.7336V15.2642C57.2924 11.8873 55.7449 9.80706 52.6498 9.02361C51.8494 8.8345 50.9822 8.73995 50.0484 8.73995C46.4197 8.73995 44.1384 9.5369 43.2045 11.1308C42.9644 11.5361 42.8443 11.9683 42.8443 12.4276C42.8443 13.4812 43.3379 14.1431 44.3252 14.4132C44.5653 14.4943 44.8188 14.5348 45.0856 14.5348C46.2329 14.5348 47.0067 13.9675 47.4069 12.8328C47.4602 12.6707 47.5403 12.4005 47.647 12.0223C47.9405 10.9417 48.3141 10.2663 48.7676 9.99617C49.0611 9.86109 49.3947 9.79355 49.7682 9.79355C51.0222 9.79355 51.7827 10.5635 52.0495 12.1034C52.1562 12.6707 52.2096 13.3461 52.2096 14.1295V16.7636C45.3524 16.8986 41.9105 18.7357 41.8838 22.2747C41.8838 24.6791 42.9244 26.219 45.0055 26.8944C45.6192 27.0835 46.2996 27.178 47.0467 27.178C49.3146 27.178 50.9822 26.3135 52.0495 24.5845C52.2629 24.2333 52.4364 23.8686 52.5698 23.4904C53.1301 25.8138 54.4775 27.043 56.612 27.178ZM49.1278 25.4355C47.7938 25.3815 47.1134 24.1793 47.0867 21.829C47.0867 20.0459 47.8071 18.8843 49.2479 18.344C50.0217 18.1008 51.0089 17.9522 52.2096 17.8982V21.829C51.7026 23.7201 50.8888 24.8817 49.7682 25.314C49.5281 25.395 49.3146 25.4355 49.1278 25.4355Z"/>
<path d="M71.9806 25.7192H69.019V16.9662C69.2057 14.1295 69.8861 12.4005 71.0601 11.7792C71.2469 11.6981 71.4203 11.6576 71.5804 11.6576C71.8739 11.6576 72.1941 11.9683 72.5409 12.5897C73.0212 13.4542 73.5415 13.9945 74.1018 14.2106C74.3686 14.2916 74.6621 14.3322 74.9823 14.3322C76.0496 14.3322 76.81 13.8189 77.2636 12.7923C77.4237 12.4411 77.5037 12.0764 77.5037 11.6981C77.5037 10.3474 76.85 9.49638 75.5426 9.14518C75.2224 9.06413 74.8889 9.02361 74.542 9.02361C72.8878 9.02361 71.4336 9.68549 70.1796 11.0093C69.6193 11.6576 69.1924 12.36 68.8989 13.1165L68.6187 9.3478H61.6148V10.4014H63.9361V23.612C63.9361 24.8007 63.4692 25.4761 62.5353 25.6382C62.2685 25.6922 61.9617 25.7192 61.6148 25.7192V26.7728H72.9412C72.9412 26.1514 72.7677 25.8138 72.4209 25.7597C72.2875 25.7327 72.1407 25.7192 71.9806 25.7192Z"/>
<path d="M84.3876 17.9793C84.3876 14.1971 84.8411 11.7792 85.7483 10.7256C86.3086 10.1042 87.0957 9.79355 88.1096 9.79355C89.8173 9.79355 90.9112 10.6716 91.3915 12.4276C91.7117 13.5622 91.8717 15.3587 91.8717 17.8172C91.8717 21.7614 91.3648 24.2469 90.3509 25.2734C89.7639 25.8408 89.0035 26.1244 88.0696 26.1244C86.4154 26.1244 85.3481 25.2599 84.8678 23.5309C84.5476 22.3693 84.3876 20.5187 84.3876 17.9793ZM88.3097 8.73995C85.0279 8.73995 82.5065 9.8746 80.7455 12.1439C79.5182 13.7648 78.9045 15.6559 78.9045 17.8172C78.9045 20.8699 79.9451 23.2878 82.0262 25.0708C83.6805 26.4756 85.6549 27.178 87.9495 27.178C91.098 27.178 93.566 26.0299 95.3537 23.7336C96.6878 22.0046 97.3548 20.0054 97.3548 17.7361C97.3548 14.7104 96.3009 12.3465 94.193 10.6445C92.5655 9.37481 90.6044 8.73995 88.3097 8.73995Z"/>
<path d="M107.48 25.7192H106.76L106.8 15.2642C106.96 13.13 107.654 11.7387 108.881 11.0903C109.228 10.9012 109.575 10.8066 109.922 10.8066C110.909 10.8066 111.616 11.428 112.043 12.6707C112.23 13.265 112.323 13.9269 112.323 14.6563V23.612C112.323 24.7196 112.07 25.3815 111.563 25.5976C111.323 25.6787 110.989 25.7192 110.562 25.7192V26.7728H119.047C119.047 26.1514 118.874 25.8138 118.527 25.7597C118.367 25.7327 118.206 25.7192 118.046 25.7192H117.366V15.3452V15.0616C117.553 12.8193 118.273 11.428 119.527 10.8877C119.794 10.7796 120.061 10.7256 120.328 10.7256C121.475 10.7256 122.262 11.4145 122.689 12.7923C122.849 13.3596 122.929 13.981 122.929 14.6563V23.612C122.929 24.7196 122.676 25.3815 122.169 25.5976C121.929 25.6787 121.595 25.7192 121.168 25.7192V26.7728H130.293C130.293 26.1514 130.12 25.8138 129.773 25.7597C129.613 25.7327 129.453 25.7192 129.293 25.7192H127.972V15.1426C127.972 12.4951 127.105 10.6175 125.37 9.50989C124.57 8.99659 123.703 8.73995 122.769 8.73995C120.181 8.76696 118.246 10.0232 116.966 12.5086C116.325 10.5905 115.191 9.38832 113.564 8.90204C113.137 8.79398 112.71 8.73995 112.283 8.73995C109.722 8.76696 107.854 9.95565 106.68 12.306L106.48 9.3478H99.3559V10.4014H101.677V23.612C101.677 24.8547 101.104 25.5436 99.9563 25.6787C99.7695 25.7057 99.5694 25.7192 99.3559 25.7192V26.7728H108.441C108.441 26.1514 108.268 25.8138 107.921 25.7597C107.787 25.7327 107.641 25.7192 107.48 25.7192Z"/>
<path d="M140.779 25.7192H139.298V9.3478H131.894V10.4014H134.215V23.612C134.215 24.8007 133.748 25.4761 132.815 25.6382C132.548 25.6922 132.241 25.7192 131.894 25.7192V26.7728H141.74C141.74 26.1514 141.566 25.8138 141.219 25.7597C141.086 25.7327 140.939 25.7192 140.779 25.7192ZM139.658 4.03925C139.658 2.85056 139.138 1.97256 138.098 1.40523C137.644 1.13508 137.164 1 136.657 1C135.509 1 134.642 1.5268 134.055 2.58041C133.815 3.03967 133.695 3.52595 133.695 4.03925C133.695 5.22793 134.215 6.09243 135.256 6.63274C135.71 6.87588 136.177 6.99745 136.657 6.99745C137.831 6.99745 138.698 6.49766 139.258 5.49808C139.525 5.03882 139.658 4.55254 139.658 4.03925Z"/>
<path d="M142.74 26.7728H148.784V25.7192H145.982L150.785 19.6407L154.787 25.7192H152.586V26.7728H161.831C161.831 26.1514 161.617 25.8138 161.19 25.7597C161.084 25.7327 160.964 25.7192 160.83 25.7192H160.03L154.187 16.8041L158.149 11.5766C158.682 10.8472 159.363 10.4419 160.19 10.3609C160.59 10.3068 160.83 10.1448 160.91 9.8746C160.937 9.71251 160.95 9.5369 160.95 9.3478H155.027V10.4014H157.629L153.506 15.791L149.984 10.4014H152.185V9.3478H142.9V10.4014H144.741L150.184 18.6681L145.462 24.544C144.901 25.2194 144.221 25.6246 143.421 25.7597C143.047 25.7867 142.834 25.9488 142.78 26.246C142.754 26.4081 142.74 26.5837 142.74 26.7728Z"/>
</mask>
<path d="M56.612 27.178C58.5598 27.178 59.7738 26.4621 60.2541 25.0303C60.4142 24.49 60.5342 23.8011 60.6143 22.9636L59.5737 22.9231C59.4136 24.7872 58.9467 25.7327 58.1729 25.7597C57.5859 25.7057 57.2924 25.0303 57.2924 23.7336V15.2642C57.2924 11.8873 55.7449 9.80706 52.6498 9.02361C51.8494 8.8345 50.9822 8.73995 50.0484 8.73995C46.4197 8.73995 44.1384 9.5369 43.2045 11.1308C42.9644 11.5361 42.8443 11.9683 42.8443 12.4276C42.8443 13.4812 43.3379 14.1431 44.3252 14.4132C44.5653 14.4943 44.8188 14.5348 45.0856 14.5348C46.2329 14.5348 47.0067 13.9675 47.4069 12.8328C47.4602 12.6707 47.5403 12.4005 47.647 12.0223C47.9405 10.9417 48.3141 10.2663 48.7676 9.99617C49.0611 9.86109 49.3947 9.79355 49.7682 9.79355C51.0222 9.79355 51.7827 10.5635 52.0495 12.1034C52.1562 12.6707 52.2096 13.3461 52.2096 14.1295V16.7636C45.3524 16.8986 41.9105 18.7357 41.8838 22.2747C41.8838 24.6791 42.9244 26.219 45.0055 26.8944C45.6192 27.0835 46.2996 27.178 47.0467 27.178C49.3146 27.178 50.9822 26.3135 52.0495 24.5845C52.2629 24.2333 52.4364 23.8686 52.5698 23.4904C53.1301 25.8138 54.4775 27.043 56.612 27.178ZM49.1278 25.4355C47.7938 25.3815 47.1134 24.1793 47.0867 21.829C47.0867 20.0459 47.8071 18.8843 49.2479 18.344C50.0217 18.1008 51.0089 17.9522 52.2096 17.8982V21.829C51.7026 23.7201 50.8888 24.8817 49.7682 25.314C49.5281 25.395 49.3146 25.4355 49.1278 25.4355Z" fill="#999999"/>
<path d="M71.9806 25.7192H69.019V16.9662C69.2057 14.1295 69.8861 12.4005 71.0601 11.7792C71.2469 11.6981 71.4203 11.6576 71.5804 11.6576C71.8739 11.6576 72.1941 11.9683 72.5409 12.5897C73.0212 13.4542 73.5415 13.9945 74.1018 14.2106C74.3686 14.2916 74.6621 14.3322 74.9823 14.3322C76.0496 14.3322 76.81 13.8189 77.2636 12.7923C77.4237 12.4411 77.5037 12.0764 77.5037 11.6981C77.5037 10.3474 76.85 9.49638 75.5426 9.14518C75.2224 9.06413 74.8889 9.02361 74.542 9.02361C72.8878 9.02361 71.4336 9.68549 70.1796 11.0093C69.6193 11.6576 69.1924 12.36 68.8989 13.1165L68.6187 9.3478H61.6148V10.4014H63.9361V23.612C63.9361 24.8007 63.4692 25.4761 62.5353 25.6382C62.2685 25.6922 61.9617 25.7192 61.6148 25.7192V26.7728H72.9412C72.9412 26.1514 72.7677 25.8138 72.4209 25.7597C72.2875 25.7327 72.1407 25.7192 71.9806 25.7192Z" fill="#999999"/>
<path d="M84.3876 17.9793C84.3876 14.1971 84.8411 11.7792 85.7483 10.7256C86.3086 10.1042 87.0957 9.79355 88.1096 9.79355C89.8173 9.79355 90.9112 10.6716 91.3915 12.4276C91.7117 13.5622 91.8717 15.3587 91.8717 17.8172C91.8717 21.7614 91.3648 24.2469 90.3509 25.2734C89.7639 25.8408 89.0035 26.1244 88.0696 26.1244C86.4154 26.1244 85.3481 25.2599 84.8678 23.5309C84.5476 22.3693 84.3876 20.5187 84.3876 17.9793ZM88.3097 8.73995C85.0279 8.73995 82.5065 9.8746 80.7455 12.1439C79.5182 13.7648 78.9045 15.6559 78.9045 17.8172C78.9045 20.8699 79.9451 23.2878 82.0262 25.0708C83.6805 26.4756 85.6549 27.178 87.9495 27.178C91.098 27.178 93.566 26.0299 95.3537 23.7336C96.6878 22.0046 97.3548 20.0054 97.3548 17.7361C97.3548 14.7104 96.3009 12.3465 94.193 10.6445C92.5655 9.37481 90.6044 8.73995 88.3097 8.73995Z" fill="#999999"/>
<path d="M107.48 25.7192H106.76L106.8 15.2642C106.96 13.13 107.654 11.7387 108.881 11.0903C109.228 10.9012 109.575 10.8066 109.922 10.8066C110.909 10.8066 111.616 11.428 112.043 12.6707C112.23 13.265 112.323 13.9269 112.323 14.6563V23.612C112.323 24.7196 112.07 25.3815 111.563 25.5976C111.323 25.6787 110.989 25.7192 110.562 25.7192V26.7728H119.047C119.047 26.1514 118.874 25.8138 118.527 25.7597C118.367 25.7327 118.206 25.7192 118.046 25.7192H117.366V15.3452V15.0616C117.553 12.8193 118.273 11.428 119.527 10.8877C119.794 10.7796 120.061 10.7256 120.328 10.7256C121.475 10.7256 122.262 11.4145 122.689 12.7923C122.849 13.3596 122.929 13.981 122.929 14.6563V23.612C122.929 24.7196 122.676 25.3815 122.169 25.5976C121.929 25.6787 121.595 25.7192 121.168 25.7192V26.7728H130.293C130.293 26.1514 130.12 25.8138 129.773 25.7597C129.613 25.7327 129.453 25.7192 129.293 25.7192H127.972V15.1426C127.972 12.4951 127.105 10.6175 125.37 9.50989C124.57 8.99659 123.703 8.73995 122.769 8.73995C120.181 8.76696 118.246 10.0232 116.966 12.5086C116.325 10.5905 115.191 9.38832 113.564 8.90204C113.137 8.79398 112.71 8.73995 112.283 8.73995C109.722 8.76696 107.854 9.95565 106.68 12.306L106.48 9.3478H99.3559V10.4014H101.677V23.612C101.677 24.8547 101.104 25.5436 99.9563 25.6787C99.7695 25.7057 99.5694 25.7192 99.3559 25.7192V26.7728H108.441C108.441 26.1514 108.268 25.8138 107.921 25.7597C107.787 25.7327 107.641 25.7192 107.48 25.7192Z" fill="#999999"/>
<path d="M140.779 25.7192H139.298V9.3478H131.894V10.4014H134.215V23.612C134.215 24.8007 133.748 25.4761 132.815 25.6382C132.548 25.6922 132.241 25.7192 131.894 25.7192V26.7728H141.74C141.74 26.1514 141.566 25.8138 141.219 25.7597C141.086 25.7327 140.939 25.7192 140.779 25.7192ZM139.658 4.03925C139.658 2.85056 139.138 1.97256 138.098 1.40523C137.644 1.13508 137.164 1 136.657 1C135.509 1 134.642 1.5268 134.055 2.58041C133.815 3.03967 133.695 3.52595 133.695 4.03925C133.695 5.22793 134.215 6.09243 135.256 6.63274C135.71 6.87588 136.177 6.99745 136.657 6.99745C137.831 6.99745 138.698 6.49766 139.258 5.49808C139.525 5.03882 139.658 4.55254 139.658 4.03925Z" fill="#999999"/>
<path d="M142.74 26.7728H148.784V25.7192H145.982L150.785 19.6407L154.787 25.7192H152.586V26.7728H161.831C161.831 26.1514 161.617 25.8138 161.19 25.7597C161.084 25.7327 160.964 25.7192 160.83 25.7192H160.03L154.187 16.8041L158.149 11.5766C158.682 10.8472 159.363 10.4419 160.19 10.3609C160.59 10.3068 160.83 10.1448 160.91 9.8746C160.937 9.71251 160.95 9.5369 160.95 9.3478H155.027V10.4014H157.629L153.506 15.791L149.984 10.4014H152.185V9.3478H142.9V10.4014H144.741L150.184 18.6681L145.462 24.544C144.901 25.2194 144.221 25.6246 143.421 25.7597C143.047 25.7867 142.834 25.9488 142.78 26.246C142.754 26.4081 142.74 26.5837 142.74 26.7728Z" fill="#999999"/>
<path d="M56.612 27.178C58.5598 27.178 59.7738 26.4621 60.2541 25.0303C60.4142 24.49 60.5342 23.8011 60.6143 22.9636L59.5737 22.9231C59.4136 24.7872 58.9467 25.7327 58.1729 25.7597C57.5859 25.7057 57.2924 25.0303 57.2924 23.7336V15.2642C57.2924 11.8873 55.7449 9.80706 52.6498 9.02361C51.8494 8.8345 50.9822 8.73995 50.0484 8.73995C46.4197 8.73995 44.1384 9.5369 43.2045 11.1308C42.9644 11.5361 42.8443 11.9683 42.8443 12.4276C42.8443 13.4812 43.3379 14.1431 44.3252 14.4132C44.5653 14.4943 44.8188 14.5348 45.0856 14.5348C46.2329 14.5348 47.0067 13.9675 47.4069 12.8328C47.4602 12.6707 47.5403 12.4005 47.647 12.0223C47.9405 10.9417 48.3141 10.2663 48.7676 9.99617C49.0611 9.86109 49.3947 9.79355 49.7682 9.79355C51.0222 9.79355 51.7827 10.5635 52.0495 12.1034C52.1562 12.6707 52.2096 13.3461 52.2096 14.1295V16.7636C45.3524 16.8986 41.9105 18.7357 41.8838 22.2747C41.8838 24.6791 42.9244 26.219 45.0055 26.8944C45.6192 27.0835 46.2996 27.178 47.0467 27.178C49.3146 27.178 50.9822 26.3135 52.0495 24.5845C52.2629 24.2333 52.4364 23.8686 52.5698 23.4904C53.1301 25.8138 54.4775 27.043 56.612 27.178ZM49.1278 25.4355C47.7938 25.3815 47.1134 24.1793 47.0867 21.829C47.0867 20.0459 47.8071 18.8843 49.2479 18.344C50.0217 18.1008 51.0089 17.9522 52.2096 17.8982V21.829C51.7026 23.7201 50.8888 24.8817 49.7682 25.314C49.5281 25.395 49.3146 25.4355 49.1278 25.4355Z" stroke="#E3E0DC" stroke-width="2" mask="url(#path-4-outside-1_2045_8301)"/>
<path d="M71.9806 25.7192H69.019V16.9662C69.2057 14.1295 69.8861 12.4005 71.0601 11.7792C71.2469 11.6981 71.4203 11.6576 71.5804 11.6576C71.8739 11.6576 72.1941 11.9683 72.5409 12.5897C73.0212 13.4542 73.5415 13.9945 74.1018 14.2106C74.3686 14.2916 74.6621 14.3322 74.9823 14.3322C76.0496 14.3322 76.81 13.8189 77.2636 12.7923C77.4237 12.4411 77.5037 12.0764 77.5037 11.6981C77.5037 10.3474 76.85 9.49638 75.5426 9.14518C75.2224 9.06413 74.8889 9.02361 74.542 9.02361C72.8878 9.02361 71.4336 9.68549 70.1796 11.0093C69.6193 11.6576 69.1924 12.36 68.8989 13.1165L68.6187 9.3478H61.6148V10.4014H63.9361V23.612C63.9361 24.8007 63.4692 25.4761 62.5353 25.6382C62.2685 25.6922 61.9617 25.7192 61.6148 25.7192V26.7728H72.9412C72.9412 26.1514 72.7677 25.8138 72.4209 25.7597C72.2875 25.7327 72.1407 25.7192 71.9806 25.7192Z" stroke="#E3E0DC" stroke-width="2" mask="url(#path-4-outside-1_2045_8301)"/>
<path d="M84.3876 17.9793C84.3876 14.1971 84.8411 11.7792 85.7483 10.7256C86.3086 10.1042 87.0957 9.79355 88.1096 9.79355C89.8173 9.79355 90.9112 10.6716 91.3915 12.4276C91.7117 13.5622 91.8717 15.3587 91.8717 17.8172C91.8717 21.7614 91.3648 24.2469 90.3509 25.2734C89.7639 25.8408 89.0035 26.1244 88.0696 26.1244C86.4154 26.1244 85.3481 25.2599 84.8678 23.5309C84.5476 22.3693 84.3876 20.5187 84.3876 17.9793ZM88.3097 8.73995C85.0279 8.73995 82.5065 9.8746 80.7455 12.1439C79.5182 13.7648 78.9045 15.6559 78.9045 17.8172C78.9045 20.8699 79.9451 23.2878 82.0262 25.0708C83.6805 26.4756 85.6549 27.178 87.9495 27.178C91.098 27.178 93.566 26.0299 95.3537 23.7336C96.6878 22.0046 97.3548 20.0054 97.3548 17.7361C97.3548 14.7104 96.3009 12.3465 94.193 10.6445C92.5655 9.37481 90.6044 8.73995 88.3097 8.73995Z" stroke="#E3E0DC" stroke-width="2" mask="url(#path-4-outside-1_2045_8301)"/>
<path d="M107.48 25.7192H106.76L106.8 15.2642C106.96 13.13 107.654 11.7387 108.881 11.0903C109.228 10.9012 109.575 10.8066 109.922 10.8066C110.909 10.8066 111.616 11.428 112.043 12.6707C112.23 13.265 112.323 13.9269 112.323 14.6563V23.612C112.323 24.7196 112.07 25.3815 111.563 25.5976C111.323 25.6787 110.989 25.7192 110.562 25.7192V26.7728H119.047C119.047 26.1514 118.874 25.8138 118.527 25.7597C118.367 25.7327 118.206 25.7192 118.046 25.7192H117.366V15.3452V15.0616C117.553 12.8193 118.273 11.428 119.527 10.8877C119.794 10.7796 120.061 10.7256 120.328 10.7256C121.475 10.7256 122.262 11.4145 122.689 12.7923C122.849 13.3596 122.929 13.981 122.929 14.6563V23.612C122.929 24.7196 122.676 25.3815 122.169 25.5976C121.929 25.6787 121.595 25.7192 121.168 25.7192V26.7728H130.293C130.293 26.1514 130.12 25.8138 129.773 25.7597C129.613 25.7327 129.453 25.7192 129.293 25.7192H127.972V15.1426C127.972 12.4951 127.105 10.6175 125.37 9.50989C124.57 8.99659 123.703 8.73995 122.769 8.73995C120.181 8.76696 118.246 10.0232 116.966 12.5086C116.325 10.5905 115.191 9.38832 113.564 8.90204C113.137 8.79398 112.71 8.73995 112.283 8.73995C109.722 8.76696 107.854 9.95565 106.68 12.306L106.48 9.3478H99.3559V10.4014H101.677V23.612C101.677 24.8547 101.104 25.5436 99.9563 25.6787C99.7695 25.7057 99.5694 25.7192 99.3559 25.7192V26.7728H108.441C108.441 26.1514 108.268 25.8138 107.921 25.7597C107.787 25.7327 107.641 25.7192 107.48 25.7192Z" stroke="#E3E0DC" stroke-width="2" mask="url(#path-4-outside-1_2045_8301)"/>
<path d="M140.779 25.7192H139.298V9.3478H131.894V10.4014H134.215V23.612C134.215 24.8007 133.748 25.4761 132.815 25.6382C132.548 25.6922 132.241 25.7192 131.894 25.7192V26.7728H141.74C141.74 26.1514 141.566 25.8138 141.219 25.7597C141.086 25.7327 140.939 25.7192 140.779 25.7192ZM139.658 4.03925C139.658 2.85056 139.138 1.97256 138.098 1.40523C137.644 1.13508 137.164 1 136.657 1C135.509 1 134.642 1.5268 134.055 2.58041C133.815 3.03967 133.695 3.52595 133.695 4.03925C133.695 5.22793 134.215 6.09243 135.256 6.63274C135.71 6.87588 136.177 6.99745 136.657 6.99745C137.831 6.99745 138.698 6.49766 139.258 5.49808C139.525 5.03882 139.658 4.55254 139.658 4.03925Z" stroke="#E3E0DC" stroke-width="2" mask="url(#path-4-outside-1_2045_8301)"/>
<path d="M142.74 26.7728H148.784V25.7192H145.982L150.785 19.6407L154.787 25.7192H152.586V26.7728H161.831C161.831 26.1514 161.617 25.8138 161.19 25.7597C161.084 25.7327 160.964 25.7192 160.83 25.7192H160.03L154.187 16.8041L158.149 11.5766C158.682 10.8472 159.363 10.4419 160.19 10.3609C160.59 10.3068 160.83 10.1448 160.91 9.8746C160.937 9.71251 160.95 9.5369 160.95 9.3478H155.027V10.4014H157.629L153.506 15.791L149.984 10.4014H152.185V9.3478H142.9V10.4014H144.741L150.184 18.6681L145.462 24.544C144.901 25.2194 144.221 25.6246 143.421 25.7597C143.047 25.7867 142.834 25.9488 142.78 26.246C142.754 26.4081 142.74 26.5837 142.74 26.7728Z" stroke="#E3E0DC" stroke-width="2" mask="url(#path-4-outside-1_2045_8301)"/>
</svg>
