<svg width="186" height="33" viewBox="0 0 186 33" fill="none" xmlns="http://www.w3.org/2000/svg">
<path d="M171.241 18.3564C172.497 18.7541 173.663 19.4045 174.67 20.2695C175.551 21.0265 176.296 21.9345 176.869 22.9521L177.104 23.3945C177.521 24.2341 178.046 25.0136 178.665 25.7128V25.7138C179.852 27.0591 181.341 28.0741 182.991 28.6855C181.582 28.881 180.14 28.7656 178.766 28.3349C177.028 27.7897 175.471 26.7626 174.271 25.3661C173.071 23.9697 172.276 22.2591 171.973 20.4257H171.972C171.864 19.6281 171.526 18.8857 171.007 18.288L171.241 18.3564Z" fill="#999999" stroke="#E3E0DC"/>
<path d="M167.611 1.78809C168.481 2.91922 169.101 4.23244 169.42 5.6416C169.825 7.42922 169.729 9.29553 169.142 11.0312C168.554 12.7667 167.499 14.3037 166.094 15.4717C165.476 15.9591 165.018 16.6142 164.769 17.3525C164.749 17.2756 164.728 17.1985 164.711 17.1211L164.589 16.582L164.553 16.5938C164.364 15.4726 164.368 14.3261 164.567 13.2041C164.799 11.9008 165.287 10.6571 166.004 9.54688C166.519 8.7674 166.93 7.92256 167.226 7.03516L167.227 7.0332C167.785 5.33326 167.91 3.53201 167.611 1.78809Z" fill="#999999" stroke="#E3E0DC"/>
<path d="M159.533 23.0687C161.289 22.7135 163.106 22.8663 164.783 23.5092H164.784C165.513 23.8188 166.312 23.8941 167.076 23.7357C167.015 23.7977 166.954 23.8609 166.891 23.9213C165.939 24.8276 164.821 25.528 163.604 25.9818C162.386 26.4356 161.093 26.6337 159.8 26.5648H159.797C158.886 26.5208 157.974 26.5937 157.081 26.7816H157.079C155.362 27.1499 153.772 27.9461 152.439 29.0834C152.97 27.7432 153.779 26.5302 154.818 25.5355L154.819 25.5365C156.139 24.2792 157.772 23.4252 159.533 23.0687Z" fill="#999999" stroke="#E3E0DC"/>
<mask id="path-4-outside-1_2045_8308" maskUnits="userSpaceOnUse" x="0" y="1.30975" width="142" height="31" fill="black">
<rect fill="white" y="1.30975" width="142" height="31"/>
<path d="M1 30.7226H5.93433V18.5566C5.93433 17.209 6.29844 16.1285 7.02666 15.3148C7.75489 14.5012 8.70911 14.0944 9.88933 14.0944C11.0947 14.0944 12.0489 14.5012 12.752 15.3148C13.4802 16.103 13.8443 17.1836 13.8443 18.5566V30.7226H18.7787V18.5566C18.7787 17.209 19.1428 16.1285 19.871 15.3148C20.5992 14.5012 21.5534 14.0944 22.7337 14.0944C23.939 14.0944 24.8932 14.5012 25.5963 15.3148C26.3245 16.103 26.6887 17.1836 26.6887 18.5566V30.7226H31.623V17.3743C31.623 15.8233 31.284 14.4631 30.606 13.2935C29.9531 12.0985 29.0617 11.1705 27.9317 10.5094C26.8017 9.84838 25.5084 9.51785 24.052 9.51785C22.696 9.51785 21.4655 9.79753 20.3607 10.3569C19.2809 10.9162 18.3894 11.7553 17.6863 12.874C17.0837 11.857 16.2173 11.0434 15.0873 10.4332C13.9824 9.82295 12.7394 9.51785 11.3583 9.51785C10.0777 9.51785 8.93511 9.7721 7.93066 10.2806C6.92622 10.7891 6.16033 11.5519 5.633 12.5689V9.97551H1V30.7226Z"/>
<path d="M42.0125 31.1803C44.6743 31.1803 46.8087 30.2904 48.4158 28.5106V30.7226H53.0865V16.9166C53.0865 15.4674 52.7224 14.1834 51.9942 13.0647C51.266 11.946 50.2615 11.0815 48.9808 10.4713C47.7253 9.83567 46.2563 9.51785 44.5738 9.51785C42.5147 9.51785 40.6816 10.0136 39.0745 11.0052C37.4674 11.9968 36.3625 13.3062 35.7598 14.9335L39.7902 16.9166C40.1668 15.9759 40.757 15.2258 41.5605 14.6665C42.3641 14.0817 43.3057 13.7893 44.3855 13.7893C45.5155 13.7893 46.4195 14.0944 47.0975 14.7046C47.8006 15.2894 48.1522 16.0267 48.1522 16.9166V17.6031L42.0502 18.5947C39.6395 19.0015 37.8566 19.777 36.7015 20.9211C35.5464 22.0653 34.9688 23.5018 34.9688 25.2307C34.9688 27.0614 35.6092 28.5106 36.8898 29.5785C38.1705 30.6463 39.8781 31.1803 42.0125 31.1803ZM40.0915 25.0401C40.0915 23.5908 41.0583 22.6755 42.9918 22.2941L48.1522 21.4169V22.256C48.1522 23.6798 47.6625 24.8875 46.6832 25.8791C45.729 26.8707 44.4734 27.3665 42.9165 27.3665C42.0878 27.3665 41.4098 27.1631 40.8825 26.7563C40.3552 26.324 40.0915 25.752 40.0915 25.0401Z"/>
<path d="M57.6471 30.7226H62.5814V19.1668C62.5814 17.5904 63.0083 16.37 63.8621 15.5055C64.741 14.6156 65.871 14.1707 67.2521 14.1707H69.0224V9.74668H67.8171C66.5616 9.74668 65.4567 9.97551 64.5024 10.4332C63.5482 10.8908 62.8074 11.7171 62.2801 12.9121V9.97551H57.6471V30.7226Z"/>
<path d="M81.6284 30.9514C82.4571 30.9514 83.2732 30.8879 84.0767 30.7608V26.4512C83.5996 26.5274 83.1602 26.5656 82.7584 26.5656C81.5531 26.5656 80.6742 26.2859 80.1217 25.7265C79.5693 25.1672 79.2931 24.3663 79.2931 23.3238V14.4377H84.0014V9.97551H79.2931V5.24639H74.3587V6.84819C74.3587 7.8652 74.0825 8.64068 73.5301 9.17461C72.9776 9.70854 72.1992 9.97551 71.1947 9.97551H70.8181V14.4377H74.3587V23.5908C74.3587 25.9045 74.9865 27.7097 76.2421 29.0064C77.5227 30.3031 79.3182 30.9514 81.6284 30.9514Z"/>
<path d="M87.8466 7.64909H92.781V2.30975H87.8466V7.64909ZM87.8466 30.7226H92.781V9.97551H87.8466V30.7226Z"/>
<path d="M97.3369 30.7226H102.271V18.5566C102.271 17.209 102.648 16.1285 103.401 15.3148C104.18 14.5012 105.184 14.0944 106.415 14.0944C107.645 14.0944 108.637 14.5012 109.39 15.3148C110.169 16.103 110.558 17.1836 110.558 18.5566V30.7226H115.492V17.3743C115.492 15.8233 115.166 14.4631 114.513 13.2935C113.86 12.0985 112.943 11.1705 111.763 10.5094C110.608 9.84838 109.277 9.51785 107.771 9.51785C106.49 9.51785 105.335 9.7721 104.305 10.2806C103.301 10.7891 102.522 11.5392 101.97 12.5308V9.97551H97.3369V30.7226Z"/>
<path d="M129.684 31.1803C131.668 31.1803 133.476 30.7226 135.108 29.8073C136.74 28.8666 138.046 27.5826 139.025 25.9554C140.005 24.3027 140.494 22.4339 140.494 20.3491C140.494 18.2642 140.005 16.4081 139.025 14.7809C138.071 13.1537 136.778 11.8697 135.146 10.929C133.513 9.98822 131.693 9.51785 129.684 9.51785C127.65 9.51785 125.817 9.98822 124.185 10.929C122.552 11.8697 121.247 13.1537 120.267 14.7809C119.313 16.4081 118.836 18.2642 118.836 20.3491C118.836 22.4339 119.313 24.29 120.267 25.9172C121.247 27.5444 122.552 28.8284 124.185 29.7692C125.842 30.7099 127.675 31.1803 129.684 31.1803ZM129.684 26.6037C128.579 26.6037 127.587 26.3367 126.708 25.8028C125.855 25.2689 125.177 24.5315 124.674 23.5908C124.197 22.6246 123.959 21.5441 123.959 20.3491C123.959 19.1541 124.197 18.0862 124.674 17.1455C125.177 16.2047 125.855 15.4674 126.708 14.9335C127.587 14.3741 128.579 14.0944 129.684 14.0944C130.789 14.0944 131.756 14.3741 132.584 14.9335C133.438 15.4674 134.104 16.2047 134.581 17.1455C135.083 18.0862 135.334 19.1541 135.334 20.3491C135.334 21.5441 135.083 22.6246 134.581 23.5908C134.104 24.5315 133.438 25.2689 132.584 25.8028C131.756 26.3367 130.789 26.6037 129.684 26.6037Z"/>
</mask>
<path d="M1 30.7226H5.93433V18.5566C5.93433 17.209 6.29844 16.1285 7.02666 15.3148C7.75489 14.5012 8.70911 14.0944 9.88933 14.0944C11.0947 14.0944 12.0489 14.5012 12.752 15.3148C13.4802 16.103 13.8443 17.1836 13.8443 18.5566V30.7226H18.7787V18.5566C18.7787 17.209 19.1428 16.1285 19.871 15.3148C20.5992 14.5012 21.5534 14.0944 22.7337 14.0944C23.939 14.0944 24.8932 14.5012 25.5963 15.3148C26.3245 16.103 26.6887 17.1836 26.6887 18.5566V30.7226H31.623V17.3743C31.623 15.8233 31.284 14.4631 30.606 13.2935C29.9531 12.0985 29.0617 11.1705 27.9317 10.5094C26.8017 9.84838 25.5084 9.51785 24.052 9.51785C22.696 9.51785 21.4655 9.79753 20.3607 10.3569C19.2809 10.9162 18.3894 11.7553 17.6863 12.874C17.0837 11.857 16.2173 11.0434 15.0873 10.4332C13.9824 9.82295 12.7394 9.51785 11.3583 9.51785C10.0777 9.51785 8.93511 9.7721 7.93066 10.2806C6.92622 10.7891 6.16033 11.5519 5.633 12.5689V9.97551H1V30.7226Z" fill="#999999"/>
<path d="M42.0125 31.1803C44.6743 31.1803 46.8087 30.2904 48.4158 28.5106V30.7226H53.0865V16.9166C53.0865 15.4674 52.7224 14.1834 51.9942 13.0647C51.266 11.946 50.2615 11.0815 48.9808 10.4713C47.7253 9.83567 46.2563 9.51785 44.5738 9.51785C42.5147 9.51785 40.6816 10.0136 39.0745 11.0052C37.4674 11.9968 36.3625 13.3062 35.7598 14.9335L39.7902 16.9166C40.1668 15.9759 40.757 15.2258 41.5605 14.6665C42.3641 14.0817 43.3057 13.7893 44.3855 13.7893C45.5155 13.7893 46.4195 14.0944 47.0975 14.7046C47.8006 15.2894 48.1522 16.0267 48.1522 16.9166V17.6031L42.0502 18.5947C39.6395 19.0015 37.8566 19.777 36.7015 20.9211C35.5464 22.0653 34.9688 23.5018 34.9688 25.2307C34.9688 27.0614 35.6092 28.5106 36.8898 29.5785C38.1705 30.6463 39.8781 31.1803 42.0125 31.1803ZM40.0915 25.0401C40.0915 23.5908 41.0583 22.6755 42.9918 22.2941L48.1522 21.4169V22.256C48.1522 23.6798 47.6625 24.8875 46.6832 25.8791C45.729 26.8707 44.4734 27.3665 42.9165 27.3665C42.0878 27.3665 41.4098 27.1631 40.8825 26.7563C40.3552 26.324 40.0915 25.752 40.0915 25.0401Z" fill="#999999"/>
<path d="M57.6471 30.7226H62.5814V19.1668C62.5814 17.5904 63.0083 16.37 63.8621 15.5055C64.741 14.6156 65.871 14.1707 67.2521 14.1707H69.0224V9.74668H67.8171C66.5616 9.74668 65.4567 9.97551 64.5024 10.4332C63.5482 10.8908 62.8074 11.7171 62.2801 12.9121V9.97551H57.6471V30.7226Z" fill="#999999"/>
<path d="M81.6284 30.9514C82.4571 30.9514 83.2732 30.8879 84.0767 30.7608V26.4512C83.5996 26.5274 83.1602 26.5656 82.7584 26.5656C81.5531 26.5656 80.6742 26.2859 80.1217 25.7265C79.5693 25.1672 79.2931 24.3663 79.2931 23.3238V14.4377H84.0014V9.97551H79.2931V5.24639H74.3587V6.84819C74.3587 7.8652 74.0825 8.64068 73.5301 9.17461C72.9776 9.70854 72.1992 9.97551 71.1947 9.97551H70.8181V14.4377H74.3587V23.5908C74.3587 25.9045 74.9865 27.7097 76.2421 29.0064C77.5227 30.3031 79.3182 30.9514 81.6284 30.9514Z" fill="#999999"/>
<path d="M87.8466 7.64909H92.781V2.30975H87.8466V7.64909ZM87.8466 30.7226H92.781V9.97551H87.8466V30.7226Z" fill="#999999"/>
<path d="M97.3369 30.7226H102.271V18.5566C102.271 17.209 102.648 16.1285 103.401 15.3148C104.18 14.5012 105.184 14.0944 106.415 14.0944C107.645 14.0944 108.637 14.5012 109.39 15.3148C110.169 16.103 110.558 17.1836 110.558 18.5566V30.7226H115.492V17.3743C115.492 15.8233 115.166 14.4631 114.513 13.2935C113.86 12.0985 112.943 11.1705 111.763 10.5094C110.608 9.84838 109.277 9.51785 107.771 9.51785C106.49 9.51785 105.335 9.7721 104.305 10.2806C103.301 10.7891 102.522 11.5392 101.97 12.5308V9.97551H97.3369V30.7226Z" fill="#999999"/>
<path d="M129.684 31.1803C131.668 31.1803 133.476 30.7226 135.108 29.8073C136.74 28.8666 138.046 27.5826 139.025 25.9554C140.005 24.3027 140.494 22.4339 140.494 20.3491C140.494 18.2642 140.005 16.4081 139.025 14.7809C138.071 13.1537 136.778 11.8697 135.146 10.929C133.513 9.98822 131.693 9.51785 129.684 9.51785C127.65 9.51785 125.817 9.98822 124.185 10.929C122.552 11.8697 121.247 13.1537 120.267 14.7809C119.313 16.4081 118.836 18.2642 118.836 20.3491C118.836 22.4339 119.313 24.29 120.267 25.9172C121.247 27.5444 122.552 28.8284 124.185 29.7692C125.842 30.7099 127.675 31.1803 129.684 31.1803ZM129.684 26.6037C128.579 26.6037 127.587 26.3367 126.708 25.8028C125.855 25.2689 125.177 24.5315 124.674 23.5908C124.197 22.6246 123.959 21.5441 123.959 20.3491C123.959 19.1541 124.197 18.0862 124.674 17.1455C125.177 16.2047 125.855 15.4674 126.708 14.9335C127.587 14.3741 128.579 14.0944 129.684 14.0944C130.789 14.0944 131.756 14.3741 132.584 14.9335C133.438 15.4674 134.104 16.2047 134.581 17.1455C135.083 18.0862 135.334 19.1541 135.334 20.3491C135.334 21.5441 135.083 22.6246 134.581 23.5908C134.104 24.5315 133.438 25.2689 132.584 25.8028C131.756 26.3367 130.789 26.6037 129.684 26.6037Z" fill="#999999"/>
<path d="M1 30.7226H5.93433V18.5566C5.93433 17.209 6.29844 16.1285 7.02666 15.3148C7.75489 14.5012 8.70911 14.0944 9.88933 14.0944C11.0947 14.0944 12.0489 14.5012 12.752 15.3148C13.4802 16.103 13.8443 17.1836 13.8443 18.5566V30.7226H18.7787V18.5566C18.7787 17.209 19.1428 16.1285 19.871 15.3148C20.5992 14.5012 21.5534 14.0944 22.7337 14.0944C23.939 14.0944 24.8932 14.5012 25.5963 15.3148C26.3245 16.103 26.6887 17.1836 26.6887 18.5566V30.7226H31.623V17.3743C31.623 15.8233 31.284 14.4631 30.606 13.2935C29.9531 12.0985 29.0617 11.1705 27.9317 10.5094C26.8017 9.84838 25.5084 9.51785 24.052 9.51785C22.696 9.51785 21.4655 9.79753 20.3607 10.3569C19.2809 10.9162 18.3894 11.7553 17.6863 12.874C17.0837 11.857 16.2173 11.0434 15.0873 10.4332C13.9824 9.82295 12.7394 9.51785 11.3583 9.51785C10.0777 9.51785 8.93511 9.7721 7.93066 10.2806C6.92622 10.7891 6.16033 11.5519 5.633 12.5689V9.97551H1V30.7226Z" stroke="#E3E0DC" stroke-width="2" mask="url(#path-4-outside-1_2045_8308)"/>
<path d="M42.0125 31.1803C44.6743 31.1803 46.8087 30.2904 48.4158 28.5106V30.7226H53.0865V16.9166C53.0865 15.4674 52.7224 14.1834 51.9942 13.0647C51.266 11.946 50.2615 11.0815 48.9808 10.4713C47.7253 9.83567 46.2563 9.51785 44.5738 9.51785C42.5147 9.51785 40.6816 10.0136 39.0745 11.0052C37.4674 11.9968 36.3625 13.3062 35.7598 14.9335L39.7902 16.9166C40.1668 15.9759 40.757 15.2258 41.5605 14.6665C42.3641 14.0817 43.3057 13.7893 44.3855 13.7893C45.5155 13.7893 46.4195 14.0944 47.0975 14.7046C47.8006 15.2894 48.1522 16.0267 48.1522 16.9166V17.6031L42.0502 18.5947C39.6395 19.0015 37.8566 19.777 36.7015 20.9211C35.5464 22.0653 34.9688 23.5018 34.9688 25.2307C34.9688 27.0614 35.6092 28.5106 36.8898 29.5785C38.1705 30.6463 39.8781 31.1803 42.0125 31.1803ZM40.0915 25.0401C40.0915 23.5908 41.0583 22.6755 42.9918 22.2941L48.1522 21.4169V22.256C48.1522 23.6798 47.6625 24.8875 46.6832 25.8791C45.729 26.8707 44.4734 27.3665 42.9165 27.3665C42.0878 27.3665 41.4098 27.1631 40.8825 26.7563C40.3552 26.324 40.0915 25.752 40.0915 25.0401Z" stroke="#E3E0DC" stroke-width="2" mask="url(#path-4-outside-1_2045_8308)"/>
<path d="M57.6471 30.7226H62.5814V19.1668C62.5814 17.5904 63.0083 16.37 63.8621 15.5055C64.741 14.6156 65.871 14.1707 67.2521 14.1707H69.0224V9.74668H67.8171C66.5616 9.74668 65.4567 9.97551 64.5024 10.4332C63.5482 10.8908 62.8074 11.7171 62.2801 12.9121V9.97551H57.6471V30.7226Z" stroke="#E3E0DC" stroke-width="2" mask="url(#path-4-outside-1_2045_8308)"/>
<path d="M81.6284 30.9514C82.4571 30.9514 83.2732 30.8879 84.0767 30.7608V26.4512C83.5996 26.5274 83.1602 26.5656 82.7584 26.5656C81.5531 26.5656 80.6742 26.2859 80.1217 25.7265C79.5693 25.1672 79.2931 24.3663 79.2931 23.3238V14.4377H84.0014V9.97551H79.2931V5.24639H74.3587V6.84819C74.3587 7.8652 74.0825 8.64068 73.5301 9.17461C72.9776 9.70854 72.1992 9.97551 71.1947 9.97551H70.8181V14.4377H74.3587V23.5908C74.3587 25.9045 74.9865 27.7097 76.2421 29.0064C77.5227 30.3031 79.3182 30.9514 81.6284 30.9514Z" stroke="#E3E0DC" stroke-width="2" mask="url(#path-4-outside-1_2045_8308)"/>
<path d="M87.8466 7.64909H92.781V2.30975H87.8466V7.64909ZM87.8466 30.7226H92.781V9.97551H87.8466V30.7226Z" stroke="#E3E0DC" stroke-width="2" mask="url(#path-4-outside-1_2045_8308)"/>
<path d="M97.3369 30.7226H102.271V18.5566C102.271 17.209 102.648 16.1285 103.401 15.3148C104.18 14.5012 105.184 14.0944 106.415 14.0944C107.645 14.0944 108.637 14.5012 109.39 15.3148C110.169 16.103 110.558 17.1836 110.558 18.5566V30.7226H115.492V17.3743C115.492 15.8233 115.166 14.4631 114.513 13.2935C113.86 12.0985 112.943 11.1705 111.763 10.5094C110.608 9.84838 109.277 9.51785 107.771 9.51785C106.49 9.51785 105.335 9.7721 104.305 10.2806C103.301 10.7891 102.522 11.5392 101.97 12.5308V9.97551H97.3369V30.7226Z" stroke="#E3E0DC" stroke-width="2" mask="url(#path-4-outside-1_2045_8308)"/>
<path d="M129.684 31.1803C131.668 31.1803 133.476 30.7226 135.108 29.8073C136.74 28.8666 138.046 27.5826 139.025 25.9554C140.005 24.3027 140.494 22.4339 140.494 20.3491C140.494 18.2642 140.005 16.4081 139.025 14.7809C138.071 13.1537 136.778 11.8697 135.146 10.929C133.513 9.98822 131.693 9.51785 129.684 9.51785C127.65 9.51785 125.817 9.98822 124.185 10.929C122.552 11.8697 121.247 13.1537 120.267 14.7809C119.313 16.4081 118.836 18.2642 118.836 20.3491C118.836 22.4339 119.313 24.29 120.267 25.9172C121.247 27.5444 122.552 28.8284 124.185 29.7692C125.842 30.7099 127.675 31.1803 129.684 31.1803ZM129.684 26.6037C128.579 26.6037 127.587 26.3367 126.708 25.8028C125.855 25.2689 125.177 24.5315 124.674 23.5908C124.197 22.6246 123.959 21.5441 123.959 20.3491C123.959 19.1541 124.197 18.0862 124.674 17.1455C125.177 16.2047 125.855 15.4674 126.708 14.9335C127.587 14.3741 128.579 14.0944 129.684 14.0944C130.789 14.0944 131.756 14.3741 132.584 14.9335C133.438 15.4674 134.104 16.2047 134.581 17.1455C135.083 18.0862 135.334 19.1541 135.334 20.3491C135.334 21.5441 135.083 22.6246 134.581 23.5908C134.104 24.5315 133.438 25.2689 132.584 25.8028C131.756 26.3367 130.789 26.6037 129.684 26.6037Z" stroke="#E3E0DC" stroke-width="2" mask="url(#path-4-outside-1_2045_8308)"/>
</svg>
