<svg width="197" height="42" viewBox="0 0 197 42" fill="none" xmlns="http://www.w3.org/2000/svg">
<path d="M8.95996 0.50293C9.32966 0.482989 9.69951 0.552854 10.04 0.707031L12.2734 1.89551H12.2744C12.5594 2.06713 12.808 2.2983 13.0049 2.5752L13.0859 2.69629C13.2905 3.02238 13.4201 3.39445 13.4639 3.7832L13.5996 6.40723L13.5957 6.55566C13.576 6.9021 13.4876 7.24086 13.3359 7.5498C13.1644 7.89915 12.9166 8.19934 12.6152 8.42871L10.498 9.85938C10.1725 10.0514 9.8101 10.1627 9.43848 10.1836C9.06714 10.2044 8.69527 10.1352 8.35254 9.98145L6.1123 8.81836C5.78829 8.62038 5.51187 8.34492 5.30664 8.0127C5.10088 7.67956 4.97211 7.29942 4.93359 6.90332L4.79883 4.2793C4.7995 3.93098 4.86925 3.58747 5.00293 3.27051L5.06445 3.13672C5.23612 2.78702 5.48274 2.48511 5.78418 2.25488L7.9082 0.820312C8.23136 0.631112 8.59151 0.522833 8.95996 0.50293Z" fill="#999999" stroke="#E3E0DC"/>
<path d="M15.998 11.738C16.3668 11.7173 16.7358 11.785 17.0762 11.9373L19.3105 13.1257C19.6289 13.3222 19.9015 13.593 20.1055 13.9187C20.3065 14.2398 20.4352 14.6051 20.4814 14.9871L20.6172 17.6042C20.615 18.0036 20.5232 18.3963 20.3496 18.7507C20.1776 19.1019 19.9302 19.4046 19.6289 19.6375L17.5059 21.0671C17.1825 21.2579 16.8223 21.3685 16.4531 21.3884C16.0813 21.4085 15.7101 21.3363 15.3682 21.1794L13.1299 20.0183C12.8094 19.8228 12.5352 19.5514 12.3301 19.2244C12.1235 18.8949 11.9926 18.5188 11.9502 18.1257L11.8164 15.5105C11.8195 15.1144 11.9115 14.7252 12.084 14.3738C12.2566 14.0221 12.5049 13.7182 12.8076 13.4861L14.9365 12.0632C15.2623 11.8698 15.6257 11.759 15.998 11.738Z" fill="#999999" stroke="#E3E0DC"/>
<path d="M23.0029 22.9741C23.3755 22.954 23.748 23.0254 24.0908 23.1821L26.3311 24.3442C26.6532 24.5393 26.9289 24.8114 27.1348 25.1392C27.3419 25.4689 27.4716 25.8461 27.5137 26.2397L27.6309 28.8198C27.6288 29.2132 27.5389 29.6003 27.3682 29.9497C27.1967 30.3004 26.9493 30.6025 26.6475 30.8335L24.5293 32.2603C24.2037 32.4521 23.8413 32.5626 23.4697 32.5835C23.0967 32.6044 22.7238 32.5345 22.3799 32.3794L20.1436 31.2183C19.8296 31.0238 19.56 30.7575 19.3574 30.437C19.1538 30.1149 19.0226 29.7473 18.9756 29.3628L18.8418 26.7515C18.8433 26.3534 18.935 25.962 19.1084 25.6089C19.2798 25.2597 19.5258 24.9577 19.8262 24.7271L21.9512 23.2915C22.2743 23.1023 22.6345 22.994 23.0029 22.9741Z" fill="#999999" stroke="#E3E0DC"/>
<path d="M20.334 0.856323C20.7039 0.835548 21.0745 0.903091 21.416 1.05554L23.6475 2.24304H23.6484C23.9745 2.43963 24.2534 2.71405 24.4609 3.04578C24.667 3.37517 24.7958 3.75173 24.8379 4.14441L24.9736 6.75281C24.9725 7.15101 24.8814 7.54318 24.708 7.89636C24.5362 8.24631 24.2877 8.54664 23.9863 8.77722L21.8652 10.2167C21.5416 10.4065 21.1816 10.5161 20.8125 10.536C20.4407 10.5561 20.0689 10.4851 19.7266 10.329L17.9619 9.39539L17.9482 9.38855L17.9346 9.38269L17.749 9.30457C17.311 9.13655 16.8429 9.06236 16.374 9.08875C15.8383 9.11893 15.3178 9.27957 14.8545 9.55554L14.8428 9.56238L14.8311 9.57019L10.6455 12.3944L10.6338 12.4022L10.6221 12.411C10.192 12.7391 9.84312 13.1661 9.60254 13.6561C9.36207 14.1459 9.2355 14.6863 9.23242 15.2343V15.2489L9.2334 15.2635L9.33984 17.3007C9.32701 17.6912 9.22835 18.0725 9.05078 18.4149C8.87211 18.7593 8.61913 19.0532 8.31445 19.2762L6.19922 20.7059C5.87356 20.898 5.51048 21.0093 5.13867 21.0302C4.76747 21.0509 4.39624 20.9817 4.05371 20.828L1.82129 19.6688C1.49675 19.4728 1.21847 19.2004 1.01172 18.87C0.805469 18.5403 0.676342 18.1635 0.634766 17.7704L0.5 15.1561C0.500716 14.758 0.592221 14.3657 0.765625 14.0126C0.937192 13.6633 1.18347 13.3618 1.48438 13.1317L3.60156 11.701C3.92675 11.509 4.2897 11.3998 4.66113 11.3798C5.03156 11.3598 5.40204 11.4291 5.74316 11.5839L7.50684 12.5145L7.51855 12.5204L7.53125 12.5262C8.02173 12.7516 8.55741 12.8541 9.09473 12.8251C9.63206 12.7961 10.1544 12.6369 10.6191 12.3602L10.6426 12.3446L14.8281 9.52136L14.8398 9.51355L14.8506 9.50476C15.2814 9.17711 15.6303 8.74951 15.8701 8.25867C16.1098 7.76812 16.2351 7.22702 16.2354 6.67859V6.66589L16.2344 6.6532L16.1328 4.60925C16.133 4.21158 16.2229 3.81982 16.3955 3.46667C16.5651 3.11964 16.809 2.8198 17.1064 2.58972L19.2734 1.17859C19.599 0.986595 19.9623 0.877258 20.334 0.856323Z" fill="#999999" stroke="#E3E0DC"/>
<path d="M11.6885 22.6493C12.059 22.6284 12.4297 22.6976 12.7715 22.8514L14.5352 23.785L14.5625 23.7987C15.0536 24.0213 15.5894 24.1218 16.126 24.0917C16.6231 24.0637 17.1062 23.9223 17.5439 23.6825C17.1339 24.0047 16.8005 24.4177 16.5684 24.8905C16.3275 25.3811 16.2017 25.9227 16.2002 26.4716V26.4989L16.3076 28.5477C16.3046 28.9452 16.2122 29.3357 16.0391 29.6884C15.8671 30.0386 15.6204 30.341 15.3193 30.5731L13.1973 32.0028C12.8737 32.1938 12.513 32.3032 12.1436 32.3231C11.7732 32.3431 11.4033 32.2726 11.0625 32.1171L8.8291 30.9296C8.50488 30.7336 8.22752 30.4606 8.02051 30.1307C7.81412 29.8017 7.68326 29.4257 7.64062 29.0331L7.50684 26.4227C7.50904 26.0243 7.6009 25.6326 7.77441 25.2792C7.94664 24.9285 8.19354 24.6253 8.49512 24.3934L10.6299 22.9725C10.9547 22.7803 11.3173 22.6702 11.6885 22.6493ZM27.3184 12.0985C27.6893 12.0777 28.0608 12.1456 28.4033 12.2987L30.6406 13.4608C30.9619 13.6584 31.2368 13.931 31.4424 14.2596C31.649 14.5899 31.7798 14.9666 31.8232 15.3602L31.9346 17.996C31.934 18.3935 31.8434 18.7845 31.6709 19.1376C31.4994 19.4885 31.252 19.7909 30.9502 20.0223L28.8398 21.4452C28.5128 21.6398 28.1476 21.7512 27.7734 21.7714C27.4032 21.7913 27.0334 21.721 26.6924 21.5663L24.9287 20.6366L24.916 20.6307L24.9043 20.6249L24.7178 20.5458C24.2793 20.3755 23.8099 20.2997 23.3398 20.3251C22.8499 20.3516 22.3731 20.4882 21.9404 20.7216C22.3406 20.4015 22.6674 19.9958 22.8955 19.5311C23.1363 19.0408 23.2626 18.4996 23.2646 17.951V17.9374L23.2637 17.9227L23.1562 15.8583C23.1603 15.4661 23.2519 15.0804 23.4229 14.7323C23.5956 14.3805 23.8441 14.077 24.1475 13.8456L26.251 12.4257C26.5786 12.2314 26.9439 12.1196 27.3184 12.0985Z" fill="#999999" stroke="#E3E0DC"/>
<mask id="path-6-outside-1_2045_8322" maskUnits="userSpaceOnUse" x="37.9473" y="0.128418" width="159" height="42" fill="black">
<rect fill="white" x="37.9473" y="0.128418" width="159" height="42"/>
<path d="M39.9473 4.68675H48.4599L52.4526 21.4617L56.4453 4.68675H65.3346L57.2363 31.5893H47.6313L39.9473 4.68675Z"/>
<path d="M73.6919 31.9021C71.5826 31.9021 69.9378 31.1983 68.7575 29.7906C67.5773 28.3829 66.9872 26.4669 66.9872 24.0425V11.9989H74.9725V23.6906C74.9725 24.2901 75.1232 24.7594 75.4245 25.0983C75.751 25.4111 76.1653 25.5675 76.6675 25.5675C77.1698 25.5675 77.6846 25.4111 78.2119 25.0983L78.6262 30.5335C78.0738 30.9767 77.3455 31.3156 76.4415 31.5502C75.5627 31.7848 74.6461 31.9021 73.6919 31.9021ZM70.9799 9.06623C69.7997 9.06623 68.7952 8.68824 67.9665 7.93226C67.163 7.15021 66.7612 6.19871 66.7612 5.07777C66.7612 3.95683 67.1881 3.01837 68.0419 2.26239C68.8957 1.50641 69.875 1.12842 70.9799 1.12842C72.135 1.12842 73.1269 1.51944 73.9556 2.30149C74.8093 3.08354 75.2362 4.00897 75.2362 5.07777C75.2362 6.22478 74.8093 7.17628 73.9556 7.93226C73.1018 8.68824 72.1099 9.06623 70.9799 9.06623Z"/>
<path d="M80.8197 12.2726H88.7674V16.2611C89.3449 14.7231 90.1234 13.5891 91.1027 12.8592C92.1072 12.1032 93.2748 11.7252 94.6057 11.7252L95.698 18.0989C93.3125 18.0989 91.5547 18.3726 90.4247 18.9201C89.3198 19.4414 88.7674 20.2756 88.7674 21.4226V31.5893H80.8197V12.2726Z"/>
<path d="M107.536 31.9021C105.427 31.9021 103.544 31.472 101.886 30.6117C100.254 29.7515 98.9734 28.5654 98.0443 27.0534C97.1403 25.5154 96.6883 23.7557 96.6883 21.7745C96.6883 19.7934 97.1528 18.0468 98.0819 16.5348C99.011 14.9968 100.292 13.8107 101.924 12.9765C103.581 12.1423 105.465 11.7252 107.574 11.7252C109.708 11.7252 111.592 12.1553 113.224 13.0156C114.881 13.8498 116.162 15.0228 117.066 16.5348C117.97 18.0468 118.422 19.7934 118.422 21.7745C118.422 23.7818 117.957 25.5545 117.028 27.0925C116.124 28.6045 114.844 29.7906 113.186 30.6508C111.554 31.485 109.671 31.9021 107.536 31.9021ZM107.612 26.0367C108.641 26.0367 109.482 25.6457 110.135 24.8636C110.813 24.0555 111.152 23.0258 111.152 21.7745C111.152 20.5233 110.813 19.5066 110.135 18.7246C109.482 17.9164 108.641 17.5124 107.612 17.5124C106.582 17.5124 105.728 17.9164 105.05 18.7246C104.397 19.5066 104.071 20.5233 104.071 21.7745C104.071 23.0258 104.397 24.0555 105.05 24.8636C105.728 25.6457 106.582 26.0367 107.612 26.0367Z"/>
<path d="M131.905 40.5438C130.524 40.5438 129.205 40.4004 127.95 40.1136L128.552 34.3265C129.532 34.4829 130.436 34.5611 131.264 34.5611C132.821 34.5611 134.002 34.0788 134.805 33.1143C135.609 32.1758 136.086 30.5857 136.236 28.3438C134.755 30.5075 132.495 31.5893 129.456 31.5893C127.799 31.5893 126.267 31.1461 124.861 30.2598C123.48 29.3735 122.375 28.1743 121.546 26.6624C120.743 25.1504 120.341 23.4951 120.341 21.6963C120.341 19.8716 120.743 18.2032 121.546 16.6912C122.35 15.1532 123.442 13.941 124.823 13.0547C126.23 12.1684 127.761 11.7252 129.419 11.7252C130.951 11.7252 132.281 12.1423 133.411 12.9765C134.567 13.7846 135.32 14.8795 135.671 16.2611V11.7252H143.619V26.6233C143.619 31.1852 142.615 34.6393 140.606 36.9854C138.622 39.3577 135.722 40.5438 131.905 40.5438ZM131.905 25.7239C132.909 25.7239 133.776 25.3589 134.504 24.629C135.232 23.8731 135.621 22.9867 135.671 21.9701V21.6572C135.621 20.6666 135.219 19.7934 134.466 19.0374C133.738 18.2814 132.884 17.9034 131.905 17.9034C130.875 17.9034 129.996 18.2944 129.268 19.0765C128.54 19.8325 128.176 20.7449 128.176 21.8137C128.176 22.8825 128.54 23.8079 129.268 24.5899C129.996 25.3459 130.875 25.7239 131.905 25.7239Z"/>
<path d="M155.76 31.9021C154.127 31.9021 152.596 31.4589 151.164 30.5726C149.758 29.6602 148.628 28.435 147.774 26.897C146.92 25.3329 146.494 23.5993 146.494 21.6963C146.494 19.8194 146.92 18.125 147.774 16.613C148.628 15.075 149.771 13.8758 151.202 13.0156C152.633 12.1553 154.152 11.7252 155.76 11.7252C157.065 11.7252 158.271 12.1032 159.376 12.8592C160.506 13.6152 161.359 14.7491 161.937 16.2611V11.7252H169.847V31.5893H161.937V27.9528C160.681 30.5857 158.622 31.9021 155.76 31.9021ZM158.208 25.7239C159.212 25.7239 160.066 25.3589 160.769 24.629C161.497 23.8731 161.887 22.9867 161.937 21.9701V21.6572C161.887 20.6145 161.485 19.7282 160.732 18.9983C160.003 18.2684 159.162 17.9034 158.208 17.9034C157.153 17.9034 156.249 18.2944 155.496 19.0765C154.768 19.8325 154.404 20.7449 154.404 21.8137C154.404 22.9085 154.78 23.834 155.534 24.5899C156.287 25.3459 157.178 25.7239 158.208 25.7239Z"/>
<path d="M173.662 12.2726H181.233V16.2611C182.69 13.2372 185 11.7252 188.164 11.7252C190.574 11.7252 192.458 12.6246 193.814 14.4233C195.195 16.1959 195.885 18.6594 195.885 21.8137V31.5893H187.975V20.9925C187.975 19.8716 187.737 19.0113 187.26 18.4117C186.808 17.8122 186.167 17.5124 185.339 17.5124C184.736 17.5124 184.146 17.7209 183.568 18.138C182.991 18.529 182.514 19.1025 182.137 19.8585C181.786 20.6145 181.61 21.4748 181.61 22.4393V31.5893H173.662V12.2726Z"/>
</mask>
<path d="M39.9473 4.68675H48.4599L52.4526 21.4617L56.4453 4.68675H65.3346L57.2363 31.5893H47.6313L39.9473 4.68675Z" fill="#999999"/>
<path d="M73.6919 31.9021C71.5826 31.9021 69.9378 31.1983 68.7575 29.7906C67.5773 28.3829 66.9872 26.4669 66.9872 24.0425V11.9989H74.9725V23.6906C74.9725 24.2901 75.1232 24.7594 75.4245 25.0983C75.751 25.4111 76.1653 25.5675 76.6675 25.5675C77.1698 25.5675 77.6846 25.4111 78.2119 25.0983L78.6262 30.5335C78.0738 30.9767 77.3455 31.3156 76.4415 31.5502C75.5627 31.7848 74.6461 31.9021 73.6919 31.9021ZM70.9799 9.06623C69.7997 9.06623 68.7952 8.68824 67.9665 7.93226C67.163 7.15021 66.7612 6.19871 66.7612 5.07777C66.7612 3.95683 67.1881 3.01837 68.0419 2.26239C68.8957 1.50641 69.875 1.12842 70.9799 1.12842C72.135 1.12842 73.1269 1.51944 73.9556 2.30149C74.8093 3.08354 75.2362 4.00897 75.2362 5.07777C75.2362 6.22478 74.8093 7.17628 73.9556 7.93226C73.1018 8.68824 72.1099 9.06623 70.9799 9.06623Z" fill="#999999"/>
<path d="M80.8197 12.2726H88.7674V16.2611C89.3449 14.7231 90.1234 13.5891 91.1027 12.8592C92.1072 12.1032 93.2748 11.7252 94.6057 11.7252L95.698 18.0989C93.3125 18.0989 91.5547 18.3726 90.4247 18.9201C89.3198 19.4414 88.7674 20.2756 88.7674 21.4226V31.5893H80.8197V12.2726Z" fill="#999999"/>
<path d="M107.536 31.9021C105.427 31.9021 103.544 31.472 101.886 30.6117C100.254 29.7515 98.9734 28.5654 98.0443 27.0534C97.1403 25.5154 96.6883 23.7557 96.6883 21.7745C96.6883 19.7934 97.1528 18.0468 98.0819 16.5348C99.011 14.9968 100.292 13.8107 101.924 12.9765C103.581 12.1423 105.465 11.7252 107.574 11.7252C109.708 11.7252 111.592 12.1553 113.224 13.0156C114.881 13.8498 116.162 15.0228 117.066 16.5348C117.97 18.0468 118.422 19.7934 118.422 21.7745C118.422 23.7818 117.957 25.5545 117.028 27.0925C116.124 28.6045 114.844 29.7906 113.186 30.6508C111.554 31.485 109.671 31.9021 107.536 31.9021ZM107.612 26.0367C108.641 26.0367 109.482 25.6457 110.135 24.8636C110.813 24.0555 111.152 23.0258 111.152 21.7745C111.152 20.5233 110.813 19.5066 110.135 18.7246C109.482 17.9164 108.641 17.5124 107.612 17.5124C106.582 17.5124 105.728 17.9164 105.05 18.7246C104.397 19.5066 104.071 20.5233 104.071 21.7745C104.071 23.0258 104.397 24.0555 105.05 24.8636C105.728 25.6457 106.582 26.0367 107.612 26.0367Z" fill="#999999"/>
<path d="M131.905 40.5438C130.524 40.5438 129.205 40.4004 127.95 40.1136L128.552 34.3265C129.532 34.4829 130.436 34.5611 131.264 34.5611C132.821 34.5611 134.002 34.0788 134.805 33.1143C135.609 32.1758 136.086 30.5857 136.236 28.3438C134.755 30.5075 132.495 31.5893 129.456 31.5893C127.799 31.5893 126.267 31.1461 124.861 30.2598C123.48 29.3735 122.375 28.1743 121.546 26.6624C120.743 25.1504 120.341 23.4951 120.341 21.6963C120.341 19.8716 120.743 18.2032 121.546 16.6912C122.35 15.1532 123.442 13.941 124.823 13.0547C126.23 12.1684 127.761 11.7252 129.419 11.7252C130.951 11.7252 132.281 12.1423 133.411 12.9765C134.567 13.7846 135.32 14.8795 135.671 16.2611V11.7252H143.619V26.6233C143.619 31.1852 142.615 34.6393 140.606 36.9854C138.622 39.3577 135.722 40.5438 131.905 40.5438ZM131.905 25.7239C132.909 25.7239 133.776 25.3589 134.504 24.629C135.232 23.8731 135.621 22.9867 135.671 21.9701V21.6572C135.621 20.6666 135.219 19.7934 134.466 19.0374C133.738 18.2814 132.884 17.9034 131.905 17.9034C130.875 17.9034 129.996 18.2944 129.268 19.0765C128.54 19.8325 128.176 20.7449 128.176 21.8137C128.176 22.8825 128.54 23.8079 129.268 24.5899C129.996 25.3459 130.875 25.7239 131.905 25.7239Z" fill="#999999"/>
<path d="M155.76 31.9021C154.127 31.9021 152.596 31.4589 151.164 30.5726C149.758 29.6602 148.628 28.435 147.774 26.897C146.92 25.3329 146.494 23.5993 146.494 21.6963C146.494 19.8194 146.92 18.125 147.774 16.613C148.628 15.075 149.771 13.8758 151.202 13.0156C152.633 12.1553 154.152 11.7252 155.76 11.7252C157.065 11.7252 158.271 12.1032 159.376 12.8592C160.506 13.6152 161.359 14.7491 161.937 16.2611V11.7252H169.847V31.5893H161.937V27.9528C160.681 30.5857 158.622 31.9021 155.76 31.9021ZM158.208 25.7239C159.212 25.7239 160.066 25.3589 160.769 24.629C161.497 23.8731 161.887 22.9867 161.937 21.9701V21.6572C161.887 20.6145 161.485 19.7282 160.732 18.9983C160.003 18.2684 159.162 17.9034 158.208 17.9034C157.153 17.9034 156.249 18.2944 155.496 19.0765C154.768 19.8325 154.404 20.7449 154.404 21.8137C154.404 22.9085 154.78 23.834 155.534 24.5899C156.287 25.3459 157.178 25.7239 158.208 25.7239Z" fill="#999999"/>
<path d="M173.662 12.2726H181.233V16.2611C182.69 13.2372 185 11.7252 188.164 11.7252C190.574 11.7252 192.458 12.6246 193.814 14.4233C195.195 16.1959 195.885 18.6594 195.885 21.8137V31.5893H187.975V20.9925C187.975 19.8716 187.737 19.0113 187.26 18.4117C186.808 17.8122 186.167 17.5124 185.339 17.5124C184.736 17.5124 184.146 17.7209 183.568 18.138C182.991 18.529 182.514 19.1025 182.137 19.8585C181.786 20.6145 181.61 21.4748 181.61 22.4393V31.5893H173.662V12.2726Z" fill="#999999"/>
<path d="M39.9473 4.68675H48.4599L52.4526 21.4617L56.4453 4.68675H65.3346L57.2363 31.5893H47.6313L39.9473 4.68675Z" stroke="#E3E0DC" stroke-width="2" mask="url(#path-6-outside-1_2045_8322)"/>
<path d="M73.6919 31.9021C71.5826 31.9021 69.9378 31.1983 68.7575 29.7906C67.5773 28.3829 66.9872 26.4669 66.9872 24.0425V11.9989H74.9725V23.6906C74.9725 24.2901 75.1232 24.7594 75.4245 25.0983C75.751 25.4111 76.1653 25.5675 76.6675 25.5675C77.1698 25.5675 77.6846 25.4111 78.2119 25.0983L78.6262 30.5335C78.0738 30.9767 77.3455 31.3156 76.4415 31.5502C75.5627 31.7848 74.6461 31.9021 73.6919 31.9021ZM70.9799 9.06623C69.7997 9.06623 68.7952 8.68824 67.9665 7.93226C67.163 7.15021 66.7612 6.19871 66.7612 5.07777C66.7612 3.95683 67.1881 3.01837 68.0419 2.26239C68.8957 1.50641 69.875 1.12842 70.9799 1.12842C72.135 1.12842 73.1269 1.51944 73.9556 2.30149C74.8093 3.08354 75.2362 4.00897 75.2362 5.07777C75.2362 6.22478 74.8093 7.17628 73.9556 7.93226C73.1018 8.68824 72.1099 9.06623 70.9799 9.06623Z" stroke="#E3E0DC" stroke-width="2" mask="url(#path-6-outside-1_2045_8322)"/>
<path d="M80.8197 12.2726H88.7674V16.2611C89.3449 14.7231 90.1234 13.5891 91.1027 12.8592C92.1072 12.1032 93.2748 11.7252 94.6057 11.7252L95.698 18.0989C93.3125 18.0989 91.5547 18.3726 90.4247 18.9201C89.3198 19.4414 88.7674 20.2756 88.7674 21.4226V31.5893H80.8197V12.2726Z" stroke="#E3E0DC" stroke-width="2" mask="url(#path-6-outside-1_2045_8322)"/>
<path d="M107.536 31.9021C105.427 31.9021 103.544 31.472 101.886 30.6117C100.254 29.7515 98.9734 28.5654 98.0443 27.0534C97.1403 25.5154 96.6883 23.7557 96.6883 21.7745C96.6883 19.7934 97.1528 18.0468 98.0819 16.5348C99.011 14.9968 100.292 13.8107 101.924 12.9765C103.581 12.1423 105.465 11.7252 107.574 11.7252C109.708 11.7252 111.592 12.1553 113.224 13.0156C114.881 13.8498 116.162 15.0228 117.066 16.5348C117.97 18.0468 118.422 19.7934 118.422 21.7745C118.422 23.7818 117.957 25.5545 117.028 27.0925C116.124 28.6045 114.844 29.7906 113.186 30.6508C111.554 31.485 109.671 31.9021 107.536 31.9021ZM107.612 26.0367C108.641 26.0367 109.482 25.6457 110.135 24.8636C110.813 24.0555 111.152 23.0258 111.152 21.7745C111.152 20.5233 110.813 19.5066 110.135 18.7246C109.482 17.9164 108.641 17.5124 107.612 17.5124C106.582 17.5124 105.728 17.9164 105.05 18.7246C104.397 19.5066 104.071 20.5233 104.071 21.7745C104.071 23.0258 104.397 24.0555 105.05 24.8636C105.728 25.6457 106.582 26.0367 107.612 26.0367Z" stroke="#E3E0DC" stroke-width="2" mask="url(#path-6-outside-1_2045_8322)"/>
<path d="M131.905 40.5438C130.524 40.5438 129.205 40.4004 127.95 40.1136L128.552 34.3265C129.532 34.4829 130.436 34.5611 131.264 34.5611C132.821 34.5611 134.002 34.0788 134.805 33.1143C135.609 32.1758 136.086 30.5857 136.236 28.3438C134.755 30.5075 132.495 31.5893 129.456 31.5893C127.799 31.5893 126.267 31.1461 124.861 30.2598C123.48 29.3735 122.375 28.1743 121.546 26.6624C120.743 25.1504 120.341 23.4951 120.341 21.6963C120.341 19.8716 120.743 18.2032 121.546 16.6912C122.35 15.1532 123.442 13.941 124.823 13.0547C126.23 12.1684 127.761 11.7252 129.419 11.7252C130.951 11.7252 132.281 12.1423 133.411 12.9765C134.567 13.7846 135.32 14.8795 135.671 16.2611V11.7252H143.619V26.6233C143.619 31.1852 142.615 34.6393 140.606 36.9854C138.622 39.3577 135.722 40.5438 131.905 40.5438ZM131.905 25.7239C132.909 25.7239 133.776 25.3589 134.504 24.629C135.232 23.8731 135.621 22.9867 135.671 21.9701V21.6572C135.621 20.6666 135.219 19.7934 134.466 19.0374C133.738 18.2814 132.884 17.9034 131.905 17.9034C130.875 17.9034 129.996 18.2944 129.268 19.0765C128.54 19.8325 128.176 20.7449 128.176 21.8137C128.176 22.8825 128.54 23.8079 129.268 24.5899C129.996 25.3459 130.875 25.7239 131.905 25.7239Z" stroke="#E3E0DC" stroke-width="2" mask="url(#path-6-outside-1_2045_8322)"/>
<path d="M155.76 31.9021C154.127 31.9021 152.596 31.4589 151.164 30.5726C149.758 29.6602 148.628 28.435 147.774 26.897C146.92 25.3329 146.494 23.5993 146.494 21.6963C146.494 19.8194 146.92 18.125 147.774 16.613C148.628 15.075 149.771 13.8758 151.202 13.0156C152.633 12.1553 154.152 11.7252 155.76 11.7252C157.065 11.7252 158.271 12.1032 159.376 12.8592C160.506 13.6152 161.359 14.7491 161.937 16.2611V11.7252H169.847V31.5893H161.937V27.9528C160.681 30.5857 158.622 31.9021 155.76 31.9021ZM158.208 25.7239C159.212 25.7239 160.066 25.3589 160.769 24.629C161.497 23.8731 161.887 22.9867 161.937 21.9701V21.6572C161.887 20.6145 161.485 19.7282 160.732 18.9983C160.003 18.2684 159.162 17.9034 158.208 17.9034C157.153 17.9034 156.249 18.2944 155.496 19.0765C154.768 19.8325 154.404 20.7449 154.404 21.8137C154.404 22.9085 154.78 23.834 155.534 24.5899C156.287 25.3459 157.178 25.7239 158.208 25.7239Z" stroke="#E3E0DC" stroke-width="2" mask="url(#path-6-outside-1_2045_8322)"/>
<path d="M173.662 12.2726H181.233V16.2611C182.69 13.2372 185 11.7252 188.164 11.7252C190.574 11.7252 192.458 12.6246 193.814 14.4233C195.195 16.1959 195.885 18.6594 195.885 21.8137V31.5893H187.975V20.9925C187.975 19.8716 187.737 19.0113 187.26 18.4117C186.808 17.8122 186.167 17.5124 185.339 17.5124C184.736 17.5124 184.146 17.7209 183.568 18.138C182.991 18.529 182.514 19.1025 182.137 19.8585C181.786 20.6145 181.61 21.4748 181.61 22.4393V31.5893H173.662V12.2726Z" stroke="#E3E0DC" stroke-width="2" mask="url(#path-6-outside-1_2045_8322)"/>
</svg>
