<svg width="60" height="60" viewBox="0 0 60 60" fill="none" xmlns="http://www.w3.org/2000/svg">
<g clip-path="url(#clip0_2059_10389)">
<path d="M26.707 31.6453C26.707 34.0547 24.9809 36.0152 22.8105 36.0152C20.6742 36.0152 18.9141 34.0547 18.9141 31.6453C18.9141 29.2371 20.6402 27.2754 22.8105 27.2754C24.9973 27.2754 26.741 29.2547 26.707 31.6453Z" fill="#5462EB"/>
<path d="M41.1133 31.6453C41.1133 34.0547 39.4047 36.0152 37.2168 36.0152C35.0805 36.0152 33.3203 34.0547 33.3203 31.6453C33.3203 29.2371 35.0465 27.2754 37.2168 27.2754C39.4047 27.2754 41.1473 29.2547 41.1133 31.6453Z" fill="#5462EB"/>
<path d="M30 0C13.432 0 0 13.432 0 30C0 46.568 13.432 60 30 60C46.568 60 60 46.568 60 30C60 13.432 46.568 0 30 0ZM51.4348 41.0449C47.727 43.7684 44.134 45.4219 40.5914 46.5176C40.5352 46.5352 40.4742 46.5141 40.4391 46.466C39.6211 45.327 38.8781 44.1258 38.2266 42.8648C38.1891 42.791 38.223 42.702 38.3004 42.6727C39.4805 42.2262 40.6031 41.693 41.6836 41.0625C41.7691 41.0121 41.7738 40.8902 41.6953 40.8316C41.4668 40.6617 41.2395 40.4824 41.0227 40.3031C40.9816 40.2703 40.9266 40.2633 40.8809 40.2855C33.8684 43.5258 26.1867 43.5258 19.091 40.2855C19.0453 40.2656 18.9902 40.2727 18.9516 40.3055C18.7348 40.4836 18.5074 40.6617 18.2801 40.8316C18.2016 40.8902 18.2074 41.0121 18.293 41.0625C19.3734 41.6812 20.4961 42.2262 21.675 42.6738C21.7523 42.7031 21.7887 42.791 21.75 42.8648C21.1137 44.1281 20.3695 45.3281 19.5363 46.4672C19.5 46.5141 19.4402 46.5352 19.384 46.5176C15.8578 45.4219 12.266 43.7684 8.55703 41.0449C8.52656 41.0203 8.5043 40.9828 8.50078 40.943C7.74609 32.8535 9.28594 24.6633 14.9062 16.2656C14.9203 16.2434 14.9402 16.2258 14.9648 16.2164C17.7293 14.9461 20.693 14.0121 23.7891 13.4789C23.8453 13.4707 23.9016 13.4965 23.9309 13.5457C24.3141 14.2242 24.7512 15.0926 25.0477 15.8027C28.3113 15.3047 31.6266 15.3047 34.9594 15.8027C35.2547 15.1078 35.6766 14.2242 36.0574 13.5457C36.0867 13.4941 36.143 13.4684 36.1992 13.4789C39.2977 14.0133 42.2613 14.9484 45.0246 16.2164C45.0492 16.2258 45.0691 16.2434 45.0809 16.268C49.977 23.4691 52.3957 31.5926 51.491 40.9453C51.4875 40.9852 51.4676 41.0203 51.4348 41.0449Z" fill="#5462EB"/>
</g>
<defs>
<clipPath id="clip0_2059_10389">
<rect width="60" height="60" fill="white"/>
</clipPath>
</defs>
</svg>
