<svg width="60" height="60" viewBox="0 0 60 60" fill="none" xmlns="http://www.w3.org/2000/svg">
<g clip-path="url(#clip0_2059_10377)">
<path d="M30 0C46.568 0 60 13.432 60 30C60 44.9742 49.0289 57.3857 34.6875 59.6357V38.6719H41.6777L43.0078 30H34.6875V24.3721C34.6875 24.0015 34.7162 23.6325 34.7783 23.2734C34.8156 23.0579 34.865 22.8461 34.9277 22.6396C34.9486 22.571 34.9703 22.5029 34.9941 22.4355C35.0181 22.3677 35.0442 22.3008 35.0713 22.2344C35.0983 22.1683 35.1261 22.1026 35.1562 22.0381C35.1863 21.9737 35.2186 21.9104 35.252 21.8477C35.92 20.5909 37.2472 19.6876 39.5762 19.6875H43.3594V12.3047C43.3594 12.3047 41.4283 11.9754 39.0781 11.8105C38.2946 11.7556 37.4642 11.7188 36.6436 11.7188C36.4293 11.7188 36.2174 11.7224 36.0078 11.7305C34.3324 11.7952 32.8093 12.118 31.4717 12.6865C31.1373 12.8286 30.8146 12.9865 30.5039 13.1592C27.2414 14.9719 25.3125 18.4565 25.3125 23.3906V30H17.6953V38.6719H25.3125V59.6357C10.9711 57.3857 0 44.9742 0 30C0 13.432 13.432 0 30 0Z" fill="#1877F2"/>
</g>
<defs>
<clipPath id="clip0_2059_10377">
<rect width="60" height="60" fill="white"/>
</clipPath>
</defs>
</svg>
