<svg width="60" height="60" viewBox="0 0 60 60" fill="none" xmlns="http://www.w3.org/2000/svg">
<path d="M30 3.75C15.4969 3.75 3.75 15.4969 3.75 30C3.75 41.6156 11.2641 51.4266 21.6984 54.9047C23.0109 55.1344 23.5031 54.3469 23.5031 53.6578C23.5031 53.0344 23.4703 50.9672 23.4703 48.7688C16.875 49.9828 15.1687 47.1609 14.6438 45.6844C14.3484 44.9297 13.0688 42.6 11.9531 41.9766C11.0344 41.4844 9.72188 40.2703 11.9203 40.2375C13.9875 40.2047 15.4641 42.1406 15.9563 42.9281C18.3188 46.8984 22.0922 45.7828 23.6016 45.0938C23.8313 43.3875 24.5203 42.2391 25.275 41.5828C19.4344 40.9266 13.3313 38.6625 13.3313 28.6219C13.3313 25.7672 14.3484 23.4047 16.0219 21.5672C15.7594 20.9109 14.8406 18.2203 16.2844 14.6109C16.2844 14.6109 18.4828 13.9219 23.5031 17.3016C25.6031 16.7109 27.8344 16.4156 30.0656 16.4156C32.2969 16.4156 34.5281 16.7109 36.6281 17.3016C41.6484 13.8891 43.8469 14.6109 43.8469 14.6109C45.2906 18.2203 44.3719 20.9109 44.1094 21.5672C45.7828 23.4047 46.8 25.7344 46.8 28.6219C46.8 38.6953 40.6641 40.9266 34.8234 41.5828C35.775 42.4031 36.5953 43.9781 36.5953 46.4391C36.5953 49.95 36.5625 52.7719 36.5625 53.6578C36.5625 54.3469 37.0547 55.1672 38.3672 54.9047C43.5783 53.1455 48.1065 49.7964 51.3145 45.3288C54.5224 40.8612 56.2486 35.5 56.25 30C56.25 15.4969 44.5031 3.75 30 3.75Z" fill="#0F172A"/>
</svg>
