<svg width="60" height="60" viewBox="0 0 60 60" fill="none" xmlns="http://www.w3.org/2000/svg">
<rect x="3.75" y="3.75" width="52.5" height="52.5" fill="#FFCA28"/>
<path d="M35.625 47.4144L39.4904 44.8567C39.7933 45.8084 41.7115 48.0686 44.1346 48.0686C46.5577 48.0686 47.6827 46.7452 47.6827 45.8678C47.6827 43.4768 45.2085 42.6338 44.0201 42.2289C43.8263 42.1629 43.6668 42.1086 43.5577 42.061C43.5018 42.0367 43.4172 42.0044 43.3085 41.9629C41.9868 41.4579 37.1106 39.5949 37.1106 34.1947C37.1106 28.2465 42.851 27.5625 44.149 27.5625C44.9983 27.5625 49.0817 27.6666 51.1154 31.4883L47.3654 34.1054C46.5433 32.44 45.1773 31.8898 44.3365 31.8898C42.2596 31.8898 41.8269 33.4124 41.8269 34.1054C41.8269 36.0502 44.0834 36.9219 45.9888 37.6579C46.4872 37.8504 46.9617 38.0337 47.3654 38.2245C49.4423 39.206 52.5 40.8119 52.5 45.8678C52.5 48.4002 50.376 52.5 45.0288 52.5C37.8462 52.5 35.9423 48.1876 35.625 47.4144Z" fill="#3E3E3E"/>
<path d="M16.875 47.9223L20.9038 45.3659C21.2195 46.3171 22.4461 48.0709 24.226 48.0709C26.0059 48.0709 26.9168 46.2428 26.9168 45.3659V28.125H31.8716V45.3659C31.9518 47.7439 30.6329 52.5 24.8123 52.5C19.4606 52.5 17.2358 49.3194 16.875 47.9223Z" fill="#3E3E3E"/>
</svg>
