<svg width="60" height="60" viewBox="0 0 60 60" fill="none" xmlns="http://www.w3.org/2000/svg">
<g clip-path="url(#clip0_2059_10383)">
<path d="M59.9852 60.0001L60.0002 59.9976V37.9926C60.0002 27.2276 57.6827 18.9351 45.0977 18.9351C39.0477 18.9351 34.9877 22.2551 33.3302 25.4026H33.1552V19.9401H21.2227V59.9976H33.6477V40.1626C33.6477 34.9401 34.6377 29.8901 41.1052 29.8901C47.4777 29.8901 47.5727 35.8501 47.5727 40.4976V60.0001H59.9852Z" fill="#0A66C2"/>
<path d="M0.990234 19.9414H13.4302V59.9989H0.990234V19.9414Z" fill="#0A66C2"/>
<path d="M7.205 0C3.2275 0 0 3.2275 0 7.205C0 11.1825 3.2275 14.4775 7.205 14.4775C11.1825 14.4775 14.41 11.1825 14.41 7.205C14.4075 3.2275 11.18 0 7.205 0Z" fill="#0A66C2"/>
</g>
<defs>
<clipPath id="clip0_2059_10383">
<rect width="60" height="60" fill="white"/>
</clipPath>
</defs>
</svg>
