<svg width="60" height="60" viewBox="0 0 60 60" fill="none" xmlns="http://www.w3.org/2000/svg">
<path d="M30 3.75C15.5215 3.75 3.75 15.5215 3.75 30C3.75 44.4785 15.5215 56.25 30 56.25C44.4785 56.25 56.25 44.4785 56.25 30C56.25 15.5215 44.4785 3.75 30 3.75Z" fill="#FDDD4C"/>
<path d="M18.5041 36.8441C17.9301 35.9751 19.3737 34.6599 18.7866 33.5556C18.4481 32.9187 17.8948 32.5219 17.2303 32.4386C16.5926 32.3585 15.9357 32.592 15.517 33.0482C14.8559 33.7676 14.7531 34.7469 14.881 35.0934C14.9278 35.2205 15.0013 35.2551 15.054 35.2625C15.414 35.3099 15.6167 34.3858 15.741 34.1933C16.0847 33.6628 16.8652 33.5023 17.4042 33.851C18.4262 34.512 17.54 35.5804 17.6165 36.4827C17.6909 37.3613 18.2383 37.7144 18.7297 37.7516C19.2078 37.7697 19.5421 37.5041 19.6265 37.3102C19.8289 36.8474 18.9763 37.5591 18.5041 36.8441Z" fill="black"/>
<path d="M39.8582 28.8672C39.5901 28.8301 39.2971 28.831 38.9923 28.8672C38.7608 28.5751 38.5535 28.1024 38.4365 27.5505C38.2284 26.5688 38.2502 25.8576 38.831 25.7652C39.4119 25.6728 39.6927 26.2668 39.9008 27.2486C40.0404 27.9086 40.0136 28.5149 39.8582 28.8672Z" fill="black"/>
<path d="M33.4962 29.4513C33.5191 29.6736 33.5272 29.8986 33.5207 30.1057C34.0828 30.1387 34.4809 30.4057 34.5869 30.575C34.6412 30.6624 34.6195 30.7194 34.6019 30.7458C34.5438 30.8363 34.4191 30.8223 34.1579 30.793C33.9297 30.7674 33.684 30.7449 33.4287 30.7566C33.2897 31.1827 32.8777 31.2226 32.5883 30.9074C32.3861 30.9691 31.9889 31.2227 31.8706 30.9471C31.8695 30.8103 32.0125 30.6115 32.2716 30.4359C32.0948 30.0987 31.9763 29.7376 31.9063 29.3638C31.5391 29.4299 31.2088 29.5328 30.9499 29.6134C30.8283 29.6512 30.3474 29.8685 30.291 29.6237C30.2534 29.4545 30.5166 29.1757 30.795 28.9744C31.1059 28.7536 31.451 28.5967 31.8086 28.5061C31.8009 27.9736 31.9368 27.6021 32.3236 27.5406C32.8033 27.4643 33.1006 27.8336 33.3064 28.5175C33.8861 28.6785 34.4651 29.0779 34.7206 29.4908C34.8201 29.6509 34.8393 29.7746 34.7749 29.8398C34.6143 30.0063 33.7241 29.5236 33.4962 29.4513Z" fill="black"/>
<path d="M37.3082 31.8446C37.6759 32.0228 38.0805 31.9527 38.2125 31.6878C38.3446 31.423 38.1532 31.0641 37.7854 30.886C37.4177 30.7078 37.0132 30.7779 36.8811 31.0427C36.7491 31.3075 36.9405 31.6664 37.3082 31.8446Z" fill="black"/>
<path d="M39.1184 30.5295C39.1251 30.1245 39.3734 29.8011 39.6717 29.806C39.9701 29.8118 40.2066 30.1434 40.1999 30.5477C40.1932 30.9519 39.945 31.2753 39.6467 31.2704C39.3483 31.2654 39.1118 30.9338 39.1184 30.5295Z" fill="black"/>
<path fill-rule="evenodd" clip-rule="evenodd" d="M47.2097 35.4903C47.2072 35.4818 47.2155 35.5109 47.2097 35.4903C47.8089 35.4903 48.75 36.1701 48.75 37.8126C48.75 39.447 48.063 41.2983 47.9009 41.7091C45.4261 47.5633 39.5197 50.822 32.4841 50.6158C25.9249 50.4235 20.331 47.0072 17.883 41.4377C16.4029 41.4393 14.8767 40.7967 13.7167 39.7819C12.4939 38.7127 11.7401 37.3292 11.593 35.8863C11.4785 34.7626 11.618 33.7174 11.9749 32.8057L10.6001 31.6557C4.30833 26.412 23.9867 4.82184 30.2801 10.2404C30.3119 10.2676 32.4214 12.3103 32.4264 12.3153C35.461 11.0435 43.5916 8.622 43.6008 14.259C43.6041 16.1309 42.3956 18.3138 40.4591 20.2947C42.697 22.3433 42.1069 25.2534 42.4633 27.9234L43.2406 28.1363C44.7224 28.5463 45.7763 29.0933 46.292 29.6278C46.8077 30.1616 47.0634 30.6789 47.1562 31.2853C47.2431 31.7745 47.2314 32.6383 46.5778 33.6043C46.8132 34.2275 47.028 34.8489 47.2097 35.4903ZM17.7719 39.9189C17.9917 39.9238 18.2098 39.9098 18.4238 39.8735C20.723 39.4866 21.3248 37.0215 20.9462 34.6009C20.5182 31.8677 18.6453 30.9041 17.374 30.8356C17.0205 30.8175 16.6921 30.8488 16.4213 30.9025C14.1521 31.3537 12.8709 33.2595 13.1233 35.7345C13.3514 37.9743 15.6465 39.8628 17.7719 39.9189ZM12.6327 31.574C13.3941 30.4825 14.6385 29.693 16.051 29.4216C17.8488 24.6581 20.8509 20.2691 24.8242 17.2488C27.7728 14.8208 30.9529 13.0792 30.9529 13.0792C30.9529 13.0792 29.2404 11.119 28.7231 10.9747C25.5413 10.1266 18.6695 14.8043 14.2817 20.9852C12.5065 23.4857 9.96487 27.9143 11.1801 30.1921C11.3297 30.4743 12.178 31.1995 12.6327 31.574ZM38.429 38.8249C38.434 38.8761 38.4022 38.9289 38.3563 38.9478C38.3563 38.9478 35.7996 40.1218 31.7386 38.8818C31.8846 40.0991 33.3608 40.5605 34.3922 40.7274C39.4244 41.5821 44.129 38.7416 45.1879 38.0263C45.3698 37.9035 45.1857 38.2192 45.1528 38.2656C43.8565 39.9164 40.3713 41.8279 35.8372 41.8271C33.8598 41.8263 31.8832 41.139 31.1577 40.0822C30.0319 38.4429 31.1017 36.0496 32.978 36.2988C36.1496 36.6523 39.4011 36.3867 42.3371 35.0415C44.8971 33.8683 45.8641 32.578 45.7186 31.5328C45.4931 29.9128 43.0914 29.6595 41.8774 29.2657C41.3492 29.0933 41.0884 28.9555 41.0291 27.9746C41.0032 27.5464 40.928 26.0523 40.9004 25.4344C40.8519 24.3528 40.7198 22.8736 39.7905 22.2631C39.5481 22.1039 39.279 22.0272 38.9956 22.0123C38.7697 22.0015 38.6358 22.0326 38.5637 22.0492C38.5476 22.053 38.5345 22.056 38.5243 22.0577C38.0224 22.1419 37.7149 22.3958 37.3522 22.6952C37.3314 22.7125 37.3103 22.7298 37.289 22.7474C36.1297 23.7011 35.1511 23.857 34.062 23.8108C33.7229 23.7966 33.3733 23.7627 33.0046 23.727C32.6654 23.6941 32.31 23.6597 31.9316 23.6375L31.4694 23.6111C29.6458 23.5187 27.6901 25.073 27.3649 27.2807C27.0017 29.7449 28.3791 31.2543 29.2748 32.236C29.4962 32.4785 29.6881 32.6888 29.8171 32.8734C29.8999 32.9848 29.996 33.1415 29.996 33.2908C29.996 33.469 29.879 33.6101 29.7645 33.7306C27.904 35.619 27.3089 38.6195 28.0102 41.1201C28.0979 41.4319 28.2091 41.7306 28.3403 42.016C29.9851 45.8102 35.0884 47.5773 40.073 45.9702C43.5664 44.8438 46.653 42.1219 47.2815 38.367C47.4311 37.3886 47.2113 37.0107 46.9121 36.8284C46.5954 36.6362 46.2159 36.703 46.2159 36.703C46.2159 36.703 46.0429 35.534 45.5532 34.4714C44.0997 35.6033 42.2293 36.3986 40.8051 36.802C38.5233 37.4482 36.0586 37.6997 33.7007 37.3951C32.7443 37.2715 32.1017 37.1884 31.8263 38.0717C34.9714 39.2085 38.3003 38.7218 38.3003 38.7218C38.3646 38.7152 38.4223 38.7614 38.429 38.8249ZM29.3549 16.7637C27.6349 17.6324 25.7143 19.1793 24.1547 20.9588C24.0996 21.0223 24.1815 21.1098 24.2492 21.0611C25.5964 20.0934 27.4435 19.1941 29.8631 18.6117C32.5735 17.9591 35.1828 18.233 36.7766 18.5935C36.8569 18.6117 36.907 18.4755 36.836 18.4359C35.7829 17.8527 34.1665 17.4567 33.0198 17.4484C32.9638 17.4476 32.9321 17.3832 32.9655 17.3387C33.1636 17.0755 33.4352 16.8156 33.6834 16.6275C33.7386 16.5846 33.7052 16.4964 33.635 16.5005C32.2085 16.587 28.9504 18.0725 28.9621 18.0185C29.0457 17.6225 29.309 17.0994 29.4452 16.8552C29.4778 16.7975 29.4143 16.734 29.3549 16.7637Z" fill="black"/>
</svg>
