<svg width="60" height="60" viewBox="0 0 60 60" fill="none" xmlns="http://www.w3.org/2000/svg">
<path d="M21.0897 25.4601V25.0793C21.0897 24.1139 21.8629 23.3132 22.8594 23.2466L30.1182 22.762L40.1565 37.5442V24.5703L37.5727 24.2259V24.045C37.5727 23.0682 38.3635 22.2623 39.3728 22.2106L45.9775 21.8722V22.8227C45.9775 23.2689 45.6457 23.6505 45.1909 23.7275L43.6016 23.9963V45.007L41.6068 45.693C39.9404 46.266 38.0852 45.6526 37.1313 44.2131L27.3859 29.5073V43.5431L30.3855 44.1172L30.3437 44.3954C30.2128 45.2669 29.4604 45.9261 28.5501 45.9666L21.0897 46.2986C20.9911 45.3614 21.6935 44.523 22.6625 44.4212L23.6438 44.3181V25.6036L21.0897 25.4601Z" fill="#0F172A"/>
<path fill-rule="evenodd" clip-rule="evenodd" d="M38.7649 5.56278L8.85602 7.60478C7.06449 7.7271 5.67578 9.1674 5.67578 10.9032V39.9936C5.67578 41.6245 6.23719 43.2091 7.27158 44.4977L13.7204 52.5314C14.763 53.8303 16.4039 54.5455 18.1014 54.441L51.297 52.3976C52.9983 52.2929 54.3228 50.9287 54.3228 49.281V16.208C54.3228 15.1887 53.808 14.2335 52.9438 13.6491L42.4354 6.54436C41.3644 5.8203 40.0686 5.47377 38.7649 5.56278ZM10.3391 11.3569C9.92316 11.049 10.1211 10.4073 10.6437 10.3699L38.9661 8.33839C39.8685 8.27366 40.7652 8.52216 41.495 9.03921L47.1777 13.0653C47.3934 13.2182 47.2922 13.5481 47.0251 13.5626L17.0318 15.1939C16.1241 15.2432 15.2281 14.9766 14.5064 14.4422L10.3391 11.3569ZM15.625 20.3076C15.625 19.3332 16.4122 18.5284 17.4188 18.4736L49.1302 16.7465C50.1113 16.6931 50.9371 17.4476 50.9371 18.3972V47.0349C50.9371 48.0075 50.1527 48.8116 49.1481 48.8688L17.6374 50.6617C16.5456 50.7238 15.625 49.8848 15.625 48.8279V20.3076Z" fill="#0F172A"/>
</svg>
