<svg width="60" height="60" viewBox="0 0 60 60" fill="none" xmlns="http://www.w3.org/2000/svg">
<path fill-rule="evenodd" clip-rule="evenodd" d="M15.2045 8.98158L29.9999 7.5L44.7954 8.98158L56.2499 23.5463L29.9999 52.4998L3.75 23.5463L15.2045 8.98158Z" fill="#FDB300"/>
<path d="M14.3824 23.5488L29.9998 52.5026L3.75 23.5488H14.3824ZM45.6176 23.5488L30.0002 52.5026L56.25 23.5488" fill="#EA6C00"/>
<path fill-rule="evenodd" clip-rule="evenodd" d="M14.3828 23.5488H45.6176L30.0002 52.5026" fill="#FDAD00"/>
<path d="M30.0002 7.5L15.2048 8.98133L14.3828 23.5461L30.0002 7.5ZM30.0004 7.5L44.7959 8.98133L45.6178 23.5461" fill="#FDD231"/>
<path d="M56.25 23.5443L44.7956 8.97949L45.6176 23.5443H56.25ZM3.75 23.5443L15.2044 8.97949L14.3824 23.5443" fill="#FDAD00"/>
<path fill-rule="evenodd" clip-rule="evenodd" d="M30.0002 7.5L14.3828 23.5461H45.6176" fill="#FEEEB7"/>
</svg>
