<svg width="60" height="60" viewBox="0 0 60 60" fill="none" xmlns="http://www.w3.org/2000/svg">
<path d="M49.6879 28.1242C52.2765 28.1242 54.375 26.0257 54.375 23.4371C54.375 20.8485 52.2763 18.75 49.6877 18.75C47.0989 18.75 45 20.8487 45 23.4375V28.1242H49.6879ZM36.5625 28.1242C39.1513 28.1242 41.25 26.0255 41.25 23.4367V10.3125C41.25 7.72366 39.1513 5.625 36.5625 5.625C33.9737 5.625 31.875 7.72367 31.875 10.3125V23.4367C31.875 26.0255 33.9737 28.1242 36.5625 28.1242Z" fill="#2EB67D"/>
<path d="M10.3121 31.8758C7.72349 31.8758 5.625 33.9743 5.625 36.5629C5.625 39.1515 7.72369 41.25 10.3123 41.25C12.9011 41.25 15 39.1513 15 36.5625V31.8758H10.3121ZM23.4375 31.8758C20.8487 31.8758 18.75 33.9745 18.75 36.5633V49.6875C18.75 52.2763 20.8487 54.375 23.4375 54.375C26.0263 54.375 28.125 52.2763 28.125 49.6875V36.5633C28.125 33.9745 26.0263 31.8758 23.4375 31.8758Z" fill="#E01E5A"/>
<path d="M31.8758 49.6879C31.8758 52.2765 33.9743 54.375 36.5629 54.375C39.1515 54.375 41.25 52.2763 41.25 49.6877C41.25 47.0989 39.1513 45 36.5625 45L31.8758 45L31.8758 49.6879ZM31.8758 36.5625C31.8758 39.1513 33.9745 41.25 36.5633 41.25L49.6875 41.25C52.2763 41.25 54.375 39.1513 54.375 36.5625C54.375 33.9737 52.2763 31.875 49.6875 31.875L36.5633 31.875C33.9745 31.875 31.8758 33.9737 31.8758 36.5625Z" fill="#ECB22E"/>
<path d="M28.1242 10.3121C28.1242 7.72349 26.0257 5.625 23.4371 5.625C20.8485 5.625 18.75 7.72369 18.75 10.3123C18.75 12.9011 20.8487 15 23.4375 15L28.1242 15L28.1242 10.3121ZM28.1242 23.4375C28.1242 20.8487 26.0255 18.75 23.4367 18.75L10.3125 18.75C7.72366 18.75 5.625 20.8487 5.625 23.4375C5.625 26.0263 7.72367 28.125 10.3125 28.125L23.4367 28.125C26.0255 28.125 28.1242 26.0263 28.1242 23.4375Z" fill="#36C5F0"/>
</svg>
