<svg width="60" height="60" viewBox="0 0 60 60" fill="none" xmlns="http://www.w3.org/2000/svg">
<path d="M59.9958 30.001C59.9958 45.1529 48.7647 57.6793 34.1746 59.712C32.8104 59.9012 31.4147 60 29.9979 60C28.3625 60 26.7566 59.8697 25.1927 59.6174C10.9095 57.3177 0 44.9322 0 30.001C0 13.4324 13.4319 0 30 0C46.5681 0 60 13.4324 60 30.001H59.9958Z" fill="#17134A"/>
<path d="M12.1663 13.2324L26.0017 31.7308L12.0801 46.7713H15.2142L27.4038 33.6038L37.2517 46.7713H47.9153L33.302 27.2323L46.261 13.2324H43.1269L31.9021 25.3594L22.8319 13.2324H12.1683H12.1663ZM16.7739 15.5405H21.6716L43.3035 44.4632H38.4058L16.7739 15.5405Z" fill="#F1F1F1"/>
</svg>
