<svg xmlns="http://www.w3.org/2000/svg" width="172" height="41" fill="none"><g fill="#A8A8A8" clip-path="url(#a)"><path d="M64.736 11.417h4.048v18.351h-4.048v-2.642c-1.528 2.08-3.715 3.119-6.558 3.119-2.575 0-4.774-.936-6.597-2.807-1.822-1.872-2.735-4.153-2.736-6.845 0-2.716.912-5.003 2.736-6.862 1.825-1.859 4.023-2.789 6.597-2.79 2.847 0 5.033 1.027 6.558 3.082v-2.606zM54.58 24.796c1.124 1.112 2.536 1.669 4.236 1.669 1.7 0 3.111-.557 4.235-1.67 1.125-1.113 1.687-2.514 1.686-4.202 0-1.689-.563-3.09-1.686-4.202-1.124-1.114-2.536-1.67-4.235-1.67-1.7 0-3.112.556-4.236 1.67-1.124 1.113-1.686 2.513-1.686 4.202 0 1.688.562 3.089 1.686 4.203zM99.516 10.94c2.149 0 3.885.674 5.209 2.02 1.324 1.345 1.987 3.192 1.988 5.54v11.268h-4.049V18.905c0-1.37-.375-2.422-1.124-3.156-.749-.735-1.773-1.102-3.073-1.102-1.424 0-2.573.435-3.448 1.304s-1.312 2.196-1.312 3.982v9.835h-4.048V4.078h4.048v9.688c1.228-1.883 3.164-2.825 5.809-2.825zm15.741 11.34c.299 1.395.986 2.466 2.061 3.213 1.075.747 2.387 1.121 3.936 1.123 2.149 0 3.763-.759 4.841-2.276l3.335 1.909c-1.848 2.667-4.584 4-8.207 4-3.049 0-5.512-.912-7.389-2.734-1.877-1.822-2.814-4.128-2.811-6.919 0-2.74.925-5.033 2.774-6.881 1.849-1.848 4.222-2.773 7.119-2.775 2.749 0 5.004.942 6.765 2.826 1.76 1.884 2.641 4.171 2.642 6.862a12.175 12.175 0 0 1-.149 1.65l-14.917.003zm-.037-3.23h11.019c-.276-1.49-.907-2.616-1.894-3.375a5.526 5.526 0 0 0-3.466-1.138c-1.5 0-2.749.404-3.748 1.211-.999.808-1.636 1.909-1.911 3.303zm35.492 10.718h-4.685l-4.647-6.276-4.682 6.276h-4.721l7.045-9.432-6.671-8.919h4.685l4.306 5.799 4.311-5.8h4.721l-6.669 8.957 7.007 9.395zm17.239-18.35H172v18.35h-4.049v-2.641c-1.524 2.079-3.71 3.118-6.559 3.118-2.573 0-4.772-.935-6.596-2.807-1.825-1.87-2.736-4.153-2.735-6.845 0-2.715.911-5.002 2.735-6.861 1.823-1.859 4.022-2.789 6.596-2.79 2.849 0 5.035 1.028 6.559 3.083v-2.607zm-10.156 13.378c1.125 1.113 2.537 1.67 4.234 1.67 1.698 0 3.11-.557 4.236-1.67 1.124-1.113 1.686-2.514 1.686-4.203 0-1.688-.562-3.089-1.686-4.201-1.124-1.114-2.536-1.67-4.236-1.67-1.699 0-3.111.556-4.234 1.67-1.125 1.112-1.687 2.513-1.687 4.201 0 1.689.562 3.09 1.687 4.203zM79.434 6.28h-.656l-6.839 7.147v.759h3.626v9.855c0 2.398 1.389 4.044 2.738 4.936 1.35.892 3.567 1.156 6.672.79v-3.559c-1.02.05-2.774.055-3.46.019-.687-.036-1.206-.22-1.556-.55-.35-.33-.525-.873-.525-1.633v-9.856h5.72v-2.77h-5.72V6.28zM37.39 13.947a6.415 6.415 0 0 0-.892-3.26 6.59 6.59 0 0 0-2.436-2.386L22.47 1.747a6.768 6.768 0 0 0-3.328-.873 6.768 6.768 0 0 0-3.328.873L4.219 8.3a6.588 6.588 0 0 0-2.436 2.386 6.414 6.414 0 0 0-.891 3.26v13.107c0 1.145.307 2.269.892 3.26a6.589 6.589 0 0 0 2.437 2.385l11.593 6.554a6.762 6.762 0 0 0 3.328.873 6.762 6.762 0 0 0 3.328-.873l11.593-6.554a6.59 6.59 0 0 0 2.436-2.386c.584-.99.892-2.115.892-3.259l-.001-13.107zm-4.876 19.627H19.137c-3.547 0-6.95-1.38-9.458-3.837a12.962 12.962 0 0 1-3.918-9.262c0-3.474 1.41-6.806 3.918-9.263a13.522 13.522 0 0 1 9.458-3.836c3.548 0 6.95 1.38 9.46 3.836a12.963 12.963 0 0 1 3.917 9.263v13.099z"/></g><defs><clipPath id="a"><path fill="#fff" d="M0 0h172v41H0z"/></clipPath></defs></svg>