<svg xmlns="http://www.w3.org/2000/svg" width="190" height="37" fill="none"><g fill="#A8A8A8" fill-rule="evenodd" clip-path="url(#a)" clip-rule="evenodd"><path d="M24.677 24.667V12.335H12.338v12.332M8.467 0h16.21v12.335h12.34v12.332h-12.34V37H8.467C3.804 37 0 33.197 0 28.537V8.464C0 3.803 3.804 0 8.467 0zm178.974 28.224-5.769-8.17-5.739 8.17h-2.616l7.048-10.046-6.868-9.78h2.555l5.618 7.968 5.591-7.968h2.618l-6.896 9.84 7.019 9.986M158.21 8.398h12.517v2.023h-10.378v6.836h9.132v2.08h-9.132v6.867h10.378v2.02H158.21V8.398zm-8.596 15.636h4.312v4.19h-4.312v-4.19zM133.467 8.398h4.815V24.45h8.625v3.774h-13.44V8.398zm-11.421 9.601c.968 0 1.689-.252 2.154-.757.465-.505.7-1.193.7-2.066 0-2.022-.952-3.032-2.854-3.03h-3.509v5.853h3.509zm-3.509 10.225h-4.819V8.398h8.92c2.38 0 4.218.535 5.516 1.604 1.299 1.07 1.948 2.685 1.949 4.845 0 2.2-.659 3.893-1.976 5.082s-3.146 1.783-5.487 1.783h-4.101l-.002 6.512zm-9.04-19.826v19.826h-4.819V14.82l-5.83 7.758-5.679-7.728v13.374h-4.61V8.398h4.908l5.562 7.729 5.68-7.729h4.788zm-34.022 16.29c1.564 0 2.743-.495 3.538-1.485.795-.99 1.191-2.626 1.19-4.906 0-2.279-.391-3.909-1.173-4.89-.782-.98-1.967-1.47-3.553-1.47-1.566 0-2.74.495-3.524 1.486-.783.99-1.174 2.635-1.173 4.936 0 2.259.391 3.879 1.173 4.859s1.956 1.47 3.522 1.47zm0 3.952c-3.034 0-5.404-.862-7.109-2.586-1.705-1.724-2.557-4.3-2.556-7.728 0-3.37.837-5.932 2.512-7.686 1.674-1.753 4.059-2.63 7.153-2.629 3.034 0 5.408.856 7.122 2.569 1.715 1.712 2.573 4.283 2.574 7.713 0 3.37-.838 5.936-2.514 7.7-1.676 1.763-4.07 2.646-7.182 2.647zm-18.796-.03c-6.503 0-9.754-3.427-9.754-10.282 0-6.916 3.251-10.374 9.754-10.375 2.003 0 4.105.486 6.305 1.457v4.191c-1.903-1.27-3.786-1.904-5.651-1.903-1.823 0-3.186.51-4.089 1.53-.902 1.021-1.353 2.72-1.353 5.098 0 2.378.461 4.061 1.383 5.05.922.99 2.345 1.486 4.268 1.49.793 0 1.656-.15 2.587-.448.932-.299 1.884-.764 2.855-1.395v4.192c-.814.416-1.805.753-2.974 1.008-1.093.25-2.21.38-3.331.388z"/></g><defs><clipPath id="a"><path fill="#fff" d="M0 0h190v37H0z"/></clipPath></defs></svg>