<svg xmlns="http://www.w3.org/2000/svg" width="134" height="40" fill="none"><path fill="#D8D8DF" fill-opacity=".08" d="M18.425 1.667C8.249 1.667 0 9.875 0 20c0 10.125 8.25 18.333 18.425 18.333 9.13 0 16.708-6.607 18.17-15.277h-.132c-1.364 5.271-6.173 9.166-11.896 9.166-6.784 0-12.284-5.472-12.284-12.222 0-6.75 5.5-12.222 12.284-12.222 5.723 0 10.532 3.895 11.896 9.167h.132c-1.462-8.671-9.04-15.278-18.17-15.278Z"/><path fill="#D8D8DF" fill-opacity=".08" d="M0 20C0 9.875 8.25 1.667 18.425 1.667c9.13 0 16.708 6.607 18.17 15.278H24.18c-1.364-5.272-6.173-9.167-11.897-9.167C5.5 7.778 0 13.25 0 20Zm0 0c0 10.125 8.25 18.334 18.425 18.334 9.13 0 16.708-6.608 18.17-15.278H24.18c-1.364 5.271-6.173 9.166-11.897 9.166C5.5 32.222 0 26.75 0 20Z"/><path fill="#fff" d="M63.18 17.09c-.525-3.77-3.44-5.958-7.22-5.958-4.456 0-7.812 3.231-7.812 8.716 0 5.478 3.315 8.717 7.811 8.717 4.056 0 6.746-2.61 7.22-5.85l-3.114-.016c-.391 1.988-2.024 3.107-4.064 3.107-2.764 0-4.746-2.063-4.746-5.958 0-3.828 1.965-5.957 4.755-5.957 2.073 0 3.697 1.168 4.055 3.198h3.114Zm6.376 11.5c2.007 0 3.206-.936 3.756-2.005h.1v1.748h2.898v-8.518c0-3.364-2.757-4.375-5.197-4.375-2.69 0-4.755 1.194-5.42 3.514l2.814.397c.3-.87 1.15-1.616 2.623-1.616 1.399 0 2.165.713 2.165 1.964v.05c0 .862-.907.903-3.164 1.143-2.482.266-4.855 1.003-4.855 3.87 0 2.502 1.84 3.828 4.28 3.828Zm.783-2.204c-1.257 0-2.157-.572-2.157-1.674 0-1.151 1.008-1.632 2.357-1.823.79-.107 2.373-.306 2.764-.621v1.5c0 1.417-1.149 2.618-2.964 2.618Zm15.389-10.78h-2.523v-3.05H80.19v3.05h-1.815v2.32h1.815v7.076c-.016 2.395 1.732 3.572 3.997 3.505a6.087 6.087 0 0 0 1.774-.298l-.508-2.345a3.779 3.779 0 0 1-.883.116c-.757 0-1.365-.265-1.365-1.475v-6.579h2.523v-2.32ZM91.93 28.59c2.007 0 3.206-.936 3.755-2.005h.1v1.748h2.898v-8.518c0-3.364-2.756-4.375-5.196-4.375-2.69 0-4.755 1.194-5.421 3.514l2.815.397c.3-.87 1.149-1.616 2.623-1.616 1.399 0 2.165.713 2.165 1.964v.05c0 .862-.908.903-3.165 1.143-2.481.266-4.855 1.003-4.855 3.87 0 2.502 1.84 3.828 4.28 3.828Zm.783-2.204c-1.258 0-2.157-.572-2.157-1.674 0-1.151 1.007-1.632 2.356-1.823.791-.107 2.374-.306 2.765-.621v1.5c0 1.417-1.149 2.618-2.964 2.618Zm12.016-15.022h-3.014v16.97h3.014v-16.97Zm8.679 17.218c3.748 0 6.129-2.627 6.129-6.563 0-3.944-2.381-6.579-6.129-6.579-3.747 0-6.129 2.635-6.129 6.58 0 3.935 2.382 6.562 6.129 6.562Zm.017-2.403c-2.074 0-3.09-1.84-3.09-4.168 0-2.328 1.016-4.193 3.09-4.193 2.04 0 3.056 1.865 3.056 4.193 0 2.329-1.016 4.168-3.056 4.168Zm14.234 7.192c3.455 0 6.004-1.574 6.004-4.83V15.605h-2.973v2.105h-.167c-.458-.92-1.415-2.27-3.672-2.27-2.956 0-5.28 2.303-5.28 6.487 0 4.151 2.324 6.223 5.271 6.223 2.191 0 3.215-1.168 3.681-2.105h.15v2.412c0 1.872-1.249 2.643-2.964 2.643-1.816 0-2.615-.854-2.982-1.6l-2.714.655c.549 1.782 2.39 3.215 5.646 3.215Zm.025-7.573c-1.991 0-3.04-1.541-3.04-3.886 0-2.312 1.033-4.01 3.04-4.01 1.94 0 3.006 1.598 3.006 4.01 0 2.428-1.083 3.886-3.006 3.886Z"/></svg>