<svg xmlns="http://www.w3.org/2000/svg" width="156" height="40" fill="none"><path fill="#D8D8DF" fill-opacity=".08" fill-rule="evenodd" d="M18.353 30.389c5.744 0 10.4-4.651 10.4-10.389 0-5.738-4.656-10.389-10.4-10.389-5.744 0-10.4 4.651-10.4 10.39 0 5.737 4.656 10.388 10.4 10.388Zm0 7.944c10.136 0 18.353-8.208 18.353-18.333 0-10.125-8.217-18.333-18.353-18.333C8.217 1.667 0 9.875 0 20c0 10.125 8.217 18.333 18.353 18.333Z" clip-rule="evenodd"/><path fill="#D8D8DF" fill-opacity=".08" d="M18.563 20.401a4.898 4.898 0 0 1 6.921 0l9.517 9.507a4.885 4.885 0 0 1 0 6.914 4.898 4.898 0 0 1-6.921 0l-9.517-9.507a4.885 4.885 0 0 1 0-6.914Z"/><path fill="#D8D8DF" fill-opacity=".08" d="m21.234 29.985 6.045 6.038a18.431 18.431 0 0 0 6.974-6.861l-5.995-5.989a10.418 10.418 0 0 1-7.024 6.812Z"/><path fill="#fff" d="M66.337 30.083a5.204 5.204 0 0 1-1.939 1.494c-.747.342-1.573.513-2.476.513-1.214 0-2.312-.265-3.293-.793-.981-.514-2.102-1.431-3.364-2.754-1.48-.186-2.803-.66-3.97-1.423a8.18 8.18 0 0 1-2.71-2.94c-.639-1.213-.958-2.551-.958-4.013 0-1.603.381-3.042 1.145-4.317a8.223 8.223 0 0 1 3.2-3.033c1.37-.732 2.904-1.097 4.601-1.097s3.224.365 4.578 1.097a8.223 8.223 0 0 1 3.2 3.033c.78 1.275 1.168 2.714 1.168 4.317 0 1.897-.537 3.562-1.611 4.993-1.06 1.431-2.468 2.427-4.228 2.987.39.404.763.692 1.121.863.374.187.77.28 1.191.28 1.013 0 1.9-.404 2.663-1.213l1.682 2.006Zm-14.88-9.916c0 1.01.219 1.913.655 2.706a4.942 4.942 0 0 0 1.845 1.867c.779.436 1.65.653 2.616.653.966 0 1.838-.218 2.616-.653a4.776 4.776 0 0 0 1.822-1.867c.452-.793.678-1.695.678-2.706 0-1.012-.226-1.914-.678-2.707a4.615 4.615 0 0 0-1.822-1.843c-.778-.452-1.65-.677-2.616-.677-.965 0-1.837.226-2.616.677a4.773 4.773 0 0 0-1.845 1.843c-.436.793-.654 1.695-.654 2.707Zm29.309-4.387v12.553H77.31V26.84a4.96 4.96 0 0 1-1.728 1.26c-.67.28-1.394.42-2.172.42-1.651 0-2.959-.474-3.925-1.423-.965-.95-1.448-2.357-1.448-4.224V15.78h3.644v6.557c0 2.022.849 3.033 2.546 3.033.872 0 1.573-.28 2.103-.84.529-.576.794-1.423.794-2.543V15.78h3.643Zm9.356 12.74c-1.324 0-2.515-.272-3.574-.817a6.264 6.264 0 0 1-2.452-2.31c-.592-.98-.888-2.092-.888-3.336 0-1.245.296-2.357.888-3.337a6.1 6.1 0 0 1 2.452-2.287c1.06-.56 2.25-.84 3.574-.84 1.324 0 2.507.28 3.55.84a6.1 6.1 0 0 1 2.453 2.287c.592.98.888 2.092.888 3.337 0 1.244-.296 2.356-.888 3.336a6.264 6.264 0 0 1-2.453 2.31c-1.043.545-2.226.817-3.55.817Zm0-2.987c.934 0 1.697-.31 2.29-.933.606-.638.91-1.486.91-2.543 0-1.058-.303-1.898-.91-2.52-.593-.638-1.356-.957-2.29-.957-.934 0-1.705.319-2.312.957-.608.622-.911 1.462-.911 2.52 0 1.057.303 1.905.91 2.543.608.622 1.379.933 2.313.933Zm17.432 2.194c-.358.264-.802.466-1.332.606a6.926 6.926 0 0 1-1.635.187c-1.495 0-2.655-.381-3.48-1.143-.81-.763-1.215-1.883-1.215-3.36V18.86h-1.938v-2.8h1.938v-3.057h3.644v3.057h3.13v2.8h-3.13v5.11c0 .529.132.941.397 1.237.281.28.67.42 1.168.42.576 0 1.067-.156 1.472-.467l.981 2.567Zm2.045-11.947h3.644v12.553h-3.644V15.78Zm1.822-1.75c-.669 0-1.214-.194-1.635-.583a1.893 1.893 0 0 1-.631-1.447c0-.576.211-1.058.631-1.447.421-.389.966-.583 1.635-.583.67 0 1.215.187 1.635.56.421.373.631.84.631 1.4 0 .607-.21 1.112-.631 1.517-.42.389-.965.583-1.635.583Zm17.514 8.073c0 .047-.024.374-.07.98h-9.507a2.954 2.954 0 0 0 1.215 1.844c.638.45 1.432.676 2.382.676.654 0 1.23-.093 1.729-.28a4.346 4.346 0 0 0 1.424-.933l1.939 2.1c-1.183 1.353-2.912 2.03-5.185 2.03-1.417 0-2.671-.272-3.761-.817-1.09-.56-1.931-1.33-2.523-2.31-.591-.98-.887-2.092-.887-3.336 0-1.23.288-2.334.864-3.314a6.133 6.133 0 0 1 2.406-2.31c1.028-.56 2.172-.84 3.433-.84 1.231 0 2.344.265 3.341.794a5.704 5.704 0 0 1 2.336 2.286c.576.98.864 2.124.864 3.43Zm-6.517-3.756c-.826 0-1.518.233-2.079.7-.561.466-.903 1.104-1.028 1.913h6.19c-.124-.793-.467-1.423-1.028-1.89-.56-.482-1.245-.723-2.055-.723Zm16.581-2.754c1.557 0 2.811.467 3.761 1.4.965.934 1.448 2.318 1.448 4.154v7.186h-3.644v-6.626c0-.996-.218-1.735-.654-2.217-.436-.498-1.067-.747-1.892-.747-.919 0-1.651.288-2.196.864-.545.56-.817 1.4-.817 2.52v6.206h-3.644V15.78h3.48v1.47a4.716 4.716 0 0 1 1.799-1.213c.716-.296 1.502-.444 2.359-.444Zm16.617 12.134c-.358.264-.802.466-1.331.606a6.926 6.926 0 0 1-1.635.187c-1.495 0-2.655-.381-3.481-1.143-.809-.763-1.214-1.883-1.214-3.36V18.86h-1.939v-2.8h1.939v-3.057h3.644v3.057h3.13v2.8h-3.13v5.11c0 .529.132.941.397 1.237.28.28.669.42 1.168.42.576 0 1.066-.156 1.471-.467l.981 2.567Z"/></svg>