<svg xmlns="http://www.w3.org/2000/svg" width="152" height="40" fill="none"><path fill="#D8D8DF" fill-opacity=".08" d="M13.052 27.857c7.209 0 13.052-5.863 13.052-13.095 0-.82-.075-1.622-.218-2.4a13.081 13.081 0 0 0-2.392-.22c-7.209 0-13.053 5.864-13.053 13.096 0 .82.075 1.622.22 2.4.774.144 1.574.22 2.39.22Z"/><path fill="#D8D8DF" fill-opacity=".08" fill-rule="evenodd" d="M10.66 27.638C4.595 26.51 0 21.175 0 14.762 0 7.53 5.844 1.667 13.052 1.667c6.392 0 11.71 4.61 12.834 10.695a13.083 13.083 0 0 0-2.392-.22c-7.208 0-13.052 5.864-13.052 13.096 0 .82.075 1.622.219 2.4Z" clip-rule="evenodd"/><path fill="#D8D8DF" fill-opacity=".08" fill-rule="evenodd" d="M13.052 27.857c7.209 0 13.052-5.863 13.052-13.095 0-.82-.075-1.622-.218-2.4 6.066 1.127 10.66 6.464 10.66 12.876 0 7.233-5.844 13.095-13.052 13.095-6.392 0-11.71-4.609-12.834-10.695.775.144 1.575.22 2.392.22Z" clip-rule="evenodd"/><path fill="#fff" d="M61.654 24.087c-.466 1.509-1.28 2.636-2.442 3.383-1.163.731-2.52 1.097-4.07 1.097-1.52 0-2.838-.32-3.954-.957-1.1-.638-1.954-1.548-2.558-2.73-.59-1.182-.884-2.598-.884-4.247s.302-3.064.907-4.246c.605-1.183 1.458-2.093 2.558-2.73 1.101-.638 2.396-.957 3.884-.957 1.566 0 2.907.334 4.024 1.003 1.132.654 1.907 1.65 2.325 2.987l-2.907 1.237c-.263-.934-.666-1.595-1.21-1.984-.542-.404-1.24-.606-2.092-.606-1.272 0-2.287.459-3.047 1.376-.744.902-1.116 2.21-1.116 3.92 0 1.696.356 3.003 1.07 3.92.713.918 1.744 1.377 3.093 1.377.837 0 1.558-.226 2.163-.677.62-.45 1.054-1.135 1.302-2.053l2.954.887Zm4.014-9.1c-1.318 0-1.977-.568-1.977-1.704 0-1.15.66-1.726 1.977-1.726 1.318 0 1.977.575 1.977 1.726 0 1.136-.659 1.704-1.977 1.704Zm1.582 1.68v11.666h-3.186V16.667h3.186Zm3.377 11.666V16.667h2.768l.209 2.286c.295-.793.737-1.407 1.326-1.843.604-.451 1.364-.677 2.279-.677.542 0 .961.086 1.256.257l-.372 2.683a3.82 3.82 0 0 0-.582-.116 4.253 4.253 0 0 0-.86-.07c-.48 0-.938.116-1.373.35-.418.217-.767.56-1.046 1.026-.28.451-.419 1.027-.419 1.727v6.043h-3.186Zm14.863-11.9c1.551 0 2.753.335 3.606 1.004.868.668 1.442 1.477 1.72 2.426l-2.976 1.074c-.31-1.416-1.078-2.124-2.303-2.124-.883 0-1.573.311-2.07.934-.48.622-.72 1.547-.72 2.776 0 1.245.248 2.17.744 2.777.511.591 1.201.887 2.07.887 1.348 0 2.155-.693 2.418-2.077l2.884.933c-.263 1.043-.853 1.89-1.767 2.544-.9.653-2.07.98-3.512.98-1.21 0-2.272-.241-3.186-.724a5.087 5.087 0 0 1-2.093-2.076c-.497-.903-.745-1.991-.745-3.267 0-1.276.248-2.364.745-3.267a5.277 5.277 0 0 1 2.093-2.076c.899-.483 1.93-.724 3.093-.724Zm13.151 0c1.163 0 2.194.241 3.094.724a5.089 5.089 0 0 1 2.093 2.076c.511.902.767 1.991.767 3.267 0 1.276-.256 2.364-.767 3.267a5.088 5.088 0 0 1-2.093 2.076c-.9.483-1.93.724-3.094.724-1.178 0-2.217-.241-3.116-.724a5.277 5.277 0 0 1-2.093-2.076c-.496-.903-.744-1.991-.744-3.267 0-1.276.248-2.364.744-3.267a5.278 5.278 0 0 1 2.093-2.076c.9-.483 1.938-.724 3.116-.724Zm0 2.38c-.868 0-1.55.311-2.046.934-.48.606-.721 1.524-.721 2.753s.24 2.154.72 2.777c.497.606 1.18.91 2.047.91.853 0 1.52-.304 2.001-.91.496-.623.744-1.548.744-2.777s-.248-2.147-.744-2.753c-.481-.623-1.148-.934-2-.934Zm13.923-2.38c1.163 0 2.194.241 3.093.724a5.089 5.089 0 0 1 2.093 2.076c.512.902.768 1.991.768 3.267 0 1.276-.256 2.364-.768 3.267a5.088 5.088 0 0 1-2.093 2.076c-.899.483-1.93.724-3.093.724-1.179 0-2.217-.241-3.117-.724a5.284 5.284 0 0 1-2.093-2.076c-.496-.903-.744-1.991-.744-3.267 0-1.276.248-2.364.744-3.267a5.285 5.285 0 0 1 2.093-2.076c.9-.483 1.938-.724 3.117-.724Zm0 2.38c-.868 0-1.551.311-2.047.934-.48.606-.721 1.524-.721 2.753s.241 2.154.721 2.777c.496.606 1.179.91 2.047.91.853 0 1.519-.304 2-.91.496-.623.744-1.548.744-2.777s-.248-2.147-.744-2.753c-.481-.623-1.147-.934-2-.934Zm11.759-7.256V24.74c0 .544.093.926.279 1.143.186.218.496.327.931.327.263 0 .48-.016.651-.047.17-.03.387-.093.651-.186l-.279 2.1c-.264.155-.597.272-1 .35a4.95 4.95 0 0 1-1.163.14c-1.132 0-1.961-.273-2.489-.817-.511-.56-.767-1.447-.767-2.66V11.557h3.186Zm9.683 17.01c-1.83 0-3.295-.53-4.396-1.587-1.101-1.073-1.651-2.567-1.651-4.48 0-1.276.248-2.364.744-3.267a5.124 5.124 0 0 1 2.07-2.076c.899-.483 1.923-.724 3.07-.724 1.178 0 2.178.241 3 .724a4.712 4.712 0 0 1 1.884 1.936c.434.81.651 1.735.651 2.777 0 .311-.008.607-.023.887a9.01 9.01 0 0 1-.07.746h-8.21c.125.902.435 1.58.931 2.03.511.436 1.17.654 1.977.654.682 0 1.232-.133 1.651-.397.418-.264.744-.63.977-1.097l2.535.98c-.373.918-1.024 1.634-1.954 2.147-.93.498-1.992.747-3.186.747Zm-.186-9.777c-1.504 0-2.411.832-2.721 2.497h5.233c-.094-.81-.357-1.424-.791-1.844-.419-.435-.993-.653-1.721-.653Zm12.91 9.777c-1.179 0-2.256-.21-3.233-.63-.961-.42-1.744-1.012-2.349-1.774l1.837-1.866c.372.56.869 1.018 1.489 1.376.62.358 1.356.537 2.209.537.605 0 1.085-.086 1.442-.257.372-.186.558-.474.558-.863a.856.856 0 0 0-.256-.63c-.17-.187-.511-.335-1.023-.443l-2.046-.42c-1.349-.28-2.311-.7-2.884-1.26-.558-.576-.838-1.315-.838-2.217 0-.638.186-1.237.559-1.797.387-.56.961-1.01 1.721-1.353.759-.358 1.705-.537 2.837-.537 2.357 0 4.047.724 5.07 2.17l-1.907 1.867a3.332 3.332 0 0 0-1.349-1.237 3.547 3.547 0 0 0-1.721-.443c-1.364 0-2.047.381-2.047 1.143 0 .25.109.467.326.654.217.17.612.319 1.186.443l2.372.49c1.148.233 1.969.63 2.465 1.19.497.544.745 1.206.745 1.983 0 1.12-.45 2.046-1.349 2.777-.884.731-2.155 1.097-3.814 1.097Z"/></svg>