<svg xmlns="http://www.w3.org/2000/svg" width="122" height="40" fill="none"><path fill="#D8D8DF" fill-opacity=".08" d="M11.096 18.599c.687-2.557 3.322-5.185 5.886-5.87l15.985-4.273c2.564-.685 4.085.832 3.398 3.39l-4.284 15.94c-.687 2.557-3.322 5.185-5.886 5.87L10.21 37.928c-2.564.686-4.085-.832-3.398-3.389l4.284-15.94Z"/><path fill="#D8D8DF" fill-opacity=".08" d="M4.688 12.208c.687-2.557 3.322-5.185 5.886-5.87l15.984-4.273c2.564-.685 4.086.833 3.399 3.39l-4.284 15.94c-.687 2.557-3.322 5.185-5.886 5.87L3.802 31.539c-2.564.685-4.085-.832-3.398-3.39l4.284-15.94Z"/><path fill="#fff" d="M51.216 26.187h5.498v2.146H48.55V12.117h2.667v14.07Zm6.84-4.34c0-1.291.265-2.435.796-3.43.545-.996 1.279-1.766 2.199-2.31a5.903 5.903 0 0 1 3.088-.84c1.014 0 1.895.202 2.644.606.764.39 1.373.88 1.825 1.47v-1.866h2.69v12.856h-2.69V26.42c-.452.607-1.068 1.112-1.848 1.517-.78.404-1.67.606-2.668.606a5.74 5.74 0 0 1-3.041-.84c-.92-.575-1.654-1.369-2.2-2.38-.53-1.026-.795-2.185-.795-3.476Zm10.552.046c0-.886-.187-1.656-.561-2.31-.36-.653-.835-1.15-1.428-1.493a3.773 3.773 0 0 0-1.918-.513c-.686 0-1.326.17-1.919.513-.592.327-1.076.817-1.45 1.47-.36.638-.538 1.4-.538 2.287 0 .886.179 1.664.538 2.333.374.669.858 1.182 1.45 1.54a3.856 3.856 0 0 0 1.919.513c.686 0 1.326-.17 1.918-.513.593-.342 1.069-.84 1.428-1.493.374-.67.561-1.447.561-2.334Zm17.799-6.416-7.908 18.9h-2.76l2.62-6.254-5.078-12.646h2.972l3.626 9.8 3.767-9.8h2.761Zm13.829 6.113c0 .482-.031.918-.094 1.307h-9.85c.078 1.026.46 1.85 1.146 2.473.687.622 1.529.933 2.527.933 1.435 0 2.45-.599 3.042-1.796h2.878c-.39 1.182-1.1 2.154-2.13 2.916-1.013.747-2.277 1.12-3.79 1.12-1.232 0-2.34-.272-3.322-.816a6.112 6.112 0 0 1-2.293-2.334c-.546-1.01-.819-2.177-.819-3.5 0-1.322.265-2.48.795-3.476.547-1.011 1.303-1.79 2.27-2.334.983-.544 2.106-.816 3.37-.816 1.216 0 2.3.264 3.252.793a5.593 5.593 0 0 1 2.222 2.24c.53.949.796 2.046.796 3.29Zm-2.785-.84c-.015-.98-.366-1.765-1.052-2.357-.687-.59-1.537-.886-2.55-.886-.921 0-1.709.295-2.364.886-.655.576-1.045 1.361-1.17 2.357h7.136Zm8.077-3.407a4.124 4.124 0 0 1 1.544-1.516c.655-.374 1.427-.56 2.316-.56v2.753h-.678c-1.045 0-1.841.265-2.387.793-.53.53-.795 1.447-.795 2.754v6.766h-2.667V15.477h2.667v1.866Zm10.992 11.2c-1.014 0-1.927-.178-2.738-.536-.795-.374-1.427-.871-1.895-1.494a3.778 3.778 0 0 1-.749-2.123h2.761c.047.544.304 1.003.772 1.377.484.358 1.084.536 1.802.536.749 0 1.326-.14 1.731-.42.421-.295.632-.668.632-1.12 0-.482-.234-.84-.702-1.073-.452-.233-1.178-.49-2.176-.77-.967-.264-1.755-.521-2.363-.77a4.242 4.242 0 0 1-1.591-1.143c-.437-.514-.655-1.19-.655-2.03 0-.685.203-1.307.608-1.867.406-.575.983-1.027 1.732-1.353.764-.327 1.637-.49 2.62-.49 1.466 0 2.644.373 3.533 1.12.905.73 1.388 1.734 1.451 3.01h-2.668c-.046-.576-.28-1.035-.701-1.377-.422-.342-.991-.513-1.708-.513-.702 0-1.241.132-1.615.396-.374.265-.561.615-.561 1.05 0 .343.124.63.374.864.249.233.554.42.912.56.359.124.89.288 1.591.49.936.249 1.701.505 2.293.77a4.148 4.148 0 0 1 1.568 1.12c.437.497.663 1.159.679 1.983 0 .731-.203 1.385-.609 1.96-.405.576-.983 1.027-1.731 1.353-.733.327-1.599.49-2.597.49Z"/></svg>