<svg xmlns="http://www.w3.org/2000/svg" width="177" height="34" fill="none"><g fill="#A8A8A8" clip-path="url(#a)"><path d="M23.71 16.711c0 1.466-.43 2.899-1.234 4.117a7.344 7.344 0 0 1-3.287 2.73 7.247 7.247 0 0 1-4.233.421 7.299 7.299 0 0 1-3.75-2.028A7.438 7.438 0 0 1 9.2 18.157a7.49 7.49 0 0 1 .417-4.282 7.393 7.393 0 0 1 2.698-3.326 7.265 7.265 0 0 1 4.07-1.248V.123c-3.241 0-6.41.972-9.104 2.794a16.537 16.537 0 0 0-6.035 7.44 16.757 16.757 0 0 0-.932 9.577 16.637 16.637 0 0 0 4.484 8.487 16.327 16.327 0 0 0 8.39 4.537 16.21 16.21 0 0 0 9.467-.943 16.428 16.428 0 0 0 7.353-6.106 16.715 16.715 0 0 0 2.762-9.21l-9.06.012z"/><path d="M31.56.003a16.306 16.306 0 0 0-11.673 4.645 16.69 16.69 0 0 0-5.018 11.63l9.068.17a7.46 7.46 0 0 1 2.193-5.15 7.289 7.289 0 0 1 5.128-2.126h.134a7.288 7.288 0 0 1 5.077 2.3 7.459 7.459 0 0 1 2.017 5.243 7.452 7.452 0 0 1-2.206 5.165 7.28 7.28 0 0 1-5.156 2.11l-.167 9.166h.305a16.287 16.287 0 0 0 11.63-4.749 16.673 16.673 0 0 0 4.904-11.677 16.68 16.68 0 0 0-4.694-11.766A16.294 16.294 0 0 0 31.56.003zm40.618 22.149a.842.842 0 0 1 .687.294l1.934 2.064a8.013 8.013 0 0 1-3.201 2.544 10.972 10.972 0 0 1-4.546.862 10.62 10.62 0 0 1-4.314-.832 9.237 9.237 0 0 1-3.24-2.29 10.093 10.093 0 0 1-2.041-3.464 13.099 13.099 0 0 1-.697-4.325 11.65 11.65 0 0 1 .813-4.403 10.237 10.237 0 0 1 2.273-3.454 10.24 10.24 0 0 1 3.482-2.26 12.062 12.062 0 0 1 4.488-.813c.753 0 1.504.072 2.244.215.66.14 1.307.337 1.934.587a9.23 9.23 0 0 1 1.683.9c.496.332.954.72 1.364 1.155l-1.654 2.241c-.108.14-.235.266-.377.372a.96.96 0 0 1-.61.176 1.1 1.1 0 0 1-.493-.117c-.154-.088-.319-.176-.493-.294l-.57-.362a4.432 4.432 0 0 0-.745-.372 6.519 6.519 0 0 0-.968-.284 6.821 6.821 0 0 0-1.344-.117 5.994 5.994 0 0 0-2.438.48 5.385 5.385 0 0 0-1.934 1.36 6.399 6.399 0 0 0-1.228 2.152 8.435 8.435 0 0 0-.445 2.838c-.02.997.13 1.99.445 2.936.259.789.666 1.52 1.199 2.152a5.24 5.24 0 0 0 1.78 1.331 5.256 5.256 0 0 0 2.176.45 9.38 9.38 0 0 0 1.219-.068 4.79 4.79 0 0 0 1.025-.225c.314-.108.615-.25.9-.421a5.86 5.86 0 0 0 .86-.636c.116-.096.243-.178.377-.245.14-.077.296-.12.455-.127zm27.141-5.147a11.519 11.519 0 0 1-.793 4.316 10.258 10.258 0 0 1-2.225 3.463 9.953 9.953 0 0 1-3.463 2.31 11.489 11.489 0 0 1-4.487.841 11.489 11.489 0 0 1-4.498-.841 10.086 10.086 0 0 1-3.448-2.285 10.226 10.226 0 0 1-2.259-3.489 12.167 12.167 0 0 1 0-8.64 10.189 10.189 0 0 1 2.235-3.454c.99-1 2.171-1.787 3.472-2.31 1.43-.573 2.959-.86 4.498-.84 1.537-.02 3.062.269 4.487.85a10.234 10.234 0 0 1 3.463 2.31 10.24 10.24 0 0 1 2.225 3.464 11.5 11.5 0 0 1 .793 4.305zm-5.02 0a9.3 9.3 0 0 0-.406-2.857 5.97 5.97 0 0 0-1.17-2.153 5.01 5.01 0 0 0-1.867-1.35 6.326 6.326 0 0 0-2.505-.47 6.47 6.47 0 0 0-2.534.47 5.01 5.01 0 0 0-1.867 1.35 5.97 5.97 0 0 0-1.17 2.153 9.294 9.294 0 0 0-.407 2.857 9.407 9.407 0 0 0 .406 2.867c.237.79.636 1.52 1.17 2.143a4.907 4.907 0 0 0 1.868 1.35 6.704 6.704 0 0 0 2.534.46 6.51 6.51 0 0 0 2.505-.46 4.907 4.907 0 0 0 1.867-1.35 5.891 5.891 0 0 0 1.17-2.143 9.402 9.402 0 0 0 .445-2.867h-.039zm20.641-6.34c-.121.2-.275.379-.455.528a1.035 1.035 0 0 1-.657.196 1.531 1.531 0 0 1-.716-.216l-.871-.48a7.95 7.95 0 0 0-1.112-.479 4.532 4.532 0 0 0-1.422-.205 3.038 3.038 0 0 0-2.05.587 2.03 2.03 0 0 0-.677 1.614 1.465 1.465 0 0 0 .406 1.067 3.54 3.54 0 0 0 1.064.734c.49.221.994.41 1.509.568.57.166 1.141.362 1.731.567.593.215 1.175.463 1.741.744a5.95 5.95 0 0 1 1.509 1.086 5.207 5.207 0 0 1 1.064 1.605c.287.727.426 1.506.406 2.29a7.469 7.469 0 0 1-.513 2.769 6.37 6.37 0 0 1-1.47 2.25 6.757 6.757 0 0 1-2.379 1.517 8.887 8.887 0 0 1-3.211.548 10.22 10.22 0 0 1-2.012-.205 11.891 11.891 0 0 1-3.734-1.468 7.616 7.616 0 0 1-1.47-1.194l1.451-2.32c.108-.177.262-.323.445-.42.192-.108.408-.166.629-.166.312.01.616.105.88.274.29.195.628.4.967.626a8.36 8.36 0 0 0 1.286.616c.55.195 1.13.288 1.712.274a3.183 3.183 0 0 0 2.07-.597 2.26 2.26 0 0 0 .745-1.879 1.795 1.795 0 0 0-.406-1.222 3.171 3.171 0 0 0-1.064-.774 10.052 10.052 0 0 0-1.509-.547 54.479 54.479 0 0 1-1.722-.52 13.948 13.948 0 0 1-1.731-.704 5.513 5.513 0 0 1-1.499-1.105 5.13 5.13 0 0 1-1.064-1.703 6.773 6.773 0 0 1-.406-2.515 6.044 6.044 0 0 1 .514-2.396 5.97 5.97 0 0 1 1.42-1.988 6.986 6.986 0 0 1 2.273-1.438 8.45 8.45 0 0 1 3.095-.538c.648 0 1.295.052 1.935.156a9.93 9.93 0 0 1 1.741.46c.536.19 1.054.43 1.547.715.464.276.895.604 1.287.978l-1.277 2.31zm16.761 8.415c.184.401.348.812.513 1.243.164-.44.338-.851.522-1.262.184-.411.377-.803.57-1.184l5.427-10.764a1.55 1.55 0 0 1 .299-.43.865.865 0 0 1 .339-.226 1.19 1.19 0 0 1 .426-.078h4.304v21.37h-4.324V15.402c0-.594.029-1.246.087-1.957l-5.6 10.998a1.82 1.82 0 0 1-.706.774 1.92 1.92 0 0 1-.967.264h-.668a1.92 1.92 0 0 1-.967-.264 1.82 1.82 0 0 1-.706-.774l-5.629-11.008c0 .343.067.675.087.979.019.303 0 .646 0 .93v12.3h-4.372V6.33h4.304c.146 0 .29.026.426.078a.854.854 0 0 1 .338.225c.123.126.225.271.3.431l5.436 10.862c.193.371.387.753.561 1.154zm22.749 8.621h-4.932V6.321h4.932V27.7zm19.519-5.549c.119 0 .236.02.348.059.127.055.242.135.339.235l1.934 2.064a8.01 8.01 0 0 1-3.201 2.544 10.972 10.972 0 0 1-4.546.862 10.621 10.621 0 0 1-4.314-.832 9.233 9.233 0 0 1-3.24-2.29 10.075 10.075 0 0 1-2.041-3.464 12.862 12.862 0 0 1-.706-4.345 11.63 11.63 0 0 1 .812-4.403 10.183 10.183 0 0 1 2.308-3.475 10.028 10.028 0 0 1 3.496-2.24 12.059 12.059 0 0 1 4.488-.812c1.44-.009 2.869.263 4.207.803.59.24 1.154.542 1.683.9.496.332.954.72 1.364 1.155l-1.654 2.24a1.96 1.96 0 0 1-.377.372.96.96 0 0 1-.61.176c-.171.001-.34-.04-.493-.117-.155-.088-.319-.176-.493-.293l-.571-.363a4.419 4.419 0 0 0-.745-.371 6.518 6.518 0 0 0-.967-.284 6.813 6.813 0 0 0-1.344-.117 5.995 5.995 0 0 0-2.438.479 5.38 5.38 0 0 0-1.934 1.36 6.4 6.4 0 0 0-1.229 2.153 8.443 8.443 0 0 0-.445 2.837 8.76 8.76 0 0 0 .445 2.936 6.5 6.5 0 0 0 1.2 2.153 5.23 5.23 0 0 0 1.779 1.33 5.262 5.262 0 0 0 2.177.45 9.32 9.32 0 0 0 1.218-.068 4.798 4.798 0 0 0 1.026-.225c.313-.108.615-.249.899-.42.306-.186.594-.399.861-.637a1.93 1.93 0 0 1 .377-.244c.121-.061.252-.098.387-.108z"/></g><defs><clipPath id="a"><path fill="#fff" d="M0 0h177v34H0z"/></clipPath></defs></svg>