<svg xmlns="http://www.w3.org/2000/svg" width="179" height="39" fill="none"><g fill="#B3B3B3" clip-path="url(#a)"><path d="M31.635 3.024H18.903c-4.37 0-8.343 1.8-11.228 4.697A15.965 15.965 0 0 0 3.008 19.01v14.67L0 36.508V19.01c0-5.23 2.126-9.983 5.552-13.427C8.977 2.139 13.703 0 18.903 0h12.732v3.024zm0 11.85H20.877a6.093 6.093 0 0 0-4.298 1.799 6.162 6.162 0 0 0-1.79 4.322v3.131l-3.006 2.518v-5.65a9.195 9.195 0 0 1 2.67-6.46 9.092 9.092 0 0 1 6.424-2.685h10.758v3.025zm0-5.925H19.89a10.996 10.996 0 0 0-7.763 3.248 11.121 11.121 0 0 0-3.23 7.806v9.053L5.89 31.574v-11.57a14.07 14.07 0 0 1 4.114-9.944c2.538-2.552 6.033-4.136 9.886-4.136h11.744V8.95zM14.79 35.975h12.73c4.37 0 8.344-1.8 11.229-4.697a15.964 15.964 0 0 0 4.667-11.289V5.32l3.008-2.828V19.99c0 5.23-2.126 9.983-5.551 13.428C37.448 36.862 32.72 39 27.52 39H14.789v-3.025z"/><path d="M14.79 30.05h11.744a10.997 10.997 0 0 0 7.761-3.248 11.122 11.122 0 0 0 3.23-7.805V9.941l3.008-2.517v11.573c0 3.873-1.575 7.393-4.114 9.944-2.539 2.55-6.036 4.134-9.887 4.134H14.79V30.05z"/><path d="M14.79 24.126h10.757a6.093 6.093 0 0 0 4.298-1.8 6.163 6.163 0 0 0 1.79-4.322v-3.13l3.006-2.519v5.65a9.193 9.193 0 0 1-2.67 6.46 9.09 9.09 0 0 1-6.424 2.685H14.789v-3.024zm46.907-9.23v5.636h9.813v3.96h-9.814v7.767H56.79V10.937h16.023v3.96H61.696zm13.811.974h4.725v16.387h-4.725V15.87zm2.362-2.282c-.869 0-1.575-.254-2.12-.762a2.48 2.48 0 0 1-.819-1.889c0-.75.273-1.38.819-1.888.545-.508 1.252-.762 2.12-.762.868 0 1.574.243 2.12.73.544.487.817 1.096.818 1.828 0 .792-.273 1.447-.819 1.965-.545.518-1.252.778-2.119.779v-.001zm16.658 2.04c2.019 0 3.65.61 4.89 1.828 1.243 1.218 1.864 3.026 1.864 5.421v9.382h-4.725v-8.65c0-1.3-.282-2.27-.848-2.91-.566-.639-1.383-.959-2.453-.959-1.192 0-2.14.37-2.847 1.111-.706.741-1.06 1.843-1.06 3.306v8.102h-4.725V15.87h4.513v1.92c.625-.69 1.403-1.224 2.332-1.6.93-.375 1.949-.562 3.059-.562zm17.596 0c2.525 0 4.463.605 5.816 1.813 1.352 1.207 2.029 3.03 2.03 5.467v9.35h-4.423v-2.04c-.889 1.524-2.544 2.287-4.967 2.287-1.251 0-2.337-.213-3.256-.64-.919-.426-1.621-1.015-2.105-1.766-.484-.752-.726-1.605-.726-2.56 0-1.522.571-2.72 1.712-3.593 1.14-.874 2.902-1.31 5.284-1.31h3.757c0-1.035-.313-1.832-.94-2.39-.626-.559-1.565-.838-2.817-.838-.869 0-1.733.139-2.559.411-.839.274-1.55.644-2.134 1.112l-1.697-3.321c.889-.629 1.953-1.116 3.194-1.46a14.268 14.268 0 0 1 3.831-.517v-.004zm-.362 13.677c.807 0 1.523-.188 2.15-.564.626-.375 1.071-.929 1.333-1.66v-1.676h-3.243c-1.938 0-2.907.64-2.906 1.92 0 .608.237 1.09.711 1.446.474.356 1.125.534 1.954.535l.001-.001zm22.382-13.676c2.019 0 3.649.609 4.891 1.827 1.241 1.218 1.862 3.026 1.863 5.421v9.382h-4.724v-8.65c0-1.3-.283-2.27-.849-2.91-.565-.639-1.383-.959-2.453-.959-1.191 0-2.14.37-2.846 1.111-.707.741-1.06 1.843-1.06 3.306v8.102h-4.725V15.87h4.512v1.92c.626-.69 1.404-1.224 2.333-1.6.929-.375 1.948-.562 3.059-.562h-.001zm19.081 16.873c-1.737 0-3.297-.36-4.679-1.08-1.383-.722-2.464-1.722-3.243-3.001-.777-1.28-1.166-2.732-1.166-4.356 0-1.625.389-3.076 1.167-4.354.779-1.278 1.86-2.278 3.243-3 1.383-.72 2.943-1.081 4.679-1.08 1.717 0 3.216.36 4.498 1.08a6.402 6.402 0 0 1 2.802 3.091l-3.666 1.98c-.848-1.502-2.069-2.253-3.664-2.253-1.231 0-2.251.406-3.059 1.217-.808.81-1.211 1.918-1.21 3.32 0 1.401.404 2.508 1.21 3.32.807.813 1.826 1.218 3.059 1.217 1.615 0 2.836-.751 3.664-2.254l3.666 2.01c-.585 1.299-1.519 2.314-2.802 3.046-1.283.733-2.782 1.099-4.498 1.097h-.001zM179 24.127c0 .061-.031.488-.092 1.28h-12.325c.222 1.015.746 1.818 1.574 2.406.827.589 1.857.883 3.089.883.849 0 1.601-.127 2.257-.38.655-.254 1.266-.655 1.832-1.204l2.514 2.741c-1.535 1.767-3.776 2.65-6.724 2.65-1.839 0-3.464-.36-4.876-1.08-1.412-.722-2.502-1.721-3.271-2.999-.768-1.28-1.151-2.732-1.151-4.356 0-1.604.379-3.05 1.136-4.34a7.97 7.97 0 0 1 3.119-3.018c1.323-.72 2.802-1.08 4.437-1.08 1.595 0 3.039.345 4.331 1.035a7.544 7.544 0 0 1 3.045 2.97c.736 1.29 1.105 2.787 1.105 4.492zm-8.451-4.902c-1.071 0-1.969.305-2.696.913-.727.61-1.171 1.442-1.333 2.5h8.026c-.161-1.037-.605-1.864-1.332-2.483-.727-.62-1.616-.93-2.665-.93z"/></g><defs><clipPath id="a"><path fill="#fff" d="M0 0h179v39H0z"/></clipPath></defs></svg>