<svg xmlns="http://www.w3.org/2000/svg" width="145" height="32" fill="none"><g fill="#B3B3B3" clip-path="url(#a)"><path d="M14.487 16.516H28.98V1.959H14.487v14.557z"/><path d="M0 31.066h14.493V16.51H0v14.556zm39.664-.274v-1.887l2.94-.333V3.579l-2.94-.314v-1.9H56.2c.89.01 1.78-.051 2.66-.183a107.05 107.05 0 0 0 3.192-.594l2.133 8.94-1.717.653A19.412 19.412 0 0 0 60.18 6.12c-1.505-1.994-3.835-2.99-6.99-2.99-.735 0-1.554.038-2.452.123-.897.085-1.54.216-2.002.242v11.043h2.6a4.973 4.973 0 0 0 3.557-1.169c.813-.777 1.223-1.959 1.223-3.592h1.95v11.618h-1.95c0-3.343-1.602-5.013-4.805-5.009h-2.543v12.18l2.738.333v1.894h-11.84zM64.795 13.76v-1.234l8.03-2.011-.208 1.645v16.66l1.88.287v1.685h-9.292v-1.685l2.041-.287V16.588a3.277 3.277 0 0 0-.513-2.11 2.802 2.802 0 0 0-1.938-.718zm1.95-9.358a4.25 4.25 0 0 1 1.164-2.135 2.73 2.73 0 0 1 1.951-.862 2.96 2.96 0 0 1 2.126.862 2.833 2.833 0 0 1 .898 2.135v.248a3.278 3.278 0 0 1-.95 2.319 2.999 2.999 0 0 1-2.236 1.005 2.507 2.507 0 0 1-2.179-1.195 3.424 3.424 0 0 1-.767-2.05l-.006-.327zm10.957 8.006 6.665-1.894c.25.456.468.93.65 1.417a16.2 16.2 0 0 1 .364 1.711l1.1-1.077a8.44 8.44 0 0 1 2.73-1.522 9.437 9.437 0 0 1 3.121-.536 5.75 5.75 0 0 1 4.318 1.764 6.118 6.118 0 0 1 1.71 4.434v12.114l1.95.288v1.684h-9.363v-1.684l1.996-.288V18.181a5.424 5.424 0 0 0-1.04-3.507 3.5 3.5 0 0 0-2.88-1.306 4.12 4.12 0 0 0-1.756.365c-.7.377-1.345.847-1.918 1.398v13.688l1.879.288v1.684H77.91v-1.684l2.003-.288V16.55a4.044 4.044 0 0 0-.468-2.28 2.054 2.054 0 0 0-1.743-.653v-1.208zm40.21-.784V6.08a3.202 3.202 0 0 0-.533-2.096 2.698 2.698 0 0 0-1.879-.719V1.96L123.543 0l-.163 1.64v24.672c-.063.738.086 1.48.43 2.135a2.34 2.34 0 0 0 1.697.784v1.228a15.974 15.974 0 0 0-3.557.333c-1.066.326-1.951.588-2.738.777a6.09 6.09 0 0 1-.89-1.306 7.958 7.958 0 0 1-.377-1.705 14.406 14.406 0 0 1-3.447 2.41 8.183 8.183 0 0 1-3.355.653 6.72 6.72 0 0 1-3.033-.563 6.755 6.755 0 0 1-2.468-1.86c-1.335-1.62-2-3.855-1.996-6.707a12.695 12.695 0 0 1 2.881-8.529 9.102 9.102 0 0 1 3.216-2.532 9.069 9.069 0 0 1 3.995-.864c.757-.022 1.516.033 2.262.164a7.6 7.6 0 0 1 1.912.894zm0 15.302V13.714a8.68 8.68 0 0 0-1.626-1.195 3.44 3.44 0 0 0-1.547-.326c-1.6 0-2.887.836-3.862 2.507a12.783 12.783 0 0 0-1.463 6.498c0 2.443.409 4.304 1.242 5.578a4.547 4.547 0 0 0 2.453 1.735 4.53 4.53 0 0 0 2.995-.175 8.182 8.182 0 0 0 1.808-1.41zm10.092-13.616V12.2l6.593-1.6a19.83 19.83 0 0 1 .969 3.115c.189 1.194.269 2.402.241 3.611.263-.874.585-1.73.962-2.56.334-.665.74-1.291 1.209-1.868 1.301-1.613 2.601-2.423 3.999-2.423a2.504 2.504 0 0 1 1.782.654 2.243 2.243 0 0 1 .715 1.697 2.287 2.287 0 0 1-.65 1.75 2.537 2.537 0 0 1-1.821.654 4.195 4.195 0 0 1-2.451-1.026 14.322 14.322 0 0 0-1.301 1.62c-.34.556-.633 1.139-.877 1.744a12.702 12.702 0 0 0-1.281 5.29v5.988l1.885.287v1.685h-9.317v-1.71l2.002-.288v-9.358a15.048 15.048 0 0 0-.409-4.063 2.707 2.707 0 0 0-.8-1.397 2.688 2.688 0 0 0-1.45-.692z"/></g><defs><clipPath id="a"><path fill="#fff" d="M0 0h145v32H0z"/></clipPath></defs></svg>