<svg xmlns="http://www.w3.org/2000/svg" width="199" height="33" fill="none"><g fill="#A8A8A8" fill-rule="evenodd" clip-path="url(#a)" clip-rule="evenodd"><path d="M8.045 14.131 24.171 4.73 16.095 0 0 9.413v18.9L8.045 33V14.131zm16.095 9.401-8.046 4.717v-9.437l16.089-9.394.028 18.82-8.071 4.74v-9.446zm166.251-4.822h3.9c-.499 1.231-1.908 2.032-3.561 2.032-2.38 0-3.931-1.716-3.931-4.232 0-2.547 1.579-4.27 3.931-4.27 1.596 0 3.008.867 3.569 2.213h4.529c-.655-3.701-4.021-6.311-8.138-6.311-4.829 0-8.311 3.526-8.311 8.369 0 4.842 3.552 8.35 8.355 8.35 4.914 0 8.27-3.698 8.27-8.914h-8.609l-.004 2.763zm-21.007-1.818-6.004-8.35h-3.787v15.903h4.189v-8.623l6.223 8.627h3.572V8.539h-4.193v8.353zm-19.407 7.553V8.535h-4.37v15.91h4.37zm-19.678-6.731-3.817-9.101h-1.486l-3.74 9.093-2.537-9.167h-4.649l4.914 15.91h3.809l2.95-7.673 3.013 7.673h3.806l4.832-15.91h-4.599l-2.496 9.175zM98.607 20.78c-2.389 0-4.135-1.812-4.135-4.282 0-2.485 1.747-4.279 4.136-4.279 2.388 0 4.116 1.792 4.116 4.28 0 2.487-1.73 4.281-4.117 4.281zm0 4.08c5.038 0 8.618-3.49 8.618-8.362s-3.58-8.357-8.617-8.357c-5.038 0-8.64 3.49-8.64 8.357 0 4.868 3.603 8.362 8.64 8.362zm-23.11-12.427c1.203 0 1.898.723 1.898 1.734 0 1.012-.695 1.735-1.898 1.735h-1.955v-3.469h1.955zm6.96 12.018-3.116-5.776c1.551-.943 2.494-2.529 2.494-4.5 0-3.335-2.454-5.63-5.828-5.63h-6.79v15.9h4.316V19.59h1.569l2.527 4.855 4.829.006zM51.86 18.71h3.892c-.488 1.231-1.907 2.032-3.552 2.032-2.378 0-3.94-1.716-3.94-4.232 0-2.547 1.591-4.27 3.94-4.27 1.596 0 2.996.867 3.572 2.213h4.53c-.669-3.706-4.035-6.312-8.14-6.312-4.84 0-8.326 3.526-8.326 8.369 0 4.842 3.552 8.35 8.364 8.35 4.906 0 8.261-3.698 8.261-8.914h-8.6v2.764z"/></g><defs><clipPath id="a"><path fill="#fff" d="M0 0h199v33H0z"/></clipPath></defs></svg>