<svg fill="#fff" viewBox="0 0 458.41 128.01" xmlns="http://www.w3.org/2000/svg" class="w-full h-auto"><path d="m101.08 89.8c2.47 5.69 6.64 11.43 11.36 16.75a63.77 63.77 0 0 0 15.62-38.02 63.9 63.9 0 0 0 -2.01-20.45c-29.15 11.17-31.19 27.44-24.98 41.72zm-51.97-76.43c-.62-3.33-1.63-7.11-2.64-10.53-.95.27-1.88.56-2.81.88a89.45 89.45 0 0 1 2.78 15.58c2.18 27.5-13.09 42.87-27.8 51.52a79.9 79.9 0 0 1 -17.18 7.28 63.53 63.53 0 0 0 2.29 8.02 99.42 99.42 0 0 0 15.57-6.83c33.79-18.88 32.69-50.41 29.79-65.92zm-9.4 94.38a82 82 0 0 1 -12.61 9.07 63.67 63.67 0 0 0 28.6 11.18c-5.01-10.65-7.52-19.96-8.32-28.05a77.6 77.6 0 0 1 -7.67 7.8zm24.85-51.48c14.78-13.63 36.26-21.52 53.74-25.98a63.98 63.98 0 0 0 -62.69-29.36c1.4 4.41 2.94 9.5 4.25 14.37 4.24 15.69 5.52 29.24 4.71 40.96z"></path><path d="m42.57 16.32c-.16-3.77-.95-7.9-1.85-11.53a64.1 64.1 0 0 0 -40.72 59.23c7.54-1.62 14.4-3.73 19.66-6.49 20.62-10.79 23.39-29.35 22.9-41.21z"></path><path d="m51.17 74.5c.42-.96.88-1.89 1.36-2.81 9.74-21.47 6.33-44.87 3.29-57.84a180.1 180.1 0 0 0 -3.53-12.38c-.95.18-1.89.38-2.83.6 1.11 3.88 2.24 8.3 3.09 12.6 8.18 41.79-9.08 64.78-27.39 77.14a86.8 86.8 0 0 1 -14.65 7.84 64.55 64.55 0 0 0 5.42 7.12c8.86-3.91 14.18-8.01 18.96-12.01a64.8 64.8 0 0 0 16.29-20.25zm49.77-18.39c6.3-5.03 15.3-8.92 23.99-11.82a68.03 68.03 0 0 0 -1.46-4c-41.88 12.53-48.01 33.77-43.17 52.19 2.65 10.09 8.82 19.9 15.12 27.91a64.3 64.3 0 0 0 6.99-4.54c-9.26-11.81-13.31-21.57-14.59-28.36-2.49-13.23 3.02-23.31 13.13-31.39z"></path><path d="m84.67 53.69c10.38-8.28 24.57-13.74 37.06-17.25-.46-.94-.94-1.87-1.44-2.78-37.05 9.64-53.49 24.97-59.02 40.85-.22.72-.44 1.43-.68 2.12a43.5 43.5 0 0 0 -1.5 15.2c.99 13.73 7.31 26.27 13.54 36.17 3.03-.41 6-1.03 8.9-1.85-11.18-16.89-13.91-29.03-14.05-38.23-.24-14.93 6.88-26.01 17.18-34.23zm-33.5 20.81c.48-.93.93-1.87 1.36-2.81-.48.92-.93 1.86-1.36 2.81z"></path><path d="m61.27 74.51c-.25.71-.47 1.41-.68 2.12.24-.7.46-1.41.68-2.12z"></path><path d="m148.72 26.38h20.89v5.42h-14.84v5.62h13.06v5.42h-13.06v5.82h15.04v5.42h-21.09zm25.28 13.93v-.08c0-7.87 5.93-14.32 14.44-14.32 5.22 0 8.35 1.74 10.92 4.27l-3.88 4.47c-2.14-1.94-4.31-3.13-7.08-3.13-4.67 0-8.03 3.88-8.03 8.63v.08c0 4.75 3.28 8.7 8.03 8.7 3.17 0 5.1-1.27 7.28-3.24l3.88 3.92c-2.85 3.05-6.01 4.95-11.36 4.95-8.15 0-14.2-6.29-14.2-14.24zm28.41 0v-.08c0-7.87 6.21-14.32 14.76-14.32s14.68 6.37 14.68 14.24v.08c0 7.87-6.21 14.32-14.76 14.32s-14.68-6.37-14.68-14.24zm23.07 0v-.08c0-4.75-3.48-8.7-8.39-8.7s-8.31 3.88-8.31 8.63v.08c0 4.75 3.48 8.7 8.39 8.7s8.31-3.88 8.31-8.63zm11.79-13.93h5.62l12.98 17.05v-17.05h6.01v27.7h-5.18l-13.41-17.61v17.61h-6.01v-27.7zm30.03 13.93v-.08c0-7.87 6.21-14.32 14.76-14.32s14.68 6.37 14.68 14.24v.08c0 7.87-6.21 14.32-14.76 14.32s-14.68-6.37-14.68-14.24zm23.07 0v-.08c0-4.75-3.48-8.7-8.39-8.7s-8.31 3.88-8.31 8.63v.08c0 4.75 3.48 8.7 8.39 8.7s8.31-3.88 8.31-8.63zm11.79-13.93h6.57l7.28 11.71 7.28-11.71h6.57v27.7h-6.05v-18.08l-7.79 11.83h-.16l-7.72-11.71v17.96h-5.97v-27.7zm34.62 0h6.09v27.7h-6.09zm11.79 13.93v-.08c0-7.87 5.93-14.32 14.44-14.32 5.22 0 8.35 1.74 10.92 4.27l-3.88 4.47c-2.14-1.94-4.31-3.13-7.08-3.13-4.67 0-8.03 3.88-8.03 8.63v.08c0 4.75 3.28 8.7 8.03 8.7 3.17 0 5.1-1.27 7.28-3.24l3.88 3.92c-2.85 3.05-6.01 4.95-11.36 4.95-8.15 0-14.2-6.29-14.2-14.24zm-199.85 22.66h10.8c8.7 0 14.72 5.97 14.72 13.77v.08c0 7.79-6.01 13.85-14.72 13.85h-10.8zm10.8 22.2c4.99 0 8.35-3.36 8.35-8.27v-.08c0-4.91-3.36-8.35-8.35-8.35h-4.71v16.7zm20.14-22.2h20.89v5.42h-14.84v5.62h13.06v5.42h-13.06v5.82h15.04v5.42h-21.09zm24.14 0h6.73l7.24 19.51 7.24-19.51h6.57l-11.2 27.89h-5.38zm32.05 0h20.89v5.42h-14.84v5.62h13.06v5.42h-13.06v5.82h15.04v5.42h-21.09zm26.51 0h6.09v22.16h13.81v5.54h-19.9zm21.68 13.93v-.08c0-7.87 6.21-14.32 14.76-14.32s14.68 6.37 14.68 14.24v.08c0 7.87-6.21 14.32-14.76 14.32s-14.68-6.37-14.68-14.24zm23.06 0v-.08c0-4.75-3.48-8.7-8.39-8.7s-8.31 3.88-8.31 8.63v.08c0 4.75 3.48 8.7 8.39 8.7s8.31-3.88 8.31-8.63zm11.8-13.93h11.32c6.61 0 10.6 3.92 10.6 9.58v.08c0 6.41-4.99 9.73-11.2 9.73h-4.63v8.31h-6.09zm10.92 13.97c3.05 0 4.83-1.82 4.83-4.19v-.08c0-2.73-1.9-4.19-4.95-4.19h-4.71v8.47h4.83zm15.51-13.97h6.57l7.28 11.71 7.28-11.71h6.57v27.7h-6.05v-18.08l-7.79 11.83h-.16l-7.72-11.71v17.96h-5.97v-27.7zm34.34 0h20.89v5.42h-14.84v5.62h13.06v5.42h-13.06v5.82h15.04v5.42h-21.09zm26.51 0h5.62l12.98 17.05v-17.05h6.01v27.7h-5.18l-13.41-17.61v17.61h-6.01v-27.7zm37.71 5.62h-8.43v-5.62h22.95v5.62h-8.43v22.08h-6.09zm-285.67 30.77h5.62l11.87 27.89h-6.37l-2.53-6.21h-11.71l-2.53 6.21h-6.21l11.87-27.89zm6.41 16.3-3.68-8.98-3.68 8.98zm13.93-.27v-15.83h6.09v15.67c0 4.51 2.25 6.84 5.97 6.84s5.97-2.25 5.97-6.65v-15.87h6.09v15.63c0 8.39-4.71 12.5-12.15 12.5s-11.99-4.15-11.99-12.3zm36.79-10.21h-8.43v-5.62h22.95v5.62h-8.43v22.08h-6.09zm19.2-5.62h6.09v10.96h11.24v-10.96h6.09v27.7h-6.09v-11.12h-11.24v11.12h-6.09zm28.84 13.93v-.08c0-7.87 6.21-14.32 14.76-14.32s14.68 6.37 14.68 14.24v.08c0 7.87-6.21 14.32-14.76 14.32s-14.68-6.37-14.68-14.24zm23.07 0v-.08c0-4.75-3.48-8.7-8.39-8.7s-8.31 3.88-8.31 8.62v.08c0 4.75 3.48 8.71 8.39 8.71s8.31-3.88 8.31-8.63zm11.79-13.93h12.66c3.52 0 6.25.99 8.07 2.81 1.54 1.54 2.37 3.72 2.37 6.33v.08c0 4.47-2.41 7.28-5.94 8.59l6.77 9.89h-7.12l-5.94-8.86h-4.79v8.86h-6.09v-27.7zm12.26 13.45c2.97 0 4.67-1.58 4.67-3.92v-.08c0-2.61-1.82-3.96-4.79-3.96h-6.05v7.95h6.17zm16.62-13.45h6.09v27.7h-6.09zm19.47 5.62h-8.43v-5.62h22.95v5.62h-8.43v22.08h-6.09zm26.98 11.16-10.64-16.78h7.12l6.61 11.12 6.73-11.12h6.92l-10.64 16.66v11.04h-6.09v-10.92z"></path><path d="m146.93.22h2.82v5.07h5.2v-5.07h2.82v12.81h-2.82v-5.14h-5.2v5.14h-2.82zm17 6.44v-.04c0-3.64 2.87-6.62 6.82-6.62s6.79 2.95 6.79 6.59v.04c0 3.64-2.87 6.62-6.82 6.62s-6.79-2.95-6.79-6.59zm10.67 0v-.04c0-2.2-1.61-4.02-3.88-4.02s-3.84 1.79-3.84 3.99v.04c0 2.2 1.61 4.02 3.88 4.02s3.84-1.79 3.84-3.99zm7.39-6.44h3.02l2.65 8.67 2.87-8.71h2.42l2.87 8.71 2.65-8.67h2.95l-4.37 12.9h-2.45l-2.89-8.38-2.89 8.38h-2.45l-4.38-12.9zm27.91-.09h2.6l5.49 12.9h-2.95l-1.17-2.87h-5.42l-1.17 2.87h-2.87zm2.97 7.54-1.7-4.15-1.7 4.15zm10.76-7.45h5.85c1.63 0 2.89.46 3.73 1.3.71.71 1.1 1.72 1.1 2.93v.04a3.98 3.98 0 0 1 -2.74 3.97l3.13 4.57h-3.29l-2.74-4.1h-2.21v4.1h-2.82v-12.81zm5.67 6.22c1.37 0 2.16-.73 2.16-1.81v-.04c0-1.21-.84-1.83-2.21-1.83h-2.8v3.68zm11.21-6.22h4.99c4.03 0 6.81 2.76 6.81 6.37v.04c0 3.6-2.78 6.4-6.81 6.4h-4.99zm5 10.26c2.31 0 3.86-1.56 3.86-3.82v-.04a3.67 3.67 0 0 0 -3.86-3.86h-2.18v7.72zm21.55-3.82v-.04a6.5 6.5 0 0 1 6.68-6.62 6.6 6.6 0 0 1 5.05 1.98l-1.79 2.07a4.71 4.71 0 0 0 -3.27-1.45c-2.16 0-3.71 1.79-3.71 3.99v.04c0 2.2 1.52 4.02 3.71 4.02 1.46 0 2.36-.59 3.37-1.5l1.79 1.81a6.55 6.55 0 0 1 -5.25 2.29 6.47 6.47 0 0 1 -6.57-6.59zm16.79 0v-.04c0-3.64 2.87-6.62 6.82-6.62s6.79 2.95 6.79 6.59v.04c0 3.64-2.87 6.62-6.82 6.62s-6.79-2.95-6.79-6.59zm10.67 0v-.04c0-2.2-1.61-4.02-3.88-4.02s-3.84 1.79-3.84 3.99v.04c0 2.2 1.61 4.02 3.88 4.02s3.84-1.79 3.84-3.99zm8.91.88v-7.32h2.82v7.25c0 2.09 1.04 3.17 2.76 3.17s2.76-1.04 2.76-3.07v-7.35h2.82v7.23c0 3.88-2.18 5.78-5.62 5.78s-5.54-1.92-5.54-5.69zm17.69-7.32h2.6l6 7.89v-7.89h2.78v12.81h-2.4l-6.2-8.14v8.14h-2.78zm21.1 2.6h-3.9v-2.6h10.61v2.6h-3.9v10.21h-2.82v-10.21zm16.13 5.16-4.92-7.76h3.29l3.05 5.14 3.11-5.14h3.2l-4.92 7.7v5.1h-2.82v-5.05z"></path></svg>