
<svg xmlns="http://www.w3.org/2000/svg" width="140" height="40" fill="none"><path fill="#D8D8DF" fill-opacity=".08" d="M0 16h7.953v8H0zm23.858 8h-7.953v-8h7.953z"/><path fill="#EBEBEB" d="m7.953 16 7.953-8v8l-7.953 8v-8Z"/><path fill="#D8D8DF" fill-opacity=".08" d="m15.906 24-7.952 8v-8l7.952-8v8ZM0 16 15.905 0v8l-7.952 8H0Z"/><path fill="#D8D8DF" fill-opacity=".08" d="M23.857 24 7.952 40v-8l7.953-8h7.952Z"/><path fill="#fff" d="M41.177 28.567c-1.252 0-2.466-.18-3.641-.537-1.16-.358-2.08-.832-2.76-1.423l1.043-2.357c.665.529 1.477.965 2.436 1.307a9.16 9.16 0 0 0 2.922.49c1.206 0 2.103-.195 2.69-.584.604-.389.906-.902.906-1.54 0-.466-.17-.847-.51-1.143-.325-.311-.743-.552-1.253-.723a28.062 28.062 0 0 0-2.088-.584c-1.237-.295-2.242-.59-3.015-.886a5.103 5.103 0 0 1-1.972-1.377c-.541-.638-.812-1.493-.812-2.567 0-.902.24-1.719.72-2.45.494-.746 1.229-1.337 2.203-1.773.99-.435 2.196-.653 3.618-.653.99 0 1.964.124 2.923.373.959.249 1.786.607 2.482 1.073l-.951 2.357a9.353 9.353 0 0 0-2.227-.957 8.282 8.282 0 0 0-2.25-.326c-1.19 0-2.08.202-2.667.606-.572.405-.858.941-.858 1.61 0 .467.162.848.487 1.144.34.295.765.529 1.275.7.51.17 1.206.365 2.088.583 1.206.28 2.196.576 2.969.887a4.88 4.88 0 0 1 1.971 1.376c.557.623.836 1.463.836 2.52 0 .903-.248 1.72-.743 2.45-.48.732-1.214 1.315-2.203 1.75-.99.436-2.196.654-3.619.654Zm9.276-12.694h2.9v12.46h-2.9v-12.46Zm1.461-2.053c-.525 0-.966-.163-1.322-.49a1.68 1.68 0 0 1-.533-1.26c0-.498.178-.91.533-1.237.356-.342.797-.513 1.322-.513.526 0 .967.163 1.323.49.355.311.533.708.533 1.19 0 .513-.178.949-.533 1.307-.34.342-.781.513-1.323.513Zm9.071 14.677a11.03 11.03 0 0 1-2.946-.397c-.958-.264-1.724-.599-2.296-1.003l1.114-2.217c.556.373 1.221.677 1.994.91a8.693 8.693 0 0 0 2.32.327c1.732 0 2.598-.46 2.598-1.377 0-.435-.224-.739-.673-.91-.433-.171-1.136-.334-2.11-.49-1.021-.155-1.856-.334-2.506-.537a3.962 3.962 0 0 1-1.67-1.05c-.464-.513-.696-1.22-.696-2.123 0-1.182.487-2.123 1.462-2.823.99-.716 2.32-1.074 3.99-1.074.85 0 1.7.101 2.55.304.851.186 1.547.443 2.088.77l-1.113 2.216c-1.052-.622-2.235-.933-3.549-.933-.85 0-1.5.132-1.948.397-.433.249-.65.583-.65 1.003 0 .467.232.801.696 1.003.48.187 1.214.366 2.203.537.99.156 1.802.334 2.436.537a3.727 3.727 0 0 1 1.624 1.026c.464.483.696 1.167.696 2.054 0 1.166-.503 2.1-1.508 2.8-1.005.7-2.374 1.05-4.106 1.05Zm19.482-12.624-5.8 13.464c-.54 1.353-1.198 2.302-1.97 2.846-.774.56-1.71.84-2.807.84a5.73 5.73 0 0 1-1.833-.303c-.603-.202-1.098-.482-1.484-.84l1.16-2.147a3.154 3.154 0 0 0 2.134.864c.51 0 .927-.133 1.252-.397.34-.264.65-.708.928-1.33l.209-.49-5.405-12.507h3.015l3.897 9.217 3.92-9.217h2.784Zm8.677-.14c1.207 0 2.281.265 3.225.794a5.683 5.683 0 0 1 2.25 2.24c.54.964.811 2.076.811 3.336 0 1.26-.27 2.38-.811 3.36a5.683 5.683 0 0 1-2.25 2.24c-.944.53-2.018.794-3.225.794-1.67 0-2.992-.56-3.966-1.68v6.043h-2.9V15.873h2.761v1.634a4.507 4.507 0 0 1 1.763-1.33 6.048 6.048 0 0 1 2.342-.444ZM88.82 26c1.067 0 1.94-.358 2.62-1.073.697-.716 1.045-1.657 1.045-2.824 0-1.166-.348-2.107-1.044-2.823-.68-.716-1.554-1.073-2.621-1.073a3.64 3.64 0 0 0-1.879.49 3.367 3.367 0 0 0-1.322 1.353c-.325.591-.487 1.276-.487 2.053 0 .778.162 1.463.487 2.054a3.53 3.53 0 0 0 1.322 1.376c.557.311 1.183.467 1.879.467Zm16.388-10.267c1.562 0 2.815.46 3.758 1.377.943.918 1.415 2.279 1.415 4.083v7.14h-2.9v-6.766c0-1.09-.255-1.906-.765-2.45-.51-.56-1.237-.84-2.18-.84-1.067 0-1.91.326-2.529.98-.618.637-.927 1.563-.927 2.776v6.3h-2.9V11.02h2.9v6.3a4.614 4.614 0 0 1 1.762-1.167c.712-.28 1.5-.42 2.366-.42Zm20.843.14v12.46h-2.76v-1.586a4.728 4.728 0 0 1-1.74 1.306 5.695 5.695 0 0 1-2.25.444c-1.654 0-2.961-.46-3.92-1.377-.943-.933-1.415-2.31-1.415-4.13v-7.117h2.9v6.72c0 1.12.247 1.96.742 2.52.51.545 1.229.817 2.157.817 1.036 0 1.856-.319 2.459-.957.618-.653.928-1.586.928-2.8v-6.3h2.899Zm7.623 12.624a11.02 11.02 0 0 1-2.945-.397c-.959-.264-1.725-.599-2.297-1.003l1.114-2.217c.556.373 1.221.677 1.994.91a8.697 8.697 0 0 0 2.32.327c1.732 0 2.598-.46 2.598-1.377 0-.435-.224-.739-.673-.91-.433-.171-1.136-.334-2.111-.49-1.02-.155-1.855-.334-2.505-.537a3.966 3.966 0 0 1-1.67-1.05c-.464-.513-.696-1.22-.696-2.123 0-1.182.487-2.123 1.462-2.823.989-.716 2.319-1.074 3.989-1.074.851 0 1.701.101 2.552.304.85.186 1.546.443 2.087.77l-1.113 2.216c-1.052-.622-2.235-.933-3.549-.933-.85 0-1.5.132-1.948.397-.433.249-.65.583-.65 1.003 0 .467.232.801.696 1.003.479.187 1.214.366 2.204.537.989.156 1.801.334 2.435.537a3.731 3.731 0 0 1 1.624 1.026c.464.483.696 1.167.696 2.054 0 1.166-.503 2.1-1.508 2.8-1.005.7-2.374 1.05-4.106 1.05Z"/></svg>
