<svg xmlns="http://www.w3.org/2000/svg" width="177" height="43" fill="none"><g fill="#A8A8A8" fill-rule="evenodd" clip-path="url(#a)" clip-rule="evenodd"><path d="m24.265 0 13.221 14.207-28.885-.02L24.265 0zM0 21.976 12.309 35.2l1.137-13.215L0 21.975zm42.743.031-.017.013L19.566 43l1.805-21.01 21.372.017zm130.179 2.983h-8.181c.304-1.625 1.618-3.49 4.334-3.49 2.886 0 3.833 1.929 3.847 3.49zm-4.653 10.172c2.582 0 5.254-.775 7.02-2.267l-1.733-2.852c-1.144 1.016-3.115 1.595-4.523 1.595-2.815 0-4.334-1.66-4.488-3.662h12.34l.079-1.017c.419-5.326-2.626-8.988-7.608-8.988-5.018 0-8.891 3.834-9.269 8.581-.415 5.252 3.131 8.61 8.183 8.61h-.001zm-13.366 0c1.787 0 3.025-.47 3.727-1.05l-.672-3.29c-.259.276-.895.512-1.551.512-.96 0-1.448-.78-1.369-1.831l1.374-17.364h-4.364l-1.46 18.518c-.237 2.944 1.256 4.504 4.316 4.504l-.001.001zm-16.774-4.34c-2.507 0-4.089-1.693-3.87-4.505.219-2.813 2.075-4.512 4.583-4.512 1.413 0 2.93.78 3.602 1.832l-.417 5.32c-.841 1.05-2.483 1.864-3.897 1.864l-.001.001zm-1.689 10.579c4.089 0 9.09-1.526 9.58-7.732l1.208-15.286h-4.368l-.164 2.1c-1.204-1.698-2.96-2.513-4.955-2.513-4.198 0-7.555 2.985-7.977 8.346-.432 5.459 2.538 8.305 6.661 8.305 2.059 0 3.924-.918 5.353-2.543l-.125 1.59c-.262 3.324-2.84 4.202-4.936 4.202-2.059 0-3.8-.569-5.03-1.992l-2.204 3.083c1.955 1.797 4.14 2.44 6.957 2.44zm-10.575-6.647.913-11.561c.252-3.186-1.34-5.221-5.019-5.221-2.682 0-4.846 1.29-6.005 2.513l.164-2.1h-4.364l-1.293 16.37h4.364l.871-11.05c.83-.953 2.214-1.901 3.931-1.901 1.856 0 3 .78 2.821 3.048l-.782 9.902h4.399zm-27.805-3.42c-2.513 0-4.075-1.934-3.85-4.782.218-2.813 2.089-4.747 4.597-4.747 1.448 0 2.96.81 3.597 1.9l-.456 5.762c-.802 1.085-2.445 1.866-3.888 1.866zm7.872 3.42 1.294-16.371h-4.399l-.169 2.1c-1.205-1.698-2.96-2.513-4.921-2.513-4.225 0-7.613 3.26-8.03 8.582-.432 5.491 2.519 8.61 6.673 8.61 2.03 0 3.886-.885 5.32-2.509l-.165 2.102h4.397zm-20.137 0 1.289-16.371h-4.359l-1.294 16.372h4.364zm-.77-18.139c1.441 0 2.706-1.149 2.815-2.572.11-1.423-.965-2.544-2.408-2.544a2.86 2.86 0 0 0-1.886.745 2.783 2.783 0 0 0-.896 1.8 2.353 2.353 0 0 0 2.374 2.571zm-11.6 18.14.849-10.816c.807-1.05 2.792-1.865 4.24-1.865.398-.007.796.027 1.186.103l.333-4.207c-2.06 0-4.179 1.188-5.498 2.61l.174-2.199H70.35l-1.289 16.373h4.364zm-11.717 0 1.448-18.371h6.666l.334-4.241H51.875l-.334 4.24h6.698l-1.448 18.372h4.917z"/></g><defs><clipPath id="a"><path fill="#fff" d="M0 0h177v43H0z"/></clipPath></defs></svg>