<svg width="50" height="50" viewBox="0 0 50 50" fill="none" xmlns="http://www.w3.org/2000/svg">
<g clip-path="url(#clip0_2045_8233)">
<path d="M39.0625 10.9255H10.9375C8.34867 10.9255 6.25 13.0219 6.25 15.6079V37.4589C6.25 40.0449 8.34867 42.1413 10.9375 42.1413H39.0625C41.6513 42.1413 43.75 40.0449 43.75 37.4589V15.6079C43.75 13.0219 41.6513 10.9255 39.0625 10.9255Z" stroke="#121212" stroke-width="1.66667"/>
<path d="M32.0312 28.0941H17.9688C15.8114 28.0941 14.0625 29.8411 14.0625 31.9961C14.0625 34.1511 15.8114 35.898 17.9688 35.898H32.0312C34.1886 35.898 35.9375 34.1511 35.9375 31.9961C35.9375 29.8411 34.1886 28.0941 32.0312 28.0941Z" stroke="#121212" stroke-width="1.66667"/>
<path d="M28.9062 28.0941V35.898" stroke="#121212" stroke-width="1.66667"/>
<path d="M21.0938 28.0941V35.898" stroke="#121212" stroke-width="1.66667"/>
<path d="M25 10.9255V3.12158" stroke="#121212" stroke-width="1.66667"/>
<path d="M16.4062 23.4119C17.7007 23.4119 18.75 22.3637 18.75 21.0707C18.75 19.7777 17.7007 18.7295 16.4062 18.7295C15.1118 18.7295 14.0625 19.7777 14.0625 21.0707C14.0625 22.3637 15.1118 23.4119 16.4062 23.4119Z" stroke="#121212" stroke-width="1.66667"/>
<path d="M33.5938 23.4119C34.8882 23.4119 35.9375 22.3637 35.9375 21.0707C35.9375 19.7777 34.8882 18.7295 33.5938 18.7295C32.2993 18.7295 31.25 19.7777 31.25 21.0707C31.25 22.3637 32.2993 23.4119 33.5938 23.4119Z" stroke="#121212" stroke-width="1.66667"/>
</g>
<defs>
<clipPath id="clip0_2045_8233">
<rect width="50" height="49.9452" fill="white"/>
</clipPath>
</defs>
</svg>
