<svg width="50" height="50" viewBox="0 0 50 50" fill="none" xmlns="http://www.w3.org/2000/svg">
<path d="M24.9993 37.5C22.2232 38.7965 18.5766 39.5833 14.5827 39.5833C12.362 39.5833 10.2487 39.3401 8.33268 38.9012C7.10101 38.6191 6.48517 38.4781 5.74723 37.8942C5.32636 37.5611 4.80107 36.9019 4.57042 36.4173C4.16602 35.5677 4.16602 34.7437 4.16602 33.0959V10.6541C4.16602 8.60234 6.33275 7.19314 8.33268 7.65122C10.2487 8.09007 12.362 8.33329 14.5827 8.33329C18.5766 8.33329 22.2232 7.54655 24.9993 6.24996C27.7755 4.95337 31.4221 4.16663 35.416 4.16663C37.6367 4.16663 39.75 4.40985 41.666 4.8487C42.8977 5.13081 43.5135 5.27186 44.2515 5.85576C44.6723 6.18879 45.1976 6.84799 45.4283 7.33259C45.8327 8.18226 45.8327 9.0062 45.8327 10.6541V33.0959C45.8327 35.1476 43.6659 36.5568 41.666 36.0987C39.75 35.6598 37.6367 35.4166 35.416 35.4166C31.4221 35.4166 27.7755 36.2034 24.9993 37.5Z" stroke="#121212" stroke-width="2"/>
<path d="M4.16602 43.75C6.94214 45.0466 10.5888 45.8334 14.5827 45.8334C18.5766 45.8334 22.2232 45.0466 24.9993 43.75C27.7755 42.4535 31.4221 41.6667 35.416 41.6667C39.4099 41.6667 43.0566 42.4535 45.8327 43.75" stroke="#121212" stroke-width="2" stroke-linecap="round"/>
<path d="M30.2077 21.875C30.2077 24.7514 27.8758 27.0833 24.9993 27.0833C22.1229 27.0833 19.791 24.7514 19.791 21.875C19.791 18.9985 22.1229 16.6666 24.9993 16.6666C27.8758 16.6666 30.2077 18.9985 30.2077 21.875Z" stroke="#121212" stroke-width="2"/>
<path d="M11.457 23.9584L11.457 23.9771" stroke="#121212" stroke-width="2" stroke-linecap="round" stroke-linejoin="round"/>
<path d="M38.541 19.7754L38.541 19.7941" stroke="#121212" stroke-width="2" stroke-linecap="round" stroke-linejoin="round"/>
</svg>
