<svg width="50" height="50" viewBox="0 0 50 50" fill="none" xmlns="http://www.w3.org/2000/svg">
<g clip-path="url(#clip0_2045_8267)">
<path d="M10.6367 39.3201C8.83984 37.5252 10.0313 33.754 9.11719 31.5455C8.16797 29.2648 4.6875 27.4113 4.6875 24.9726C4.6875 22.5339 8.16797 20.6804 9.11719 18.3997C10.0313 16.1932 8.83984 12.42 10.6367 10.6251C12.4336 8.83016 16.2109 10.0203 18.4199 9.1072C20.7129 8.15902 22.5586 4.68237 25 4.68237C27.4414 4.68237 29.2969 8.15902 31.5801 9.1072C33.791 10.0203 37.5664 8.83016 39.3633 10.6251C41.1602 12.42 39.9688 16.1912 40.8828 18.3997C41.832 20.6902 45.3125 22.5339 45.3125 24.9726C45.3125 27.4113 41.832 29.2648 40.8828 31.5455C39.9688 33.754 41.1602 37.5252 39.3633 39.3201C37.5664 41.115 33.791 39.9249 31.5801 40.838C29.2969 41.7862 27.4414 45.2628 25 45.2628C22.5586 45.2628 20.7031 41.7862 18.4199 40.838C16.2109 39.9249 12.4336 41.115 10.6367 39.3201Z" stroke="#121212" stroke-width="1.66667"/>
<path d="M25 37.4588C26.2944 37.4588 27.3438 36.4107 27.3438 35.1177C27.3438 33.8247 26.2944 32.7765 25 32.7765C23.7056 32.7765 22.6562 33.8247 22.6562 35.1177C22.6562 36.4107 23.7056 37.4588 25 37.4588Z" stroke="#121212" stroke-width="1.66667"/>
<path d="M25 28.0942V26.5334C28.4512 26.5334 31.25 24.0869 31.25 21.0707C31.25 18.0544 28.4512 15.6079 25 15.6079C21.5488 15.6079 18.75 18.0544 18.75 21.0707V21.8511" stroke="#121212" stroke-width="1.66667"/>
</g>
<defs>
<clipPath id="clip0_2045_8267">
<rect width="50" height="49.9452" fill="white"/>
</clipPath>
</defs>
</svg>
