<svg width="50" height="50" viewBox="0 0 50 50" fill="none" xmlns="http://www.w3.org/2000/svg">
<path d="M37.35 5.99341C39.1137 5.99341 40.8052 6.69326 42.0523 7.93901C43.2994 9.18476 44 10.8744 44 12.6361C44 14.3979 43.2994 16.0875 42.0523 17.3332C40.8052 18.579 39.1137 19.2788 37.35 19.2788H30.7V12.6361C30.7 10.8744 31.4006 9.18476 32.6478 7.93901C33.8949 6.69326 35.5863 5.99341 37.35 5.99341Z" stroke="#121212" stroke-width="2.432" stroke-linecap="round" stroke-linejoin="round"/>
<path d="M19.3 19.2788H12.65C10.8863 19.2788 9.19485 18.579 7.94773 17.3332C6.70061 16.0875 5.99999 14.3979 5.99999 12.6361C5.99999 10.8743 6.70061 9.18475 7.94773 7.939C9.19485 6.69325 10.8863 5.9934 12.65 5.9934C14.4137 5.9934 16.1051 6.69325 17.3522 7.939C18.5994 9.18475 19.3 10.8743 19.3 12.6361V19.2788Z" stroke="#121212" stroke-width="2.432" stroke-linecap="round" stroke-linejoin="round"/>
<path d="M30.7 30.6663H37.35C39.1137 30.6663 40.8052 31.3661 42.0523 32.6119C43.2994 33.8576 44 35.5472 44 37.309C44 39.0707 43.2994 40.7603 42.0523 42.0061C40.8052 43.2518 39.1137 43.9517 37.35 43.9517C35.5863 43.9517 33.8949 43.2518 32.6478 42.0061C31.4006 40.7603 30.7 39.0707 30.7 37.309V30.6663Z" stroke="#121212" stroke-width="2.432" stroke-linecap="round" stroke-linejoin="round"/>
<path d="M12.65 43.9517C10.8863 43.9517 9.19485 43.2518 7.94773 42.0061C6.70061 40.7603 5.99999 39.0707 5.99999 37.309C5.99999 35.5472 6.70061 33.8576 7.94773 32.6119C9.19485 31.3661 10.8863 30.6662 12.65 30.6662H19.3V37.309C19.3 39.0707 18.5994 40.7603 17.3522 42.0061C16.1051 43.2518 14.4137 43.9517 12.65 43.9517Z" stroke="#121212" stroke-width="2.432" stroke-linecap="round" stroke-linejoin="round"/>
<path d="M30.7 19.2788H19.3V30.6663H30.7V19.2788Z" stroke="#121212" stroke-width="2.432" stroke-linecap="round" stroke-linejoin="round"/>
</svg>
