<svg width="50" height="50" viewBox="0 0 50 50" fill="none" xmlns="http://www.w3.org/2000/svg">
<path d="M24.998 32.9639C29.4163 32.9639 32.998 29.3861 32.998 24.9727C32.998 20.5592 29.4163 16.9814 24.998 16.9814C20.5798 16.9814 16.998 20.5592 16.998 24.9727C16.998 29.3861 20.5798 32.9639 24.998 32.9639Z" stroke="#121212" stroke-width="2" stroke-linecap="round" stroke-linejoin="round"/>
<path d="M25.4339 41.2278C25.1504 41.2278 24.8647 41.2278 24.5876 41.2278L17.806 44.9508C15.166 44.0774 12.7173 42.7218 10.5885 40.9551L10.5631 33.4634C10.4129 33.2303 10.2711 32.9951 10.1399 32.7537L3.39641 28.9766C2.86526 26.3343 2.86526 23.6152 3.39641 20.9729L10.1336 17.2062C10.2711 16.9669 10.4129 16.7297 10.5568 16.4966L10.5906 9.00481C12.7175 7.23309 15.1655 5.87251 17.806 4.99463L24.577 8.71762C24.8605 8.71762 25.1462 8.71762 25.4233 8.71762L32.1944 4.99463C34.8344 5.86802 37.283 7.22361 39.4118 8.99024L39.4372 16.482C39.5875 16.7151 39.7292 16.9503 39.8604 17.1917L46.5997 20.9667C47.1308 23.609 47.1308 26.3281 46.5997 28.9704L39.8625 32.7371C39.725 32.9764 39.5832 33.2136 39.4393 33.4467L39.4055 40.9385C37.2801 42.7105 34.8335 44.0718 32.1944 44.9508L25.4339 41.2278Z" stroke="#121212" stroke-width="2" stroke-linecap="round" stroke-linejoin="round"/>
</svg>
