<svg width="68" height="68" viewBox="0 0 68 68" fill="none" xmlns="http://www.w3.org/2000/svg">
<g clip-path="url(#clip0_2045_8438)">
<path d="M24.2746 10.6796C11.1157 16.0186 3.95327 29.1137 8.31575 39.8656C12.223 49.4956 23.9908 54.1176 36.0811 50.9983C36.9259 50.8478 38.127 50.7705 38.6652 51.3259C39.1484 51.8318 39.4446 52.7959 39.6181 53.4576L40.1199 55.6309C40.275 56.27 40.6054 58.1978 42.7305 56.0753C44.8612 53.9551 53.1757 42.3294 55.8359 34.4968C57.7318 29.3257 57.7995 24.7876 56.0578 20.4948C51.6953 9.74287 37.4335 5.34047 24.2746 10.6796ZM25.4373 40.3647L20.691 42.2905C20.0047 42.5689 19.2061 42.228 18.9268 41.5397L15.0519 31.9894C14.7718 31.2991 15.1071 30.4981 15.7934 30.2197C16.4856 29.9388 17.2782 30.2821 17.5583 30.9724L20.9216 39.2616L24.4147 37.8443C25.107 37.5634 25.896 37.9035 26.1777 38.5978C26.4569 39.2861 26.1276 40.0846 25.4373 40.3647ZM29.8319 37.1151C30.1112 37.8034 29.7818 38.6019 29.0876 38.8836C28.4013 39.1621 27.6087 38.8188 27.3294 38.1305L23.4545 28.5801C23.1744 27.8898 23.5037 27.0913 24.196 26.8104C24.8843 26.5312 25.6769 26.8745 25.9569 27.5647L29.8319 37.1151ZM41.2522 32.4815C41.4717 33.0225 41.3201 33.6424 40.8771 34.0237C40.7667 34.1171 40.6376 34.1927 40.5063 34.246C40.0865 34.4163 39.655 34.3805 39.2884 34.1563L31.7345 29.488L34.1219 35.3722C34.4012 36.0605 34.0778 36.8566 33.3776 37.1407C32.6893 37.4199 31.9007 37.075 31.6214 36.3867L27.7473 26.8383C27.5277 26.2972 27.6773 25.6782 28.1192 25.2997C28.22 25.2055 28.3631 25.1243 28.4785 25.0775C28.8664 24.9201 29.3092 24.9837 29.6698 25.1872L37.2719 29.8661L34.8708 23.948C34.5907 23.2578 34.92 22.4592 35.6123 22.1784C36.2986 21.8999 37.0972 22.2408 37.3772 22.9311L41.2522 32.4815ZM46.4712 23.3326C47.1654 23.051 47.956 23.3951 48.2369 24.0873C48.517 24.7776 48.1896 25.5753 47.4954 25.857L44.0043 27.2735L44.9179 29.5253L48.409 28.1088C49.1033 27.8271 49.8923 28.1673 50.174 28.8615C50.4533 29.5498 50.1259 30.3475 49.4317 30.6292L44.6853 32.555C43.999 32.8335 43.2064 32.4901 42.9271 31.8019L39.0522 22.2515C38.7721 21.5612 39.1014 20.7627 39.7937 20.4818L44.54 18.556C45.2283 18.2768 46.0189 18.6209 46.299 19.3111C46.5823 20.0094 46.2517 20.7991 45.5575 21.0808L42.0664 22.4973L42.98 24.7491L46.4712 23.3326Z" fill="#4CAF50"/>
</g>
<defs>
<clipPath id="clip0_2045_8438">
<rect width="51.5221" height="51.5221" fill="white" transform="translate(0 19.3708) rotate(-22.0844)"/>
</clipPath>
</defs>
</svg>
