<svg width="50" height="50" viewBox="0 0 50 50" fill="none" xmlns="http://www.w3.org/2000/svg">
<path d="M28.3703 44.5145C27.4668 45.3605 26.2591 45.8334 25.0023 45.8334C23.7455 45.8334 22.5379 45.3605 21.6343 44.5145C13.3605 36.7208 2.27242 28.0144 7.67973 15.3743C10.6034 8.53993 17.6215 4.16669 25.0023 4.16669C32.3831 4.16669 39.4012 8.53993 42.3249 15.3743C47.7254 27.9985 36.6646 36.7477 28.3703 44.5145Z" stroke="#121212" stroke-width="2"/>
<path d="M32.2923 22.9167C32.2923 26.9437 29.0277 30.2083 25.0007 30.2083C20.9736 30.2083 17.709 26.9437 17.709 22.9167C17.709 18.8896 20.9736 15.625 25.0007 15.625C29.0277 15.625 32.2923 18.8896 32.2923 22.9167Z" stroke="#121212" stroke-width="2"/>
</svg>
