<svg width="50" height="50" viewBox="0 0 50 50" fill="none" xmlns="http://www.w3.org/2000/svg">
<g clip-path="url(#clip0_2045_8282)">
<path d="M18.75 34.3373H6.25C5.8356 34.3373 5.43817 34.1729 5.14515 33.8802C4.85212 33.5875 4.6875 33.1905 4.6875 32.7765V20.2902C4.6875 16.5647 6.16908 12.9918 8.80631 10.3575C11.4435 7.72312 15.0204 6.24316 18.75 6.24316C22.4796 6.24316 26.0565 7.72312 28.6937 10.3575C31.3309 12.9918 32.8125 16.5647 32.8125 20.2902C32.8125 24.0158 31.3309 27.5887 28.6937 30.223C26.0565 32.8574 22.4796 34.3373 18.75 34.3373Z" stroke="#121212" stroke-width="1.66667"/>
<path d="M17.9883 34.3372C18.9578 37.0765 20.7539 39.4481 23.129 41.1253C25.5041 42.8024 28.3414 43.7027 31.25 43.702H43.75C44.1644 43.702 44.5618 43.5375 44.8549 43.2448C45.1479 42.9521 45.3125 42.5551 45.3125 42.1412V29.6549C45.3124 26.0625 43.9345 22.6067 41.462 19.998C38.9895 17.3892 35.6105 15.8259 32.0195 15.6293" stroke="#121212" stroke-width="1.66667"/>
</g>
<defs>
<clipPath id="clip0_2045_8282">
<rect width="50" height="49.9452" fill="white"/>
</clipPath>
</defs>
</svg>
