<svg width="42" height="41" viewBox="0 0 42 41" fill="none" xmlns="http://www.w3.org/2000/svg">
<path fill-rule="evenodd" clip-rule="evenodd" d="M34.5243 6.54005C34.4449 6.71935 34.3783 6.90728 34.3258 7.10295C33.7965 9.07859 34.917 11.0954 36.8286 11.6076C38.7402 12.1198 40.7189 10.9335 41.2483 8.95782C41.7777 6.98217 40.6572 4.96537 38.7456 4.45316C37.8938 4.22493 37.0287 4.33394 36.2844 4.69977L27.9099 -4.465e-05L21.0625 12.5597C16.6621 11.6956 12.4128 12.0069 8.93358 13.2633C8.32719 12.1965 7.32606 11.3705 6.06792 11.0334C3.51914 10.3505 0.880754 11.9323 0.174925 14.5665C-0.316275 16.3996 0.257911 18.2594 1.51156 19.4511C1.25309 19.9916 1.04284 20.5573 0.884893 21.1468C-1.05614 28.3908 5.63513 36.4778 15.8303 39.2096C26.0254 41.9413 35.8637 38.2834 37.8047 31.0394C37.9627 30.4499 38.0635 29.8549 38.1099 29.2576C39.7914 28.8524 41.2185 27.5289 41.7097 25.6957C42.4156 23.0615 40.9216 20.3724 38.3728 19.6895C37.1146 19.3524 35.8347 19.5671 34.7761 20.1878C32.1778 17.107 28.2271 14.541 23.4682 13.1473L28.8139 3.34184L34.5243 6.54005ZM10.9491 25.1215C12.8607 25.6337 14.8395 24.4473 15.3688 22.4717C15.8982 20.4961 14.7777 18.4793 12.8661 17.967C10.9545 17.4548 8.97574 18.6412 8.44637 20.6168C7.917 22.5925 9.0375 24.6093 10.9491 25.1215ZM27.1015 29.4495C29.0131 29.9617 30.9919 28.7754 31.5213 26.7997C32.0506 24.8241 30.9301 22.8073 29.0185 22.2951C27.107 21.7829 25.1282 22.9692 24.5988 24.9449C24.0694 26.9205 25.1899 28.9373 27.1015 29.4495ZM10.5769 29.0704C10.1446 28.5631 9.38861 28.5192 8.88833 28.9724C8.38806 29.4257 8.33296 30.2044 8.76525 30.7117C10.8125 33.1144 13.6834 34.8108 16.7862 35.6421C19.8889 36.4735 23.2234 36.4399 26.1976 35.3827C26.8257 35.1595 27.1673 34.4576 26.9607 33.8149C26.7541 33.1723 26.0774 32.8323 25.4494 33.0555C22.9342 33.9495 20.0817 33.9691 17.4252 33.2573C15.8498 32.8352 14.3433 32.1558 13.017 31.249C12.1068 30.6267 11.2815 29.8973 10.5769 29.0704Z" fill="#FC471E"/>
</svg>
