<svg width="50" height="50" viewBox="0 0 50 50" fill="none" xmlns="http://www.w3.org/2000/svg">
<g clip-path="url(#clip0_2045_7034)">
<path d="M38.9126 21.2993C44.0303 16.1873 44.3502 10.106 44.1902 7.39453C44.1636 6.98126 43.9873 6.59182 43.6941 6.29899C43.401 6.00616 43.0111 5.82999 42.5974 5.80341C39.8828 5.64365 33.7992 5.9589 28.6772 11.0752L15.2198 24.5178L25.4552 34.7419L38.9126 21.2993Z" stroke="#121212" stroke-width="2" stroke-linecap="round" stroke-linejoin="round"/>
<path d="M27.2198 12.7659H13.584C13.1153 12.7661 12.6659 12.9462 12.3343 13.2667L4.73674 20.6194C4.50477 20.8444 4.34208 21.1274 4.26687 21.4368C4.19166 21.7461 4.20691 22.0697 4.3109 22.3711C4.41489 22.6726 4.60352 22.9401 4.85568 23.1437C5.10785 23.3474 5.41359 23.479 5.73869 23.5241L14.8337 24.7527" stroke="#121212" stroke-width="2" stroke-linecap="round" stroke-linejoin="round"/>
<path d="M37.2198 22.7549V36.3758C37.2196 36.8439 37.0393 37.2929 36.7184 37.6241L29.3577 45.2133C29.1325 45.445 28.8491 45.6076 28.5394 45.6827C28.2297 45.7578 27.9058 45.7426 27.604 45.6387C27.3022 45.5348 27.0344 45.3464 26.8306 45.0945C26.6267 44.8426 26.4949 44.5372 26.4498 44.2125L25.2198 35.1275" stroke="#121212" stroke-width="2" stroke-linecap="round" stroke-linejoin="round"/>
<path d="M18.2198 37.5408C17.3687 39.4061 14.5006 43.732 6.21985 43.732C6.21985 35.4602 10.5505 32.5954 12.4178 31.7451" stroke="#121212" stroke-width="2" stroke-linecap="round" stroke-linejoin="round"/>
</g>
<defs>
<clipPath id="clip0_2045_7034">
<rect width="50" height="49.9452" fill="white"/>
</clipPath>
</defs>
</svg>
