<svg preserveAspectRatio="none" width="1915" height="41" viewBox="0 0 1915 41" fill="none" xmlns="http://www.w3.org/2000/svg">
<path d="M1857.8 0C1884.17 0.000159302 1906.52 17.2047 1914.24 41H0C7.71682 17.2047 30.0648 0.000134411 56.4316 0C79.471 0 99.4423 13.1361 109.265 32.3271C119.229 13.1215 139.296 0 162.427 0C185.558 9.81001e-05 205.624 13.1222 215.588 32.3281C225.41 13.1365 245.382 0 268.422 0C291.461 9.27996e-05 311.432 13.1369 321.254 32.3281C331.218 13.122 351.285 5.77065e-05 374.416 0C397.547 0 417.613 13.1217 427.577 32.3271C437.399 13.1359 457.372 6.95998e-05 480.411 0C503.369 0 523.28 13.0437 533.139 32.124C542.998 13.0437 562.908 0.000161823 585.866 0C608.906 0 628.877 13.1362 638.699 32.3271C648.664 13.1215 668.73 0 691.861 0C714.993 4.61649e-05 735.058 13.1222 745.022 32.3281C754.845 13.1364 774.817 0 797.856 0C820.896 4.63996e-05 840.867 13.1361 850.689 32.3271C860.654 13.1215 880.72 0 903.852 0C927.064 6.94904e-05 947.19 13.2141 957.118 32.5303C967.046 13.2141 987.172 0 1010.38 0C1033.52 0 1053.58 13.1222 1063.55 32.3281C1073.37 13.1364 1093.34 4.64005e-05 1116.38 0C1139.42 0 1159.39 13.1366 1169.21 32.3281C1179.18 13.122 1199.24 0 1222.38 0C1245.51 0 1265.57 13.1222 1275.54 32.3281C1285.36 13.1365 1305.33 0 1328.37 0C1351.33 0.000184939 1371.24 13.0439 1381.1 32.124C1390.96 13.0435 1410.87 0 1433.83 0C1456.86 9.27996e-05 1476.84 13.1368 1486.66 32.3281C1496.62 13.1219 1516.69 0 1539.82 0C1562.95 0.000138494 1583.02 13.1223 1592.98 32.3281C1602.8 13.1365 1622.78 0 1645.82 0C1668.85 9.27996e-05 1688.83 13.1368 1698.65 32.3281C1708.61 13.122 1728.68 4.61652e-05 1751.81 0C1774.94 0 1795.01 13.1217 1804.97 32.3271C1814.79 13.136 1834.77 0 1857.8 0Z" fill="currentColor"/>
</svg>
