<svg width="73" height="73" viewBox="0 0 73 73" fill="none" xmlns="http://www.w3.org/2000/svg">
<g clip-path="url(#clip0_2045_8408)">
<path d="M60.0526 23.8033C60.0905 23.5034 59.88 23.2754 59.6758 23.202C59.4715 23.1286 55.4094 21.9737 55.4094 21.9737C55.4094 21.9737 52.8859 17.7467 52.6393 17.3193C52.3927 16.8918 51.707 16.8177 51.4313 16.8244C51.4272 16.8245 50.7381 16.8511 49.575 16.8958C49.5518 16.2656 49.4791 15.4798 49.2949 14.6604C48.701 12.0179 47.2515 10.315 45.1031 9.73597C45.1006 9.73531 45.0984 9.73472 45.0958 9.73403C44.9469 9.69411 44.7946 9.66831 44.6423 9.64203C44.5996 9.54902 44.5559 9.45647 44.508 9.36649C43.8406 8.11427 42.7698 7.30437 41.3203 6.9612C38.5226 6.29686 35.2221 7.56107 32.0267 10.5206C29.7774 12.6035 27.7353 15.4301 26.7416 17.7749C23.2902 17.9079 20.8753 18.0011 20.823 18.0032C19.079 18.077 19.0149 18.114 18.3978 19.5731C17.9306 20.6778 4.99991 52.1004 4.99991 52.1004L38.6436 67.6537L54.9518 67.9502C54.9518 67.9502 60.0146 24.1032 60.0526 23.8033ZM28.882 17.6923C31.0311 13.4876 36.5615 7.79751 40.8788 8.82227C41.5343 8.98326 42.0449 9.27337 42.431 9.70752C41.5768 9.89595 40.7016 10.2612 39.8258 10.8085C37.5557 12.2276 35.418 14.8027 34.1205 17.4905C32.3002 17.5606 30.5199 17.6292 28.882 17.6923ZM42.6977 17.1604C40.6963 17.2374 38.5112 17.3216 36.3193 17.4059C37.4732 15.3788 39.1333 13.4975 40.8398 12.4308C41.4746 12.0341 42.3226 11.6287 43.2296 11.5106C43.569 13.3176 43.1272 15.632 42.6977 17.1604ZM44.6963 17.0834C45.0525 15.6722 45.4085 13.672 45.2066 11.8064C47.2059 12.7699 47.6044 15.431 47.6613 16.9693C46.7823 17.0031 45.781 17.0416 44.6963 17.0834Z" fill="#95BF47"/>
<path d="M59.6758 23.2022C59.4715 23.1287 55.4094 21.9738 55.4094 21.9738C55.4094 21.9738 52.8859 17.7469 52.6393 17.3194C52.5473 17.1599 52.3941 17.0499 52.2241 16.9746L38.6455 67.654L54.9518 67.9504C54.9518 67.9504 60.0147 24.1033 60.0526 23.8034C60.0905 23.5035 59.88 23.2756 59.6758 23.2022Z" fill="#5E8E3E"/>
<path d="M40.5859 26.5126L37.0299 32.6799C37.0299 32.6799 35.2907 31.2471 32.9025 30.7661C29.4009 30.0609 28.7823 32.2232 28.6708 32.7767C28.0622 35.7981 35.7044 38.5417 34.2791 45.6183C33.1578 51.1858 28.9047 54.0601 24.1429 53.1011C18.4289 51.9503 16.2233 47.8056 16.2233 47.8056L18.7713 43.059C18.7713 43.059 21.2555 46.2425 23.7902 46.753C25.4458 47.0864 26.3823 45.9182 26.5742 44.9659C27.3679 41.0246 20.9421 39.5475 22.2463 33.0716C23.344 27.6213 28.3183 23.1347 36.2155 24.7251C39.2582 25.3381 40.5859 26.5126 40.5859 26.5126Z" fill="white"/>
</g>
<defs>
<clipPath id="clip0_2045_8408">
<rect width="59.32" height="59.32" fill="white" transform="translate(15.3532) rotate(15)"/>
</clipPath>
</defs>
</svg>
