<svg width="83" height="83" viewBox="0 0 83 83" fill="none" xmlns="http://www.w3.org/2000/svg">
<path d="M20.2374 45.0226C19.2181 48.8266 15.307 51.0847 11.503 50.0654C7.69908 49.0461 5.44102 45.135 6.46031 41.331C7.4796 37.527 11.3907 35.2689 15.1947 36.2882L22.0833 38.134L20.2375 45.0226L20.2374 45.0226Z" fill="#FF185B"/>
<path d="M23.6817 45.9462C24.701 42.1422 28.6121 39.8841 32.4162 40.9034C36.2202 41.9227 38.4783 45.8338 37.459 49.6378L32.8445 66.8593C31.8252 70.6633 27.9141 72.9214 24.1101 71.9021C20.306 70.8828 18.048 66.9717 19.0673 63.1677L23.6817 45.9462Z" fill="#FF185B"/>
<path d="M37.9535 20.2371C34.1494 19.2179 31.8914 15.3068 32.9107 11.5027C33.9299 7.69883 37.841 5.44077 41.645 6.46006C45.4491 7.47935 47.7071 11.3904 46.6878 15.1945L44.8421 22.0831L37.9534 20.2373L37.9535 20.2371Z" fill="#00C5F1"/>
<path d="M37.0306 23.682C40.8346 24.7012 43.0927 28.6123 42.0734 32.4164C41.0541 36.2204 37.143 38.4785 33.339 37.4592L16.1175 32.8447C12.3135 31.8253 10.0554 27.9142 11.0747 24.1103C12.0939 20.3064 16.0051 18.0482 19.8091 19.0675L37.0306 23.682Z" fill="#00C5F1"/>
<path d="M62.7391 37.9531C63.7584 34.149 67.6695 31.891 71.4735 32.9103C75.2776 33.9295 77.5356 37.8406 76.5163 41.6447C75.497 45.4487 71.586 47.7068 67.7819 46.6875L60.8933 44.8417L62.7391 37.9531Z" fill="#00B67B"/>
<path d="M59.2947 37.0302C58.2754 40.8342 54.3643 43.0923 50.5603 42.073C46.7562 41.0537 44.4982 37.1426 45.5175 33.3386L50.1319 16.1171C51.1514 12.3131 55.0624 10.0551 58.8664 11.0743C62.6703 12.0936 64.9285 16.0047 63.9092 19.8087L59.2947 37.0302Z" fill="#00B67B"/>
<path d="M45.023 62.7394C48.827 63.7586 51.0851 67.6697 50.0658 71.4738C49.0465 75.2778 45.1354 77.5359 41.3314 76.5166C37.5273 75.4973 35.2693 71.5862 36.2886 67.7822L38.1344 60.8936L45.023 62.7394Z" fill="#FFB20F"/>
<path d="M45.9459 59.2949C42.1418 58.2756 39.8838 54.3645 40.9031 50.5605C41.9223 46.7564 45.8334 44.4984 49.6375 45.5177L66.8589 50.1321C70.663 51.1514 72.921 55.0625 71.9017 58.8666C70.8825 62.6706 66.9714 64.9287 63.1673 63.9094L45.9459 59.2949Z" fill="#FFB20F"/>
</svg>
