<svg width="50" height="50" viewBox="0 0 50 50" fill="none" xmlns="http://www.w3.org/2000/svg">
<g clip-path="url(#clip0_2077_3460)">
<path d="M15.625 23.4375L4.6875 34.375M18.75 34.375L7.8125 45.3125M32.8125 34.375L21.875 45.3125M32.9688 5.30079L35.9375 12.2207C36.0109 12.3899 36.1289 12.536 36.2789 12.6433C36.4289 12.7507 36.6052 12.8152 36.7891 12.8301L44.3809 13.4766C44.5794 13.4893 44.7696 13.561 44.9272 13.6825C45.0847 13.8039 45.2025 13.9696 45.2654 14.1583C45.3283 14.347 45.3335 14.5502 45.2803 14.7419C45.2271 14.9336 45.118 15.1051 44.9668 15.2344L39.1992 20.1504C39.0612 20.2681 38.9581 20.4213 38.9009 20.5935C38.8438 20.7656 38.8348 20.9501 38.875 21.127L40.6016 28.4434C40.6444 28.6375 40.6294 28.8399 40.5583 29.0256C40.4872 29.2113 40.3631 29.372 40.2016 29.4878C40.04 29.6036 39.848 29.6695 39.6493 29.6772C39.4506 29.6849 39.2541 29.6342 39.084 29.5313L32.5566 25.6504C32.3975 25.5564 32.2161 25.5068 32.0312 25.5068C31.8464 25.5068 31.665 25.5564 31.5059 25.6504L24.9785 29.5313C24.8084 29.6342 24.6119 29.6849 24.4132 29.6772C24.2145 29.6695 24.0225 29.6036 23.8609 29.4878C23.6994 29.372 23.5753 29.2113 23.5042 29.0256C23.4331 28.8399 23.4181 28.6375 23.4609 28.4434L25.1953 21.1367C25.2355 20.9599 25.2265 20.7754 25.1694 20.6032C25.1122 20.4311 25.0091 20.2779 24.8711 20.1602L19.1035 15.2344C18.9524 15.1051 18.8432 14.9336 18.79 14.7419C18.7368 14.5502 18.742 14.347 18.8049 14.1583C18.8678 13.9696 18.9856 13.8039 19.1432 13.6825C19.3007 13.561 19.4909 13.4893 19.6895 13.4766L27.2832 12.834C27.4657 12.8171 27.6403 12.7512 27.7885 12.6432C27.9367 12.5353 28.0529 12.3893 28.125 12.2207L31.0937 5.30079C31.1735 5.11857 31.3047 4.96355 31.4712 4.8547C31.6377 4.74584 31.8323 4.68787 32.0312 4.68787C32.2302 4.68787 32.4248 4.74584 32.5913 4.8547C32.7578 4.96355 32.889 5.11857 32.9688 5.30079Z" stroke="#121212" stroke-width="2" stroke-linecap="round" stroke-linejoin="round"/>
</g>
<defs>
<clipPath id="clip0_2077_3460">
<rect width="50" height="50" fill="white"/>
</clipPath>
</defs>
</svg>
