<svg width="50" height="50" viewBox="0 0 50 50" fill="none" xmlns="http://www.w3.org/2000/svg">
<g clip-path="url(#clip0_2045_7020)">
<path d="M16.459 33.5043L5.69921 29.5438C5.40253 29.4344 5.14653 29.2368 4.96573 28.9776C4.78492 28.7184 4.68799 28.4101 4.68799 28.0942C4.68799 27.7783 4.78492 27.47 4.96573 27.2108C5.14653 26.9516 5.40253 26.754 5.69921 26.6446L16.459 22.6841L20.4238 11.9361C20.5333 11.6398 20.7312 11.3841 20.9906 11.2035C21.2501 11.0229 21.5587 10.926 21.875 10.926C22.1912 10.926 22.4999 11.0229 22.7594 11.2035C23.0188 11.3841 23.2167 11.6398 23.3262 11.9361L27.291 22.6841L38.0508 26.6446C38.3475 26.754 38.6035 26.9516 38.7843 27.2108C38.9651 27.47 39.062 27.7783 39.062 28.0942C39.062 28.4101 38.9651 28.7184 38.7843 28.9776C38.6035 29.2368 38.3475 29.4344 38.0508 29.5438L27.291 33.5043L23.3262 44.2522C23.2167 44.5486 23.0188 44.8043 22.7594 44.9849C22.4999 45.1655 22.1912 45.2623 21.875 45.2623C21.5587 45.2623 21.2501 45.1655 20.9906 44.9849C20.7312 44.8043 20.5333 44.5486 20.4238 44.2522L16.459 33.5043Z" stroke="#121212" stroke-width="2" stroke-linecap="round" stroke-linejoin="round"/>
<path d="M34.375 3.12158V12.4863" stroke="#121212" stroke-width="2" stroke-linecap="round" stroke-linejoin="round"/>
<path d="M43.75 14.0471V20.2903" stroke="#121212" stroke-width="2" stroke-linecap="round" stroke-linejoin="round"/>
<path d="M29.6875 7.80396H39.0625" stroke="#121212" stroke-width="2" stroke-linecap="round" stroke-linejoin="round"/>
<path d="M40.625 17.1687H46.875" stroke="#121212" stroke-width="2" stroke-linecap="round" stroke-linejoin="round"/>
</g>
<defs>
<clipPath id="clip0_2045_7020">
<rect width="50" height="49.9452" fill="white"/>
</clipPath>
</defs>
</svg>
