<svg width="50" height="50" viewBox="0 0 50 50" fill="none" xmlns="http://www.w3.org/2000/svg">
<path d="M33.332 29.1667C33.332 30.8926 34.7311 32.2917 36.457 32.2917C38.1829 32.2917 39.582 30.8926 39.582 29.1667C39.582 27.4408 38.1829 26.0417 36.457 26.0417C34.7311 26.0417 33.332 27.4408 33.332 29.1667Z" stroke="#121212" stroke-width="2"/>
<path d="M20.8327 14.5833H33.3327C39.2252 14.5833 42.1715 14.5833 44.0021 16.4139C45.8327 18.2445 45.8327 21.1908 45.8327 27.0833V31.25C45.8327 37.1426 45.8327 40.0888 44.0021 41.9194C42.1715 43.75 39.2252 43.75 33.3327 43.75H20.8327C12.9759 43.75 9.04757 43.75 6.60679 41.3092C4.16602 38.8684 4.16602 34.9401 4.16602 27.0833V22.9167C4.16602 15.0599 4.16602 11.1316 6.60679 8.69078C9.04757 6.25 12.9759 6.25 20.8327 6.25H29.166C31.1035 6.25 32.0722 6.25 32.867 6.46296C35.0238 7.04088 36.7085 8.72556 37.2864 10.8824C37.4993 11.6772 37.4993 12.6459 37.4993 14.5833" stroke="#121212" stroke-width="2" stroke-linecap="round"/>
</svg>
